  0
SECTION
  2
HEADER
  9
$ACADVER
  1
AC1014
  9
$ACADMAINTVER
 70
     9
  9
$DWGCODEPAGE
  3
ANSI_1252
  9
$INSBASE
 10
0.0
 20
0.0
 30
0.0
  9
$EXTMIN
 10
-178.3981075301966
 20
-105.0600230761936
 30
0.0
  9
$EXTMAX
 10
197.4289560970004
 20
98.83427527754827
 30
0.0
  9
$LIMMIN
 10
0.0
 20
0.0
  9
$LIMMAX
 10
12.0
 20
9.0
  9
$ORTHOMODE
 70
     0
  9
$REGENMODE
 70
     1
  9
$FILLMODE
 70
     1
  9
$QTEXTMODE
 70
     0
  9
$MIRRTEXT
 70
     1
  9
$DRAGMODE
 70
     2
  9
$LTSCALE
 40
1.0
  9
$OSMODE
 70
    37
  9
$ATTMODE
 70
     1
  9
$TEXTSIZE
 40
0.2
  9
$TRACEWID
 40
0.05
  9
$TEXTSTYLE
  7
STANDARD
  9
$CLAYER
  8
DEFAULT
  9
$CELTYPE
  6
BYLAYER
  9
$CECOLOR
 62
   256
  9
$CELTSCALE
 40
1.0
  9
$DELOBJ
 70
     1
  9
$DISPSILH
 70
     0
  9
$DIMSCALE
 40
1.0
  9
$DIMASZ
 40
0.18
  9
$DIMEXO
 40
0.0625
  9
$DIMDLI
 40
0.38
  9
$DIMRND
 40
0.0
  9
$DIMDLE
 40
0.0
  9
$DIMEXE
 40
0.18
  9
$DIMTP
 40
0.0
  9
$DIMTM
 40
0.0
  9
$DIMTXT
 40
0.18
  9
$DIMCEN
 40
0.09
  9
$DIMTSZ
 40
0.0
  9
$DIMTOL
 70
     0
  9
$DIMLIM
 70
     0
  9
$DIMTIH
 70
     1
  9
$DIMTOH
 70
     1
  9
$DIMSE1
 70
     0
  9
$DIMSE2
 70
     0
  9
$DIMTAD
 70
     0
  9
$DIMZIN
 70
     0
  9
$DIMBLK
  1

  9
$DIMASO
 70
     1
  9
$DIMSHO
 70
     1
  9
$DIMPOST
  1

  9
$DIMAPOST
  1

  9
$DIMALT
 70
     0
  9
$DIMALTD
 70
     2
  9
$DIMALTF
 40
25.4
  9
$DIMLFAC
 40
1.0
  9
$DIMTOFL
 70
     0
  9
$DIMTVP
 40
0.0
  9
$DIMTIX
 70
     0
  9
$DIMSOXD
 70
     0
  9
$DIMSAH
 70
     0
  9
$DIMBLK1
  1

  9
$DIMBLK2
  1

  9
$DIMSTYLE
  2
STANDARD
  9
$DIMCLRD
 70
     0
  9
$DIMCLRE
 70
     0
  9
$DIMCLRT
 70
     0
  9
$DIMTFAC
 40
1.0
  9
$DIMGAP
 40
0.09
  9
$DIMJUST
 70
     0
  9
$DIMSD1
 70
     0
  9
$DIMSD2
 70
     0
  9
$DIMTOLJ
 70
     1
  9
$DIMTZIN
 70
     0
  9
$DIMALTZ
 70
     0
  9
$DIMALTTZ
 70
     0
  9
$DIMFIT
 70
     5
  9
$DIMUPT
 70
     0
  9
$DIMUNIT
 70
     2
  9
$DIMDEC
 70
     4
  9
$DIMTDEC
 70
     4
  9
$DIMALTU
 70
     2
  9
$DIMALTTD
 70
     2
  9
$DIMTXSTY
  7
STANDARD
  9
$DIMAUNIT
 70
     0
  9
$LUNITS
 70
     2
  9
$LUPREC
 70
     4
  9
$SKETCHINC
 40
0.1
  9
$FILLETRAD
 40
0.5
  9
$AUNITS
 70
     0
  9
$AUPREC
 70
     0
  9
$MENU
  1
.
  9
$ELEVATION
 40
0.0
  9
$PELEVATION
 40
0.0
  9
$THICKNESS
 40
0.0
  9
$LIMCHECK
 70
     0
  9
$CHAMFERA
 40
0.5
  9
$CHAMFERB
 40
0.5
  9
$CHAMFERC
 40
1.0
  9
$CHAMFERD
 40
0.0
  9
$SKPOLY
 70
     0
  9
$TDCREATE
 40
2458022.270962292
  9
$TDUPDATE
 40
2458022.270962303
  9
$TDINDWG
 40
0.0000000116
  9
$TDUSRTIMER
 40
0.0000000116
  9
$USRTIMER
 70
     1
  9
$ANGBASE
 50
0.0
  9
$ANGDIR
 70
     0
  9
$PDMODE
 70
     0
  9
$PDSIZE
 40
0.0
  9
$PLINEWID
 40
0.0
  9
$COORDS
 70
     1
  9
$SPLFRAME
 70
     0
  9
$SPLINETYPE
 70
     6
  9
$SPLINESEGS
 70
     8
  9
$ATTDIA
 70
     0
  9
$ATTREQ
 70
     1
  9
$HANDLING
 70
     1
  9
$HANDSEED
  5
322
  9
$SURFTAB1
 70
     6
  9
$SURFTAB2
 70
     6
  9
$SURFTYPE
 70
     6
  9
$SURFU
 70
     6
  9
$SURFV
 70
     6
  9
$UCSNAME
  2

  9
$UCSORG
 10
0.0
 20
0.0
 30
0.0
  9
$UCSXDIR
 10
1.0
 20
0.0
 30
0.0
  9
$UCSYDIR
 10
0.0
 20
1.0
 30
0.0
  9
$PUCSNAME
  2

  9
$PUCSORG
 10
0.0
 20
0.0
 30
0.0
  9
$PUCSXDIR
 10
1.0
 20
0.0
 30
0.0
  9
$PUCSYDIR
 10
0.0
 20
1.0
 30
0.0
  9
$USERI1
 70
     0
  9
$USERI2
 70
     0
  9
$USERI3
 70
     0
  9
$USERI4
 70
     0
  9
$USERI5
 70
     0
  9
$USERR1
 40
0.0
  9
$USERR2
 40
0.0
  9
$USERR3
 40
0.0
  9
$USERR4
 40
0.0
  9
$USERR5
 40
0.0
  9
$WORLDVIEW
 70
     1
  9
$SHADEDGE
 70
     3
  9
$SHADEDIF
 70
    70
  9
$TILEMODE
 70
     0
  9
$MAXACTVP
 70
    64
  9
$PINSBASE
 10
0.0
 20
0.0
 30
0.0
  9
$PLIMCHECK
 70
     0
  9
$PEXTMIN
 10
0.0
 20
0.0
 30
0.0
  9
$PEXTMAX
 10
0.0
 20
0.0
 30
0.0
  9
$PLIMMIN
 10
0.0
 20
0.0
  9
$PLIMMAX
 10
12.0
 20
9.0
  9
$UNITMODE
 70
     0
  9
$VISRETAIN
 70
     1
  9
$PLINEGEN
 70
     0
  9
$PSLTSCALE
 70
     1
  9
$TREEDEPTH
 70
  3020
  9
$PICKSTYLE
 70
     1
  9
$CMLSTYLE
  2
STANDARD
  9
$CMLJUST
 70
     0
  9
$CMLSCALE
 40
1.0
  9
$PROXYGRAPHICS
 70
     1
  9
$MEASUREMENT
 70
     0
  0
ENDSEC
  0
SECTION
  2
CLASSES
  0
CLASS
  1
ACDBDICTIONARYWDFLT
  2
AcDbDictionaryWithDefault
  3
ObjectDBX Classes
 90
        0
280
     0
281
     0
  0
CLASS
  1
VISUALSTYLE
  2
AcDbVisualStyle
  3
ObjectDBX Classes
 90
     4095
280
     0
281
     0
  0
CLASS
  1
XRECORD
  2
AcDbXrecord
  3
AutoCAD 2000
 90
        0
280
     0
281
     0
  0
CLASS
  1
LWPOLYLINE
  2
AcDbPolyline
  3
AutoCAD 2000
 90
        0
280
     0
281
     1
  0
CLASS
  1
HATCH
  2
AcDbHatch
  3
AutoCAD 2000
 90
        0
280
     0
281
     1
  0
CLASS
  1
ACDBPLACEHOLDER
  2
AcDbPlaceHolder
  3
ObjectDBX Classes
 90
        0
280
     0
281
     0
  0
CLASS
  1
LAYOUT
  2
AcDbLayout
  3
ObjectDBX Classes
 90
        0
280
     0
281
     0
  0
ENDSEC
  0
SECTION
  2
TABLES
  0
TABLE
  2
VPORT
  5
8
330
0
100
AcDbSymbolTable
 70
     1
  0
VPORT
  5
29
330
8
100
AcDbSymbolTableRecord
100
AcDbViewportTableRecord
  2
*ACTIVE
 70
     0
 10
0.0
 20
0.0
 11
1.0
 21
1.0
 12
9.515424283401899
 22
-3.112873899322693
 13
0.0
 23
0.0
 14
0.5
 24
0.5
 15
0.5
 25
0.5
 16
0.0
 26
0.0
 36
1.0
 17
0.0
 27
0.0
 37
0.0
 40
207.9721843208168
 41
1.843244596154249
 42
50.0
 43
0.0
 44
0.0
 50
0.0
 51
0.0
 71
     0
 72
   100
 73
     1
 74
     3
 75
     0
 76
     0
 77
     0
 78
     0
  0
ENDTAB
  0
TABLE
  2
LTYPE
  5
5
330
0
100
AcDbSymbolTable
 70
     1
  0
LTYPE
  5
14
330
5
100
AcDbSymbolTableRecord
100
AcDbLinetypeTableRecord
  2
BYBLOCK
 70
     0
  3

 72
    65
 73
     0
 40
0.0
  0
LTYPE
  5
15
330
5
100
AcDbSymbolTableRecord
100
AcDbLinetypeTableRecord
  2
BYLAYER
 70
     0
  3

 72
    65
 73
     0
 40
0.0
  0
LTYPE
  5
16
330
5
100
AcDbSymbolTableRecord
100
AcDbLinetypeTableRecord
  2
CONTINUOUS
 70
     0
  3
Solid line
 72
    65
 73
     0
 40
0.0
  0
ENDTAB
  0
TABLE
  2
LAYER
  5
2
330
0
100
AcDbSymbolTable
 70
     2
  0
LAYER
  5
10
330
2
100
AcDbSymbolTableRecord
100
AcDbLayerTableRecord
  2
0
 70
     0
 62
     7
  6
CONTINUOUS
  0
LAYER
  5
228
330
2
100
AcDbSymbolTableRecord
100
AcDbLayerTableRecord
  2
DEFAULT
 70
     0
 62
     7
  6
CONTINUOUS
  0
ENDTAB
  0
TABLE
  2
STYLE
  5
3
330
0
100
AcDbSymbolTable
 70
     1
  0
STYLE
  5
11
330
3
100
AcDbSymbolTableRecord
100
AcDbTextStyleTableRecord
  2
STANDARD
 70
     0
 40
0.0
 41
1.0
 50
0.0
 71
     0
 42
0.2
  3
txt
  4

  0
ENDTAB
  0
TABLE
  2
VIEW
  5
6
330
0
100
AcDbSymbolTable
 70
     0
  0
ENDTAB
  0
TABLE
  2
UCS
  5
7
330
0
100
AcDbSymbolTable
 70
     0
  0
ENDTAB
  0
TABLE
  2
APPID
  5
9
330
0
100
AcDbSymbolTable
 70
     1
  0
APPID
  5
12
330
9
100
AcDbSymbolTableRecord
100
AcDbRegAppTableRecord
  2
ACAD
 70
     0
  0
ENDTAB
  0
TABLE
  2
DIMSTYLE
  5
A
330
0
100
AcDbSymbolTable
 70
     1
  0
DIMSTYLE
105
27
330
A
100
AcDbSymbolTableRecord
100
AcDbDimStyleTableRecord
  2
STANDARD
 70
     0
  3

  4

  5

  6

  7

 40
1.0
 41
0.18
 42
0.0625
 43
0.38
 44
0.18
 45
0.0
 46
0.0
 47
0.0
 48
0.0
140
0.18
141
0.09
142
0.0
143
25.4
144
1.0
145
0.0
146
1.0
147
0.09
 71
     0
 72
     0
 73
     1
 74
     1
 75
     0
 76
     0
 77
     0
 78
     0
170
     0
171
     2
172
     0
173
     0
174
     0
175
     0
176
     0
177
     0
178
     0
270
     2
271
     4
272
     4
273
     2
274
     2
340
11
275
     0
280
     0
281
     0
282
     0
283
     1
284
     0
285
     0
286
     0
287
     3
288
     0
  0
ENDTAB
  0
TABLE
  2
BLOCK_RECORD
  5
1
330
0
100
AcDbSymbolTable
 70
     2
  0
BLOCK_RECORD
  5
1F
330
1
100
AcDbSymbolTableRecord
100
AcDbBlockTableRecord
  2
*MODEL_SPACE
  0
BLOCK_RECORD
  5
2FA
330
1
100
AcDbSymbolTableRecord
100
AcDbBlockTableRecord
  2
*PAPER_SPACE
  0
BLOCK_RECORD
  5
23
330
1
100
AcDbSymbolTableRecord
100
AcDbBlockTableRecord
  2
*PAPER_SPACE0
  0
BLOCK_RECORD
  5
1B
330
1
100
AcDbSymbolTableRecord
100
AcDbBlockTableRecord
  2
*PAPER_SPACE1
  0
ENDTAB
  0
ENDSEC
  0
SECTION
  2
BLOCKS
  0
BLOCK
  5
20
330
1F
100
AcDbEntity
  8
0
100
AcDbBlockBegin
  2
*MODEL_SPACE
 70
     0
 10
0.0
 20
0.0
 30
0.0
  3
*MODEL_SPACE
  1

  0
ENDBLK
  5
21
330
1F
100
AcDbEntity
  8
0
100
AcDbBlockEnd
  0
BLOCK
  5
2FC
330
2FA
100
AcDbEntity
 67
     1
  8
0
100
AcDbBlockBegin
  2
*PAPER_SPACE
 70
     0
 10
0.0
 20
0.0
 30
0.0
  3
*PAPER_SPACE
  1

  0
ENDBLK
  5
2FD
330
2FA
100
AcDbEntity
 67
     1
  8
0
100
AcDbBlockEnd
  0
BLOCK
  5
24
330
23
100
AcDbEntity
  8
0
100
AcDbBlockBegin
  2
*PAPER_SPACE0
 70
     0
 10
0.0
 20
0.0
 30
0.0
  3
*PAPER_SPACE0
  1

  0
ENDBLK
  5
25
330
23
100
AcDbEntity
  8
0
100
AcDbBlockEnd
  0
BLOCK
  5
1C
330
1B
100
AcDbEntity
  8
0
100
AcDbBlockBegin
  2
*PAPER_SPACE1
 70
     0
 10
0.0
 20
0.0
 30
0.0
  3
*PAPER_SPACE1
  1

  0
ENDBLK
  5
1D
330
1B
100
AcDbEntity
  8
0
100
AcDbBlockEnd
  0
ENDSEC
  0
SECTION
  2
ENTITIES
  0
ARC
  5
3B
330
1F
100
AcDbEntity
  8
0
 62
   255
100
AcDbCircle
 10
-161.8475913852564
 20
-24.54259936219664
 30
0.0
 40
4.250025503431258
100
AcDbArc
 50
359.9999240725257
 51
90.00007592747457
  0
ARC
  5
3C
330
1F
100
AcDbEntity
  8
0
 62
   255
100
AcDbCircle
 10
-161.8475841585601
 20
-24.54258398631677
 30
0.0
 40
4.250018276783118
100
AcDbArc
 50
269.9998266471212
 51
359.9997167855179
  0
ARC
  5
3D
330
1F
100
AcDbEntity
  8
0
 62
   255
100
AcDbCircle
 10
-161.847583236177
 20
-24.5425912131173
 30
0.0
 40
4.250011049985482
100
AcDbArc
 50
180.0001857881182
 51
269.9998142118811
  0
ARC
  5
3E
330
1F
100
AcDbEntity
  8
0
 62
   255
100
AcDbCircle
 10
-161.8475760093765
 20
-24.54259213550034
 30
0.0
 40
4.250018276783135
100
AcDbArc
 50
90.00028321448289
 51
180.0001733528781
  0
ARC
  5
3F
330
1F
100
AcDbEntity
  8
0
 62
   255
100
AcDbCircle
 10
-161.8476562498903
 20
-13.74278692668995
 30
0.0
 40
3.000071249912899
100
AcDbArc
 50
0.0005494083891577
 51
59.9989734545095
  0
ARC
  5
40
330
1F
100
AcDbEntity
  8
0
 62
   255
100
AcDbCircle
 10
-161.8476562498902
 20
-13.7427293914116
 30
0.0
 40
3.00007124991276
100
AcDbArc
 50
300.0010265454889
 51
359.9994505916118
  0
ARC
  5
41
330
1F
100
AcDbEntity
  8
0
 62
   255
100
AcDbCircle
 10
-161.8475800839845
 20
-13.74259665976486
 30
0.0
 40
3.000148116485349
100
AcDbArc
 50
240.0015006238429
 51
299.9984993761571
  0
ARC
  5
42
330
1F
100
AcDbEntity
  8
0
 62
   255
100
AcDbCircle
 10
-161.8475039180791
 20
-13.74272939141164
 30
0.0
 40
3.000071249912595
100
AcDbArc
 50
180.0005494083874
 51
239.9989734545155
  0
ARC
  5
43
330
1F
100
AcDbEntity
  8
0
 62
   255
100
AcDbCircle
 10
-161.847503918079
 20
-13.74278692668989
 30
0.0
 40
3.000071249912646
100
AcDbArc
 50
120.0010265454851
 51
179.9994505916121
  0
ARC
  5
44
330
1F
100
AcDbEntity
  8
0
 62
   255
100
AcDbCircle
 10
-161.8475800839845
 20
-13.74291965833666
 30
0.0
 40
3.000148116485377
100
AcDbArc
 50
60.00150062384321
 51
119.9984993761568
  0
LINE
  5
45
330
1F
100
AcDbEntity
  8
0
 62
   255
100
AcDbLine
 10
-175.3977079100465
 20
-65.24280076551776
 30
0.0
 11
-175.3975536461255
 21
-68.21913997417363
 31
0.0
  0
LINE
  5
46
330
1F
100
AcDbEntity
  8
0
 62
   255
100
AcDbLine
 10
-175.3975536461255
 20
-68.21913997417363
 30
0.0
 11
-120.3976607085298
 21
-68.21913997417363
 31
0.0
  0
LINE
  5
47
330
1F
100
AcDbEntity
  8
0
 62
   255
100
AcDbLine
 10
-120.3976607085298
 20
-68.21913997417363
 30
0.0
 11
-120.3977832449799
 21
-65.24283463219666
 31
0.0
  0
LINE
  5
48
330
1F
100
AcDbEntity
  8
0
 62
   255
100
AcDbLine
 10
-120.3977832449799
 20
-65.24283463219666
 30
0.0
 11
-117.3976486913211
 21
-65.24283463219666
 31
0.0
  0
LINE
  5
49
330
1F
100
AcDbEntity
  8
0
 62
   255
100
AcDbLine
 10
-117.3976486913211
 20
-65.24283463219666
 30
0.0
 11
-117.3976486913211
 21
-55.24285101929936
 31
0.0
  0
LINE
  5
4A
330
1F
100
AcDbEntity
  8
0
 62
   255
100
AcDbLine
 10
-117.3976486913211
 20
-55.24285101929936
 30
0.0
 11
-120.3976607085298
 21
-55.24285101929936
 31
0.0
  0
LINE
  5
4B
330
1F
100
AcDbEntity
  8
0
 62
   255
100
AcDbLine
 10
-120.3976607085298
 20
-55.24285101929936
 30
0.0
 11
-120.3976607085298
 21
-51.84283965757482
 31
0.0
  0
LINE
  5
4C
330
1F
100
AcDbEntity
  8
0
 62
   255
100
AcDbLine
 10
-120.3976607085298
 20
-51.84283965757482
 30
0.0
 11
-123.3976388590595
 21
-51.84283965757482
 31
0.0
  0
LINE
  5
4D
330
1F
100
AcDbEntity
  8
0
 62
   255
100
AcDbLine
 10
-123.3976388590595
 20
-51.84283965757482
 30
0.0
 11
-123.3976388590595
 21
-53.4428370356384
 31
0.0
  0
LINE
  5
4E
330
1F
100
AcDbEntity
  8
0
 62
   255
100
AcDbLine
 10
-123.3976388590595
 20
-53.4428370356384
 30
0.0
 11
-126.3976508762681
 21
-53.4428370356384
 31
0.0
  0
LINE
  5
4F
330
1F
100
AcDbEntity
  8
0
 62
   255
100
AcDbLine
 10
-126.3976508762681
 20
-53.4428370356384
 30
0.0
 11
-126.3976508762681
 21
-51.84283965757482
 31
0.0
  0
LINE
  5
50
330
1F
100
AcDbEntity
  8
0
 62
   255
100
AcDbLine
 10
-126.3976508762681
 20
-51.84283965757482
 30
0.0
 11
-128.3976475988477
 21
-51.84283965757482
 31
0.0
  0
LINE
  5
51
330
1F
100
AcDbEntity
  8
0
 62
   255
100
AcDbLine
 10
-128.3976475988477
 20
-51.84283965757482
 30
0.0
 11
-128.3976475988477
 21
-48.64284490144767
 31
0.0
  0
LINE
  5
52
330
1F
100
AcDbEntity
  8
0
 62
   255
100
AcDbLine
 10
-128.3976475988477
 20
-48.64284490144767
 30
0.0
 11
-126.3976508762681
 21
-48.64284490144767
 31
0.0
  0
LINE
  5
53
330
1F
100
AcDbEntity
  8
0
 62
   255
100
AcDbLine
 10
-126.3976508762681
 20
-48.64284490144767
 30
0.0
 11
-126.3976508762681
 21
-47.0428475233841
 31
0.0
  0
LINE
  5
54
330
1F
100
AcDbEntity
  8
0
 62
   255
100
AcDbLine
 10
-126.3976508762681
 20
-47.0428475233841
 30
0.0
 11
-123.3976388590595
 21
-47.0428475233841
 31
0.0
  0
LINE
  5
55
330
1F
100
AcDbEntity
  8
0
 62
   255
100
AcDbLine
 10
-123.3976388590595
 20
-47.0428475233841
 30
0.0
 11
-123.3976388590595
 21
-48.64284490144767
 31
0.0
  0
LINE
  5
56
330
1F
100
AcDbEntity
  8
0
 62
   255
100
AcDbLine
 10
-123.3976388590595
 20
-48.64284490144767
 30
0.0
 11
-120.3976607085298
 21
-48.64284490144767
 31
0.0
  0
LINE
  5
57
330
1F
100
AcDbEntity
  8
0
 62
   255
100
AcDbLine
 10
-120.3976607085298
 20
-48.64284490144767
 30
0.0
 11
-120.3976607085298
 21
-45.24286740640206
 31
0.0
  0
LINE
  5
58
330
1F
100
AcDbEntity
  8
0
 62
   255
100
AcDbLine
 10
-120.3976607085298
 20
-45.24286740640206
 30
0.0
 11
-117.3976486913211
 21
-45.24286740640206
 31
0.0
  0
LINE
  5
59
330
1F
100
AcDbEntity
  8
0
 62
   255
100
AcDbLine
 10
-117.3976486913211
 20
-45.24286740640206
 30
0.0
 11
-117.3976486913211
 21
-35.24284992682584
 31
0.0
  0
LINE
  5
5A
330
1F
100
AcDbEntity
  8
0
 62
   255
100
AcDbLine
 10
-117.3976486913211
 20
-35.24284992682584
 30
0.0
 11
-120.3978469752637
 21
-35.2427991268075
 31
0.0
  0
LINE
  5
5B
330
1F
100
AcDbEntity
  8
0
 62
   255
100
AcDbLine
 10
-120.3978469752637
 20
-35.2427991268075
 30
0.0
 11
-120.3980332419977
 21
-23.24278492465183
 31
0.0
  0
LINE
  5
5C
330
1F
100
AcDbEntity
  8
0
 62
   255
100
AcDbLine
 10
-120.3980332419977
 20
-23.24278492465183
 30
0.0
 11
-117.398055091468
 21
-23.24283572467017
 31
0.0
  0
LINE
  5
5D
330
1F
100
AcDbEntity
  8
0
 62
   255
100
AcDbLine
 10
-117.398055091468
 20
-23.24283572467017
 30
0.0
 11
-117.398055091468
 21
-13.24285211177288
 31
0.0
  0
LINE
  5
5E
330
1F
100
AcDbEntity
  8
0
 62
   255
100
AcDbLine
 10
-117.398055091468
 20
-13.24285211177288
 30
0.0
 11
-120.3980332419977
 21
-13.24285211177288
 31
0.0
  0
LINE
  5
5F
330
1F
100
AcDbEntity
  8
0
 62
   255
100
AcDbLine
 10
-120.3980332419977
 20
-13.24285211177288
 30
0.0
 11
-120.3980332419977
 21
-9.842840750048353
 31
0.0
  0
LINE
  5
60
330
1F
100
AcDbEntity
  8
0
 62
   255
100
AcDbLine
 10
-120.3980332419977
 20
-9.842840750048353
 30
0.0
 11
-123.3980452592064
 21
-9.842840750048353
 31
0.0
  0
LINE
  5
61
330
1F
100
AcDbEntity
  8
0
 62
   255
100
AcDbLine
 10
-123.3980452592064
 20
-9.842840750048353
 30
0.0
 11
-123.3980452592064
 21
-11.4428381281119
 31
0.0
  0
LINE
  5
62
330
1F
100
AcDbEntity
  8
0
 62
   255
100
AcDbLine
 10
-123.3980452592064
 20
-11.4428381281119
 30
0.0
 11
-126.3980234097361
 21
-11.4428381281119
 31
0.0
  0
LINE
  5
63
330
1F
100
AcDbEntity
  8
0
 62
   255
100
AcDbLine
 10
-126.3980234097361
 20
-11.4428381281119
 30
0.0
 11
-126.3980234097361
 21
-9.842840750048353
 31
0.0
  0
LINE
  5
64
330
1F
100
AcDbEntity
  8
0
 62
   255
100
AcDbLine
 10
-126.3980234097361
 20
-9.842840750048353
 30
0.0
 11
-128.3980201323155
 21
-9.842840750048353
 31
0.0
  0
LINE
  5
65
330
1F
100
AcDbEntity
  8
0
 62
   255
100
AcDbLine
 10
-128.3980201323155
 20
-9.842840750048353
 30
0.0
 11
-128.3980201323155
 21
-6.642845993921199
 31
0.0
  0
LINE
  5
66
330
1F
100
AcDbEntity
  8
0
 62
   255
100
AcDbLine
 10
-128.3980201323155
 20
-6.642845993921199
 30
0.0
 11
-126.3980234097361
 21
-6.642845993921199
 31
0.0
  0
LINE
  5
67
330
1F
100
AcDbEntity
  8
0
 62
   255
100
AcDbLine
 10
-126.3980234097361
 20
-6.642845993921199
 30
0.0
 11
-126.3980234097361
 21
-5.042848615857622
 31
0.0
  0
LINE
  5
68
330
1F
100
AcDbEntity
  8
0
 62
   255
100
AcDbLine
 10
-126.3980234097361
 20
-5.042848615857622
 30
0.0
 11
-123.3980452592064
 21
-5.042848615857622
 31
0.0
  0
LINE
  5
69
330
1F
100
AcDbEntity
  8
0
 62
   255
100
AcDbLine
 10
-123.3980452592064
 20
-5.042848615857622
 30
0.0
 11
-123.3980452592064
 21
-6.642845993921199
 31
0.0
  0
LINE
  5
6A
330
1F
100
AcDbEntity
  8
0
 62
   255
100
AcDbLine
 10
-123.3980452592064
 20
-6.642845993921199
 30
0.0
 11
-120.3980332419977
 21
-6.642845993921199
 31
0.0
  0
LINE
  5
6B
330
1F
100
AcDbEntity
  8
0
 62
   255
100
AcDbLine
 10
-120.3980332419977
 20
-6.642845993921199
 30
0.0
 11
-120.3980332419977
 21
-3.242868498875552
 31
0.0
  0
LINE
  5
6C
330
1F
100
AcDbEntity
  8
0
 62
   255
100
AcDbLine
 10
-120.3980332419977
 20
-3.242868498875552
 30
0.0
 11
-117.398055091468
 21
-3.242868498875552
 31
0.0
  0
LINE
  5
6D
330
1F
100
AcDbEntity
  8
0
 62
   255
100
AcDbLine
 10
-117.398055091468
 20
-3.242868498875552
 30
0.0
 11
-117.398055091468
 21
6.757148980700634
 31
0.0
  0
LINE
  5
6E
330
1F
100
AcDbEntity
  8
0
 62
   255
100
AcDbLine
 10
-117.398055091468
 20
6.757148980700634
 30
0.0
 11
-120.3979655086399
 21
6.757216714058444
 31
0.0
  0
LINE
  5
6F
330
1F
100
AcDbEntity
  8
0
 62
   255
100
AcDbLine
 10
-120.3979655086399
 20
6.757216714058444
 30
0.0
 11
-120.3978977752821
 21
11.71797397299871
 31
0.0
  0
LINE
  5
70
330
1F
100
AcDbEntity
  8
0
 62
   255
100
AcDbLine
 10
-120.3978977752821
 20
11.71797397299871
 30
0.0
 11
-175.3978245795568
 21
11.71797397299871
 31
0.0
  0
LINE
  5
71
330
1F
100
AcDbEntity
  8
0
 62
   255
100
AcDbLine
 10
-175.3978245795568
 20
11.71797397299871
 30
0.0
 11
-175.3978251108275
 21
6.757216714058444
 31
0.0
  0
LINE
  5
72
330
1F
100
AcDbEntity
  8
0
 62
   255
100
AcDbLine
 10
-175.3978251108275
 20
6.757216714058444
 30
0.0
 11
-178.3979381968021
 21
6.757216714058444
 31
0.0
  0
LINE
  5
73
330
1F
100
AcDbEntity
  8
0
 62
   255
100
AcDbLine
 10
-178.3979381968021
 20
6.757216714058444
 30
0.0
 11
-178.3979381968021
 21
-3.242800765517771
 31
0.0
  0
LINE
  5
74
330
1F
100
AcDbEntity
  8
0
 62
   255
100
AcDbLine
 10
-178.3979381968021
 20
-3.242800765517771
 30
0.0
 11
-175.3979600462724
 21
-3.242800765517771
 31
0.0
  0
LINE
  5
75
330
1F
100
AcDbEntity
  8
0
 62
   255
100
AcDbLine
 10
-175.3979600462724
 20
-3.242800765517771
 30
0.0
 11
-175.3979600462724
 21
-6.642778260563389
 31
0.0
  0
LINE
  5
76
330
1F
100
AcDbEntity
  8
0
 62
   255
100
AcDbLine
 10
-175.3979600462724
 20
-6.642778260563389
 30
0.0
 11
-172.3979480290637
 21
-6.642778260563389
 31
0.0
  0
LINE
  5
77
330
1F
100
AcDbEntity
  8
0
 62
   255
100
AcDbLine
 10
-172.3979480290637
 20
-6.642778260563389
 30
0.0
 11
-172.3979480290637
 21
-5.042780882499812
 31
0.0
  0
LINE
  5
78
330
1F
100
AcDbEntity
  8
0
 62
   255
100
AcDbLine
 10
-172.3979480290637
 20
-5.042780882499812
 30
0.0
 11
-169.397969878534
 21
-5.042780882499812
 31
0.0
  0
LINE
  5
79
330
1F
100
AcDbEntity
  8
0
 62
   255
100
AcDbLine
 10
-169.397969878534
 20
-5.042780882499812
 30
0.0
 11
-169.397969878534
 21
-6.642812127242294
 31
0.0
  0
LINE
  5
7A
330
1F
100
AcDbEntity
  8
0
 62
   255
100
AcDbLine
 10
-169.397969878534
 20
-6.642812127242294
 30
0.0
 11
-167.3979731559546
 21
-6.642812127242294
 31
0.0
  0
LINE
  5
7B
330
1F
100
AcDbEntity
  8
0
 62
   255
100
AcDbLine
 10
-167.3979731559546
 20
-6.642812127242294
 30
0.0
 11
-167.3979731559546
 21
-9.842806883369434
 31
0.0
  0
LINE
  5
7C
330
1F
100
AcDbEntity
  8
0
 62
   255
100
AcDbLine
 10
-167.3979731559546
 20
-9.842806883369434
 30
0.0
 11
-169.397969878534
 21
-9.842806883369434
 31
0.0
  0
LINE
  5
7D
330
1F
100
AcDbEntity
  8
0
 62
   255
100
AcDbLine
 10
-169.397969878534
 20
-9.842806883369434
 30
0.0
 11
-169.397969878534
 21
-11.44280426143301
 31
0.0
  0
LINE
  5
7E
330
1F
100
AcDbEntity
  8
0
 62
   255
100
AcDbLine
 10
-169.397969878534
 20
-11.44280426143301
 30
0.0
 11
-172.3979480290637
 21
-11.44280426143301
 31
0.0
  0
LINE
  5
7F
330
1F
100
AcDbEntity
  8
0
 62
   255
100
AcDbLine
 10
-172.3979480290637
 20
-11.44280426143301
 30
0.0
 11
-172.3979480290637
 21
-9.842806883369434
 31
0.0
  0
LINE
  5
80
330
1F
100
AcDbEntity
  8
0
 62
   255
100
AcDbLine
 10
-172.3979480290637
 20
-9.842806883369434
 30
0.0
 11
-175.3979600462724
 21
-9.842806883369434
 31
0.0
  0
LINE
  5
81
330
1F
100
AcDbEntity
  8
0
 62
   255
100
AcDbLine
 10
-175.3979600462724
 20
-9.842806883369434
 30
0.0
 11
-175.3979600462724
 21
-13.24278437841508
 31
0.0
  0
LINE
  5
82
330
1F
100
AcDbEntity
  8
0
 62
   255
100
AcDbLine
 10
-175.3979600462724
 20
-13.24278437841508
 30
0.0
 11
-178.3979381968021
 21
-13.24278437841508
 31
0.0
  0
LINE
  5
83
330
1F
100
AcDbEntity
  8
0
 62
   255
100
AcDbLine
 10
-178.3979381968021
 20
-13.24278437841508
 30
0.0
 11
-178.3979381968021
 21
-23.24280185799127
 31
0.0
  0
LINE
  5
84
330
1F
100
AcDbEntity
  8
0
 62
   255
100
AcDbLine
 10
-178.3979381968021
 20
-23.24280185799127
 30
0.0
 11
-175.3979600462724
 21
-23.24276799131236
 31
0.0
  0
LINE
  5
85
330
1F
100
AcDbEntity
  8
0
 62
   255
100
AcDbLine
 10
-175.3979600462724
 20
-23.24276799131236
 30
0.0
 11
-175.3980277796302
 21
-35.24278219346803
 31
0.0
  0
LINE
  5
86
330
1F
100
AcDbEntity
  8
0
 62
   255
100
AcDbLine
 10
-175.3980277796302
 20
-35.24278219346803
 30
0.0
 11
-178.3981075301966
 21
-35.24281606014694
 31
0.0
  0
LINE
  5
87
330
1F
100
AcDbEntity
  8
0
 62
   255
100
AcDbLine
 10
-178.3981075301966
 20
-35.24281606014694
 30
0.0
 11
-178.3981075301966
 21
-45.24279967304425
 31
0.0
  0
LINE
  5
88
330
1F
100
AcDbEntity
  8
0
 62
   255
100
AcDbLine
 10
-178.3981075301966
 20
-45.24279967304425
 30
0.0
 11
-175.398095512988
 21
-45.24279967304425
 31
0.0
  0
LINE
  5
89
330
1F
100
AcDbEntity
  8
0
 62
   255
100
AcDbLine
 10
-175.398095512988
 20
-45.24279967304425
 30
0.0
 11
-175.398095512988
 21
-48.64281103476877
 31
0.0
  0
LINE
  5
8A
330
1F
100
AcDbEntity
  8
0
 62
   255
100
AcDbLine
 10
-175.398095512988
 20
-48.64281103476877
 30
0.0
 11
-172.3981173624582
 21
-48.64281103476877
 31
0.0
  0
LINE
  5
8B
330
1F
100
AcDbEntity
  8
0
 62
   255
100
AcDbLine
 10
-172.3981173624582
 20
-48.64281103476877
 30
0.0
 11
-172.3981173624582
 21
-47.04281365670522
 31
0.0
  0
LINE
  5
8C
330
1F
100
AcDbEntity
  8
0
 62
   255
100
AcDbLine
 10
-172.3981173624582
 20
-47.04281365670522
 30
0.0
 11
-169.3981053452496
 21
-47.04281365670522
 31
0.0
  0
LINE
  5
8D
330
1F
100
AcDbEntity
  8
0
 62
   255
100
AcDbLine
 10
-169.3981053452496
 20
-47.04281365670522
 30
0.0
 11
-169.3981053452496
 21
-48.64281103476877
 31
0.0
  0
LINE
  5
8E
330
1F
100
AcDbEntity
  8
0
 62
   255
100
AcDbLine
 10
-169.3981053452496
 20
-48.64281103476877
 30
0.0
 11
-167.3981086226701
 21
-48.64281103476877
 31
0.0
  0
LINE
  5
8F
330
1F
100
AcDbEntity
  8
0
 62
   255
100
AcDbLine
 10
-167.3981086226701
 20
-48.64281103476877
 30
0.0
 11
-167.3981086226701
 21
-51.84280579089592
 31
0.0
  0
LINE
  5
90
330
1F
100
AcDbEntity
  8
0
 62
   255
100
AcDbLine
 10
-167.3981086226701
 20
-51.84280579089592
 30
0.0
 11
-169.3981053452496
 21
-51.84280579089592
 31
0.0
  0
LINE
  5
91
330
1F
100
AcDbEntity
  8
0
 62
   255
100
AcDbLine
 10
-169.3981053452496
 20
-51.84280579089592
 30
0.0
 11
-169.3981053452496
 21
-53.44280316895949
 31
0.0
  0
LINE
  5
92
330
1F
100
AcDbEntity
  8
0
 62
   255
100
AcDbLine
 10
-169.3981053452496
 20
-53.44280316895949
 30
0.0
 11
-172.3981173624582
 21
-53.44280316895949
 31
0.0
  0
LINE
  5
93
330
1F
100
AcDbEntity
  8
0
 62
   255
100
AcDbLine
 10
-172.3981173624582
 20
-53.44280316895949
 30
0.0
 11
-172.3981173624582
 21
-51.84280579089592
 31
0.0
  0
LINE
  5
94
330
1F
100
AcDbEntity
  8
0
 62
   255
100
AcDbLine
 10
-172.3981173624582
 20
-51.84280579089592
 30
0.0
 11
-175.398095512988
 21
-51.84280579089592
 31
0.0
  0
LINE
  5
95
330
1F
100
AcDbEntity
  8
0
 62
   255
100
AcDbLine
 10
-175.398095512988
 20
-51.84280579089592
 30
0.0
 11
-175.398095512988
 21
-55.24278328594154
 31
0.0
  0
LINE
  5
96
330
1F
100
AcDbEntity
  8
0
 62
   255
100
AcDbLine
 10
-175.398095512988
 20
-55.24278328594154
 30
0.0
 11
-178.3981075301966
 21
-55.24278328594154
 31
0.0
  0
LINE
  5
97
330
1F
100
AcDbEntity
  8
0
 62
   255
100
AcDbLine
 10
-178.3981075301966
 20
-55.24278328594154
 30
0.0
 11
-178.3981075301966
 21
-65.24280076551776
 31
0.0
  0
LINE
  5
98
330
1F
100
AcDbEntity
  8
0
 62
   255
100
AcDbLine
 10
-178.3981075301966
 20
-65.24280076551776
 30
0.0
 11
-175.3977079100465
 21
-65.24280076551776
 31
0.0
  0
ARC
  5
99
330
1F
100
AcDbEntity
  8
0
 62
   255
100
AcDbCircle
 10
-170.7978617982531
 20
-33.34273568791023
 30
0.0
 40
1.400095120468724
100
AcDbArc
 50
0.0017807243172476
 51
59.99889867207129
  0
ARC
  5
9A
330
1F
100
AcDbEntity
  8
0
 62
   255
100
AcDbCircle
 10
-170.7978481181844
 20
-33.34262268954364
 30
0.0
 40
1.400081441448006
100
AcDbArc
 50
300.0007780917903
 51
359.997156489648
  0
ARC
  5
9B
330
1F
100
AcDbEntity
  8
0
 62
   255
100
AcDbCircle
 10
-170.7977813176056
 20
-33.34263922409492
 30
0.0
 40
1.400033722021815
100
AcDbArc
 50
240.0012510742661
 51
299.9987489257338
  0
ARC
  5
9C
330
1F
100
AcDbEntity
  8
0
 62
   255
100
AcDbCircle
 10
-170.7977145170268
 20
-33.34262268954352
 30
0.0
 40
1.400081441448097
100
AcDbArc
 50
180.0028435103569
 51
239.9992219082132
  0
ARC
  5
9D
330
1F
100
AcDbEntity
  8
0
 62
   255
100
AcDbCircle
 10
-170.7977008369581
 20
-33.34273568791037
 30
0.0
 40
1.400095120468839
100
AcDbArc
 50
120.0011013279261
 51
179.9982192756772
  0
ARC
  5
9E
330
1F
100
AcDbEntity
  8
0
 62
   255
100
AcDbCircle
 10
-170.7977813176056
 20
-33.3427112565273
 30
0.0
 40
1.400033722021803
100
AcDbArc
 50
60.00125107426586
 51
119.9987489257342
  0
ARC
  5
9F
330
1F
100
AcDbEntity
  8
0
 62
   255
100
AcDbCircle
 10
-152.8976986656157
 20
-33.34269788997318
 30
0.0
 40
1.400063520977727
100
AcDbArc
 50
0.000233933071373
 51
59.99804485661949
  0
ARC
  5
A0
330
1F
100
AcDbEntity
  8
0
 62
   255
100
AcDbCircle
 10
-152.8976849836221
 20
-33.34266048926571
 30
0.0
 40
1.400049839330973
100
AcDbArc
 50
300.001631876596
 51
359.9987033450679
  0
ARC
  5
A1
330
1F
100
AcDbEntity
  8
0
 62
   255
100
AcDbCircle
 10
-152.8976328504552
 20
-33.34257602448741
 30
0.0
 40
1.400096921629328
100
AcDbArc
 50
240.0019440482784
 51
299.9980559517216
  0
ARC
  5
A2
330
1F
100
AcDbEntity
  8
0
 62
   255
100
AcDbCircle
 10
-152.8975807172883
 20
-33.3426604892656
 30
0.0
 40
1.400049839331039
100
AcDbArc
 50
180.0012966549368
 51
239.9983681234081
  0
ARC
  5
A3
330
1F
100
AcDbEntity
  8
0
 62
   255
100
AcDbCircle
 10
-152.8975670352947
 20
-33.3426978899733
 30
0.0
 40
1.400063520977812
100
AcDbArc
 50
120.0019551433762
 51
179.9997660669237
  0
ARC
  5
A4
330
1F
100
AcDbEntity
  8
0
 62
   255
100
AcDbCircle
 10
-152.8976328504552
 20
-33.34277445613483
 30
0.0
 40
1.400096921629328
100
AcDbArc
 50
60.00194404827841
 51
119.9980559517216
  0
LINE
  5
A5
330
1F
100
AcDbEntity
  8
0
 62
   255
100
AcDbLine
 10
-120.3974864291509
 20
90.67473878748629
 30
0.0
 11
-120.3976251715258
 21
95.65512178685063
 31
0.0
  0
LINE
  5
A6
330
1F
100
AcDbEntity
  8
0
 62
   255
100
AcDbLine
 10
-120.3976251715255
 20
95.65512178685043
 30
0.0
 11
-175.3974132334256
 21
95.65512178685043
 31
0.0
  0
LINE
  5
A7
330
1F
100
AcDbEntity
  8
0
 62
   255
100
AcDbLine
 10
-175.3974132334256
 20
95.65512178685043
 30
0.0
 11
-175.3973455000678
 21
90.69434759457073
 31
0.0
  0
LINE
  5
A8
330
1F
100
AcDbEntity
  8
0
 62
   255
100
AcDbLine
 10
-175.3973455000678
 20
90.69434759457073
 30
0.0
 11
-178.3972559172397
 21
90.6942967945524
 31
0.0
  0
LINE
  5
A9
330
1F
100
AcDbEntity
  8
0
 62
   255
100
AcDbLine
 10
-178.3972559172397
 20
90.6942967945524
 30
0.0
 11
-178.3972559172397
 21
80.69427931497617
 31
0.0
  0
LINE
  5
AA
330
1F
100
AcDbEntity
  8
0
 62
   255
100
AcDbLine
 10
-178.3972559172397
 20
80.69427931497617
 30
0.0
 11
-175.39727776671
 21
80.69427931497617
 31
0.0
  0
LINE
  5
AB
330
1F
100
AcDbEntity
  8
0
 62
   255
100
AcDbLine
 10
-175.39727776671
 20
80.69427931497617
 30
0.0
 11
-175.39727776671
 21
77.29426795325165
 31
0.0
  0
LINE
  5
AC
330
1F
100
AcDbEntity
  8
0
 62
   255
100
AcDbLine
 10
-175.39727776671
 20
77.29426795325165
 30
0.0
 11
-172.3972657495013
 21
77.29426795325165
 31
0.0
  0
LINE
  5
AD
330
1F
100
AcDbEntity
  8
0
 62
   255
100
AcDbLine
 10
-172.3972657495013
 20
77.29426795325165
 30
0.0
 11
-172.3972657495013
 21
78.89426533131521
 31
0.0
  0
LINE
  5
AE
330
1F
100
AcDbEntity
  8
0
 62
   255
100
AcDbLine
 10
-172.3972657495013
 20
78.89426533131521
 30
0.0
 11
-169.3972875989716
 21
78.89426533131521
 31
0.0
  0
LINE
  5
AF
330
1F
100
AcDbEntity
  8
0
 62
   255
100
AcDbLine
 10
-169.3972875989716
 20
78.89426533131521
 30
0.0
 11
-169.3972875989716
 21
77.29426795325165
 31
0.0
  0
LINE
  5
B0
330
1F
100
AcDbEntity
  8
0
 62
   255
100
AcDbLine
 10
-169.3972875989716
 20
77.29426795325165
 30
0.0
 11
-167.3972908763922
 21
77.29426795325165
 31
0.0
  0
LINE
  5
B1
330
1F
100
AcDbEntity
  8
0
 62
   255
100
AcDbLine
 10
-167.3972908763922
 20
77.29426795325165
 30
0.0
 11
-167.3972908763922
 21
74.09427319712452
 31
0.0
  0
LINE
  5
B2
330
1F
100
AcDbEntity
  8
0
 62
   255
100
AcDbLine
 10
-167.3972908763922
 20
74.09427319712452
 30
0.0
 11
-169.3972875989716
 21
74.09427319712452
 31
0.0
  0
LINE
  5
B3
330
1F
100
AcDbEntity
  8
0
 62
   255
100
AcDbLine
 10
-169.3972875989716
 20
74.09427319712452
 30
0.0
 11
-169.3972875989716
 21
72.49427581906093
 31
0.0
  0
LINE
  5
B4
330
1F
100
AcDbEntity
  8
0
 62
   255
100
AcDbLine
 10
-169.3972875989716
 20
72.49427581906093
 30
0.0
 11
-172.3972657495013
 21
72.49427581906093
 31
0.0
  0
LINE
  5
B5
330
1F
100
AcDbEntity
  8
0
 62
   255
100
AcDbLine
 10
-172.3972657495013
 20
72.49427581906093
 30
0.0
 11
-172.3972657495013
 21
74.09427319712452
 31
0.0
  0
LINE
  5
B6
330
1F
100
AcDbEntity
  8
0
 62
   255
100
AcDbLine
 10
-172.3972657495013
 20
74.09427319712452
 30
0.0
 11
-175.39727776671
 21
74.09427319712452
 31
0.0
  0
LINE
  5
B7
330
1F
100
AcDbEntity
  8
0
 62
   255
100
AcDbLine
 10
-175.39727776671
 20
74.09427319712452
 30
0.0
 11
-175.39727776671
 21
70.69429570207885
 31
0.0
  0
LINE
  5
B8
330
1F
100
AcDbEntity
  8
0
 62
   255
100
AcDbLine
 10
-175.39727776671
 20
70.69429570207885
 30
0.0
 11
-178.3972559172397
 21
70.69429570207885
 31
0.0
  0
LINE
  5
B9
330
1F
100
AcDbEntity
  8
0
 62
   255
100
AcDbLine
 10
-178.3972559172397
 20
70.69429570207885
 30
0.0
 11
-178.3972559172397
 21
60.69427822250267
 31
0.0
  0
LINE
  5
BA
330
1F
100
AcDbEntity
  8
0
 62
   255
100
AcDbLine
 10
-178.3972559172397
 20
60.69427822250267
 30
0.0
 11
-175.39727776671
 21
60.69432902252103
 31
0.0
  0
LINE
  5
BB
330
1F
100
AcDbEntity
  8
0
 62
   255
100
AcDbLine
 10
-175.39727776671
 20
60.69432902252103
 30
0.0
 11
-175.3974809667834
 21
48.69431482036535
 31
0.0
  0
LINE
  5
BC
330
1F
100
AcDbEntity
  8
0
 62
   255
100
AcDbLine
 10
-175.3974809667834
 20
48.69431482036535
 30
0.0
 11
-178.3976623173866
 21
48.69426402034699
 31
0.0
  0
LINE
  5
BD
330
1F
100
AcDbEntity
  8
0
 62
   255
100
AcDbLine
 10
-178.3976623173866
 20
48.69426402034699
 30
0.0
 11
-178.3976623173866
 21
38.69428040744968
 31
0.0
  0
LINE
  5
BE
330
1F
100
AcDbEntity
  8
0
 62
   255
100
AcDbLine
 10
-178.3976623173866
 20
38.69428040744968
 30
0.0
 11
-175.3976841668568
 21
38.69428040744968
 31
0.0
  0
LINE
  5
BF
330
1F
100
AcDbEntity
  8
0
 62
   255
100
AcDbLine
 10
-175.3976841668568
 20
38.69428040744968
 30
0.0
 11
-175.3976841668568
 21
35.29426904572516
 31
0.0
  0
LINE
  5
C0
330
1F
100
AcDbEntity
  8
0
 62
   255
100
AcDbLine
 10
-175.3976841668568
 20
35.29426904572516
 30
0.0
 11
-172.3976721496482
 21
35.29426904572516
 31
0.0
  0
LINE
  5
C1
330
1F
100
AcDbEntity
  8
0
 62
   255
100
AcDbLine
 10
-172.3976721496482
 20
35.29426904572516
 30
0.0
 11
-172.3976721496482
 21
36.89426642378872
 31
0.0
  0
LINE
  5
C2
330
1F
100
AcDbEntity
  8
0
 62
   255
100
AcDbLine
 10
-172.3976721496482
 20
36.89426642378872
 30
0.0
 11
-169.3976939991184
 21
36.89426642378872
 31
0.0
  0
LINE
  5
C3
330
1F
100
AcDbEntity
  8
0
 62
   255
100
AcDbLine
 10
-169.3976939991184
 20
36.89426642378872
 30
0.0
 11
-169.3976939991184
 21
35.29426904572516
 31
0.0
  0
LINE
  5
C4
330
1F
100
AcDbEntity
  8
0
 62
   255
100
AcDbLine
 10
-169.3976939991184
 20
35.29426904572516
 30
0.0
 11
-167.3976972765389
 21
35.29426904572516
 31
0.0
  0
LINE
  5
C5
330
1F
100
AcDbEntity
  8
0
 62
   255
100
AcDbLine
 10
-167.3976972765389
 20
35.29426904572516
 30
0.0
 11
-167.3976972765389
 21
32.09427428959802
 31
0.0
  0
LINE
  5
C6
330
1F
100
AcDbEntity
  8
0
 62
   255
100
AcDbLine
 10
-167.3976972765389
 20
32.09427428959802
 30
0.0
 11
-169.3976939991184
 21
32.09427428959802
 31
0.0
  0
LINE
  5
C7
330
1F
100
AcDbEntity
  8
0
 62
   255
100
AcDbLine
 10
-169.3976939991184
 20
32.09427428959802
 30
0.0
 11
-169.3976939991184
 21
30.49427691153446
 31
0.0
  0
LINE
  5
C8
330
1F
100
AcDbEntity
  8
0
 62
   255
100
AcDbLine
 10
-169.3976939991184
 20
30.49427691153446
 30
0.0
 11
-172.3976721496482
 21
30.49427691153446
 31
0.0
  0
LINE
  5
C9
330
1F
100
AcDbEntity
  8
0
 62
   255
100
AcDbLine
 10
-172.3976721496482
 20
30.49427691153446
 30
0.0
 11
-172.3976721496482
 21
32.09427428959802
 31
0.0
  0
LINE
  5
CA
330
1F
100
AcDbEntity
  8
0
 62
   255
100
AcDbLine
 10
-172.3976721496482
 20
32.09427428959802
 30
0.0
 11
-175.3976841668568
 21
32.09427428959802
 31
0.0
  0
LINE
  5
CB
330
1F
100
AcDbEntity
  8
0
 62
   255
100
AcDbLine
 10
-175.3976841668568
 20
32.09427428959802
 30
0.0
 11
-175.3976841668568
 21
28.6942967945524
 31
0.0
  0
LINE
  5
CC
330
1F
100
AcDbEntity
  8
0
 62
   255
100
AcDbLine
 10
-175.3976841668568
 20
28.6942967945524
 30
0.0
 11
-178.3976623173866
 21
28.6942967945524
 31
0.0
  0
LINE
  5
CD
330
1F
100
AcDbEntity
  8
0
 62
   255
100
AcDbLine
 10
-178.3976623173866
 20
28.6942967945524
 30
0.0
 11
-178.3976623173866
 21
18.69427931497617
 31
0.0
  0
LINE
  5
CE
330
1F
100
AcDbEntity
  8
0
 62
   255
100
AcDbLine
 10
-178.3976623173866
 20
18.69427931497617
 30
0.0
 11
-175.3976841668568
 21
18.706132652592
 31
0.0
  0
LINE
  5
CF
330
1F
100
AcDbEntity
  8
0
 62
   255
100
AcDbLine
 10
-175.3976841668568
 20
18.706132652592
 30
0.0
 11
-175.3976841668568
 21
15.7179739729992
 31
0.0
  0
LINE
  5
D0
330
1F
100
AcDbEntity
  8
0
 62
   255
100
AcDbLine
 10
-175.3976841668568
 20
15.7179739729992
 30
0.0
 11
-120.398038187982
 21
15.71797397299822
 31
0.0
  0
LINE
  5
D1
330
1F
100
AcDbEntity
  8
0
 62
   255
100
AcDbLine
 10
-120.398038187982
 20
15.71797397299822
 30
0.0
 11
-120.3976218958666
 21
18.718104523584
 31
0.0
  0
LINE
  5
D2
330
1F
100
AcDbEntity
  8
0
 62
   255
100
AcDbLine
 10
-120.3976218958666
 20
18.718104523584
 30
0.0
 11
-117.3972034785111
 21
18.718104523584
 31
0.0
  0
LINE
  5
D3
330
1F
100
AcDbEntity
  8
0
 62
   255
100
AcDbLine
 10
-117.3972034785111
 20
18.718104523584
 30
0.0
 11
-117.3972034785111
 21
28.69433066123128
 31
0.0
  0
LINE
  5
D4
330
1F
100
AcDbEntity
  8
0
 62
   255
100
AcDbLine
 10
-117.3972034785111
 20
28.69433066123128
 30
0.0
 11
-120.3972154957197
 21
28.69433066123128
 31
0.0
  0
LINE
  5
D5
330
1F
100
AcDbEntity
  8
0
 62
   255
100
AcDbLine
 10
-120.3972154957197
 20
28.69433066123128
 30
0.0
 11
-120.3972154957197
 21
32.09434202295583
 31
0.0
  0
LINE
  5
D6
330
1F
100
AcDbEntity
  8
0
 62
   255
100
AcDbLine
 10
-120.3972154957197
 20
32.09434202295583
 30
0.0
 11
-123.3971936462495
 21
32.09434202295583
 31
0.0
  0
LINE
  5
D7
330
1F
100
AcDbEntity
  8
0
 62
   255
100
AcDbLine
 10
-123.3971936462495
 20
32.09434202295583
 30
0.0
 11
-123.3971936462495
 21
30.49434464489225
 31
0.0
  0
LINE
  5
D8
330
1F
100
AcDbEntity
  8
0
 62
   255
100
AcDbLine
 10
-123.3971936462495
 20
30.49434464489225
 30
0.0
 11
-126.3972056634581
 21
30.49434464489225
 31
0.0
  0
LINE
  5
D9
330
1F
100
AcDbEntity
  8
0
 62
   255
100
AcDbLine
 10
-126.3972056634581
 20
30.49434464489225
 30
0.0
 11
-126.3972056634581
 21
32.09434202295583
 31
0.0
  0
LINE
  5
DA
330
1F
100
AcDbEntity
  8
0
 62
   255
100
AcDbLine
 10
-126.3972056634581
 20
32.09434202295583
 30
0.0
 11
-128.3972023860376
 21
32.09434202295583
 31
0.0
  0
LINE
  5
DB
330
1F
100
AcDbEntity
  8
0
 62
   255
100
AcDbLine
 10
-128.3972023860376
 20
32.09434202295583
 30
0.0
 11
-128.3972023860376
 21
35.29433677908297
 31
0.0
  0
LINE
  5
DC
330
1F
100
AcDbEntity
  8
0
 62
   255
100
AcDbLine
 10
-128.3972023860376
 20
35.29433677908297
 30
0.0
 11
-126.3972056634581
 21
35.29433677908297
 31
0.0
  0
LINE
  5
DD
330
1F
100
AcDbEntity
  8
0
 62
   255
100
AcDbLine
 10
-126.3972056634581
 20
35.29433677908297
 30
0.0
 11
-126.3972056634581
 21
36.89433415714655
 31
0.0
  0
LINE
  5
DE
330
1F
100
AcDbEntity
  8
0
 62
   255
100
AcDbLine
 10
-126.3972056634581
 20
36.89433415714655
 30
0.0
 11
-123.3971936462495
 21
36.89433415714655
 31
0.0
  0
LINE
  5
DF
330
1F
100
AcDbEntity
  8
0
 62
   255
100
AcDbLine
 10
-123.3971936462495
 20
36.89433415714655
 30
0.0
 11
-123.3971936462495
 21
35.29433677908297
 31
0.0
  0
LINE
  5
E0
330
1F
100
AcDbEntity
  8
0
 62
   255
100
AcDbLine
 10
-123.3971936462495
 20
35.29433677908297
 30
0.0
 11
-120.3972154957197
 21
35.29433677908297
 31
0.0
  0
LINE
  5
E1
330
1F
100
AcDbEntity
  8
0
 62
   255
100
AcDbLine
 10
-120.3972154957197
 20
35.29433677908297
 30
0.0
 11
-120.3972154957197
 21
38.69431427412859
 31
0.0
  0
LINE
  5
E2
330
1F
100
AcDbEntity
  8
0
 62
   255
100
AcDbLine
 10
-120.3972154957197
 20
38.69431427412859
 30
0.0
 11
-117.3972034785111
 21
38.69431427412859
 31
0.0
  0
LINE
  5
E3
330
1F
100
AcDbEntity
  8
0
 62
   255
100
AcDbLine
 10
-117.3972034785111
 20
38.69431427412859
 30
0.0
 11
-117.3972034785111
 21
48.6943317537048
 31
0.0
  0
LINE
  5
E4
330
1F
100
AcDbEntity
  8
0
 62
   255
100
AcDbLine
 10
-117.3972034785111
 20
48.6943317537048
 30
0.0
 11
-120.3972832290775
 21
48.69434868704425
 31
0.0
  0
LINE
  5
E5
330
1F
100
AcDbEntity
  8
0
 62
   255
100
AcDbLine
 10
-120.3972832290775
 20
48.69434868704425
 30
0.0
 11
-120.3973509624353
 21
60.69436288919988
 31
0.0
  0
LINE
  5
E6
330
1F
100
AcDbEntity
  8
0
 62
   255
100
AcDbLine
 10
-120.3973509624353
 20
60.69436288919988
 30
0.0
 11
-117.3973728119056
 21
60.69434595586043
 31
0.0
  0
LINE
  5
E7
330
1F
100
AcDbEntity
  8
0
 62
   255
100
AcDbLine
 10
-117.3973728119056
 20
60.69434595586043
 30
0.0
 11
-117.3973728119056
 21
70.69432956875775
 31
0.0
  0
LINE
  5
E8
330
1F
100
AcDbEntity
  8
0
 62
   255
100
AcDbLine
 10
-117.3973728119056
 20
70.69432956875775
 30
0.0
 11
-120.3973509624353
 21
70.69432956875775
 31
0.0
  0
LINE
  5
E9
330
1F
100
AcDbEntity
  8
0
 62
   255
100
AcDbLine
 10
-120.3973509624353
 20
70.69432956875775
 30
0.0
 11
-120.3973509624353
 21
74.09434093048233
 31
0.0
  0
LINE
  5
EA
330
1F
100
AcDbEntity
  8
0
 62
   255
100
AcDbLine
 10
-120.3973509624353
 20
74.09434093048233
 30
0.0
 11
-123.397362979644
 21
74.09434093048233
 31
0.0
  0
LINE
  5
EB
330
1F
100
AcDbEntity
  8
0
 62
   255
100
AcDbLine
 10
-123.397362979644
 20
74.09434093048233
 30
0.0
 11
-123.397362979644
 21
72.49434355241877
 31
0.0
  0
LINE
  5
EC
330
1F
100
AcDbEntity
  8
0
 62
   255
100
AcDbLine
 10
-123.397362979644
 20
72.49434355241877
 30
0.0
 11
-126.3973411301737
 21
72.49434355241877
 31
0.0
  0
LINE
  5
ED
330
1F
100
AcDbEntity
  8
0
 62
   255
100
AcDbLine
 10
-126.3973411301737
 20
72.49434355241877
 30
0.0
 11
-126.3973411301737
 21
74.09434093048233
 31
0.0
  0
LINE
  5
EE
330
1F
100
AcDbEntity
  8
0
 62
   255
100
AcDbLine
 10
-126.3973411301737
 20
74.09434093048233
 30
0.0
 11
-128.3973378527531
 21
74.09434093048233
 31
0.0
  0
LINE
  5
EF
330
1F
100
AcDbEntity
  8
0
 62
   255
100
AcDbLine
 10
-128.3973378527531
 20
74.09434093048233
 30
0.0
 11
-128.3973378527531
 21
77.29433568660946
 31
0.0
  0
LINE
  5
F0
330
1F
100
AcDbEntity
  8
0
 62
   255
100
AcDbLine
 10
-128.3973378527531
 20
77.29433568660946
 30
0.0
 11
-126.3973411301737
 21
77.29433568660946
 31
0.0
  0
LINE
  5
F1
330
1F
100
AcDbEntity
  8
0
 62
   255
100
AcDbLine
 10
-126.3973411301737
 20
77.29433568660946
 30
0.0
 11
-126.3973411301737
 21
78.89433306467302
 31
0.0
  0
LINE
  5
F2
330
1F
100
AcDbEntity
  8
0
 62
   255
100
AcDbLine
 10
-126.3973411301737
 20
78.89433306467302
 30
0.0
 11
-123.397362979644
 21
78.89433306467302
 31
0.0
  0
LINE
  5
F3
330
1F
100
AcDbEntity
  8
0
 62
   255
100
AcDbLine
 10
-123.397362979644
 20
78.89433306467302
 30
0.0
 11
-123.397362979644
 21
77.29433568660946
 31
0.0
  0
LINE
  5
F4
330
1F
100
AcDbEntity
  8
0
 62
   255
100
AcDbLine
 10
-123.397362979644
 20
77.29433568660946
 30
0.0
 11
-120.3973509624353
 21
77.29433568660946
 31
0.0
  0
LINE
  5
F5
330
1F
100
AcDbEntity
  8
0
 62
   255
100
AcDbLine
 10
-120.3973509624353
 20
77.29433568660946
 30
0.0
 11
-120.3973509624353
 21
80.69431318165508
 31
0.0
  0
LINE
  5
F6
330
1F
100
AcDbEntity
  8
0
 62
   255
100
AcDbLine
 10
-120.3973509624353
 20
80.69431318165508
 30
0.0
 11
-117.3973728119056
 21
80.69431318165508
 31
0.0
  0
LINE
  5
F7
330
1F
100
AcDbEntity
  8
0
 62
   255
100
AcDbLine
 10
-117.3973728119056
 20
80.69431318165508
 30
0.0
 11
-117.3973728119056
 21
90.6943306612313
 31
0.0
  0
LINE
  5
F8
330
1F
100
AcDbEntity
  8
0
 62
   255
100
AcDbLine
 10
-117.3973728119056
 20
90.6943306612313
 30
0.0
 11
-120.3974864291509
 21
90.67473878748629
 31
0.0
  0
ARC
  5
F9
330
1F
100
AcDbEntity
  8
0
 62
   255
100
AcDbCircle
 10
-142.8975465951865
 20
50.59447135375694
 30
0.0
 40
1.399967742864584
100
AcDbArc
 50
359.9993568991634
 51
60.00030787917979
  0
ARC
  5
FA
330
1F
100
AcDbEntity
  8
0
 62
   255
100
AcDbCircle
 10
-142.8975465951865
 20
50.59443992664541
 30
0.0
 40
1.399967742864583
100
AcDbArc
 50
299.9996921208202
 51
0.0006431008366373
  0
ARC
  5
FB
330
1F
100
AcDbEntity
  8
0
 62
   255
100
AcDbCircle
 10
-142.8975596248764
 20
50.59431901001107
 30
0.0
 40
1.39986954228526
100
AcDbArc
 50
239.9973715311428
 51
300.0026284688572
  0
ARC
  5
FC
330
1F
100
AcDbEntity
  8
0
 62
   255
100
AcDbCircle
 10
-142.8976460135304
 20
50.59443667678174
 30
0.0
 40
1.399928250619387
100
AcDbArc
 50
179.9992238717246
 51
240.0028415468361
  0
ARC
  5
FD
330
1F
100
AcDbEntity
  8
0
 62
   255
100
AcDbCircle
 10
-142.8976460135304
 20
50.59447460362063
 30
0.0
 40
1.399928250619355
100
AcDbArc
 50
119.9971584531634
 51
180.0007761282763
  0
ARC
  5
FE
330
1F
100
AcDbEntity
  8
0
 62
   255
100
AcDbCircle
 10
-142.8975596248764
 20
50.59459227039125
 30
0.0
 40
1.399869542285284
100
AcDbArc
 50
59.9973715311434
 51
120.0026284688566
  0
ARC
  5
FF
330
1F
100
AcDbEntity
  8
0
 62
   255
100
AcDbCircle
 10
-133.9476068404681
 20
59.39430015315084
 30
0.0
 40
4.249991718031273
100
AcDbArc
 50
359.9996189217311
 51
60.00004320588801
  0
ARC
  5
100
330
1F
100
AcDbEntity
  8
0
 62
   255
100
AcDbCircle
 10
-133.9475521117083
 20
59.39424588799658
 30
0.0
 40
4.249936989257033
100
AcDbArc
 50
299.9995308089702
 51
0.0003504957440304
  0
ARC
  5
101
330
1F
100
AcDbEntity
  8
0
 62
   255
100
AcDbCircle
 10
-133.947612391347
 20
59.39427816984252
 30
0.0
 40
4.249995085832722
100
AcDbArc
 50
239.9999830087994
 51
300.0000169912007
  0
ARC
  5
102
330
1F
100
AcDbEntity
  8
0
 62
   255
100
AcDbCircle
 10
-133.9476015760809
 20
59.3942869347572
 30
0.0
 40
4.250008084108952
100
AcDbArc
 50
180.0002028752185
 51
239.9999158200673
  0
ARC
  5
103
330
1F
100
AcDbEntity
  8
0
 62
   255
100
AcDbCircle
 10
-133.9475468461004
 20
59.39425910606315
 30
0.0
 40
4.250062814081987
100
AcDbArc
 50
120.0005101628698
 51
179.9998277095113
  0
ARC
  5
104
330
1F
100
AcDbEntity
  8
0
 62
   255
100
AcDbCircle
 10
-133.947612391347
 20
59.3942994691488
 30
0.0
 40
4.249995085832869
100
AcDbArc
 50
59.99998300880047
 51
120.0000169911995
  0
ARC
  5
105
330
1F
100
AcDbEntity
  8
0
 62
   255
100
AcDbCircle
 10
-133.9475910778002
 20
70.19435397066466
 30
0.0
 40
2.999990703662413
100
AcDbArc
 50
0.0000347109876377
 51
60.0006084490849
  0
ARC
  5
106
330
1F
100
AcDbEntity
  8
0
 62
   255
100
AcDbCircle
 10
-133.9475363495793
 20
70.19435987432836
 30
0.0
 40
2.999935975443774
100
AcDbArc
 50
299.9987880674549
 51
359.9999219575434
  0
ARC
  5
107
330
1F
100
AcDbEntity
  8
0
 62
   255
100
AcDbCircle
 10
-133.947612391347
 20
70.19429836344095
 30
0.0
 40
2.999920725848618
100
AcDbArc
 50
239.9993667835272
 51
300.0006332164728
  0
ARC
  5
108
330
1F
100
AcDbEntity
  8
0
 62
   255
100
AcDbCircle
 10
-133.9476861644478
 20
70.1943220789126
 30
0.0
 40
2.999904377618335
100
AcDbArc
 50
179.9993561810006
 51
240.0008134895255
  0
ARC
  5
109
330
1F
100
AcDbEntity
  8
0
 62
   255
100
AcDbCircle
 10
-133.9476314361313
 20
70.19439176624594
 30
0.0
 40
2.999959105961173
100
AcDbArc
 50
119.9997899961841
 51
180.0006871409171
  0
ARC
  5
10A
330
1F
100
AcDbEntity
  8
0
 62
   255
100
AcDbCircle
 10
-133.947612391347
 20
70.19444707948175
 30
0.0
 40
2.999920725848963
100
AcDbArc
 50
59.99936678353097
 51
120.000633216469
  0
ARC
  5
10B
330
1F
100
AcDbEntity
  8
0
 62
   255
100
AcDbCircle
 10
-124.997652128128
 20
50.59447135375691
 30
0.0
 40
1.399967742864707
100
AcDbArc
 50
359.9993568991649
 51
60.00030787917397
  0
ARC
  5
10C
330
1F
100
AcDbEntity
  8
0
 62
   255
100
AcDbCircle
 10
-124.997652128128
 20
50.59443992664544
 30
0.0
 40
1.399967742864683
100
AcDbArc
 50
299.9996921208253
 51
0.0006431008354741
  0
ARC
  5
10D
330
1F
100
AcDbEntity
  8
0
 62
   255
100
AcDbCircle
 10
-124.9976651578177
 20
50.59431901001123
 30
0.0
 40
1.399869542285417
100
AcDbArc
 50
239.9973715311458
 51
300.0026284688554
  0
ARC
  5
10E
330
1F
100
AcDbEntity
  8
0
 62
   255
100
AcDbCircle
 10
-124.9977515464719
 20
50.59443667678169
 30
0.0
 40
1.399928250619301
100
AcDbArc
 50
179.9992238717226
 51
240.0028415468381
  0
ARC
  5
10F
330
1F
100
AcDbEntity
  8
0
 62
   255
100
AcDbCircle
 10
-124.9977515464719
 20
50.59447460362067
 30
0.0
 40
1.399928250619298
100
AcDbArc
 50
119.9971584531626
 51
180.0007761282777
  0
ARC
  5
110
330
1F
100
AcDbEntity
  8
0
 62
   255
100
AcDbCircle
 10
-124.9976651578177
 20
50.5945922703912
 30
0.0
 40
1.399869542285348
100
AcDbArc
 50
59.99737153114357
 51
120.0026284688564
  0
ARC
  5
111
330
1F
100
AcDbEntity
  8
0
 62
   255
100
AcDbCircle
 10
63.85423923919819
 20
-73.10349477550514
 30
0.0
 40
2.003839750682055
100
AcDbArc
 50
270.1088102268107
 51
359.8902195709278
  0
ARC
  5
112
330
1F
100
AcDbEntity
  8
0
 62
   255
100
AcDbCircle
 10
63.86188185949383
 20
-73.10353098439433
 30
0.0
 40
2.003803602223015
100
AcDbArc
 50
180.108747068366
 51
269.8902827129469
  0
ARC
  5
113
330
1F
100
AcDbEntity
  8
0
 62
   255
100
AcDbCircle
 10
63.8620343343986
 20
-73.11128986816115
 30
0.0
 40
2.003956372023036
100
AcDbArc
 50
90.11406839159704
 51
179.886901827092
  0
ARC
  5
114
330
1F
100
AcDbEntity
  8
0
 62
   255
100
AcDbCircle
 10
63.85423923919814
 20
-73.11117360472754
 30
0.0
 40
2.003839750682108
100
AcDbArc
 50
0.1097804290717909
 51
89.89118977318766
  0
ARC
  5
115
330
1F
100
AcDbEntity
  8
0
 62
   255
100
AcDbCircle
 10
15.85431296066756
 20
-73.10352377028684
 30
0.0
 40
2.003810765333968
100
AcDbArc
 50
270.1089529559152
 51
359.8910470440838
  0
ARC
  5
116
330
1F
100
AcDbEntity
  8
0
 62
   255
100
AcDbCircle
 10
15.8619555808193
 20
-73.10350198979407
 30
0.0
 40
2.003832587322782
100
AcDbArc
 50
180.109574542278
 51
269.8904254577224
  0
ARC
  5
117
330
1F
100
AcDbEntity
  8
0
 62
   255
100
AcDbCircle
 10
15.86210805755349
 20
-73.11131886717277
 30
0.0
 40
2.003985361158591
100
AcDbArc
 50
90.11392564682461
 51
179.8860743531762
  0
ARC
  5
118
330
1F
100
AcDbEntity
  8
0
 62
   255
100
AcDbCircle
 10
15.85431296066752
 20
-73.11114460994582
 30
0.0
 40
2.003810765334016
100
AcDbArc
 50
0.1089529559153625
 51
89.89104704408346
  0
ARC
  5
119
330
1F
100
AcDbEntity
  8
0
 62
   255
100
AcDbCircle
 10
15.85431296066753
 20
-63.10354015738951
 30
0.0
 40
2.003810765333998
100
AcDbArc
 50
270.1089529559161
 51
359.8910470440834
  0
ARC
  5
11A
330
1F
100
AcDbEntity
  8
0
 62
   255
100
AcDbCircle
 10
15.86195558081933
 20
-63.10351837689672
 30
0.0
 40
2.003832587322824
100
AcDbArc
 50
180.109574542279
 51
269.8904254577215
  0
ARC
  5
11B
330
1F
100
AcDbEntity
  8
0
 62
   255
100
AcDbCircle
 10
15.86210805755352
 20
-63.11133525427548
 30
0.0
 40
2.003985361158621
100
AcDbArc
 50
90.11392564682548
 51
179.8860743531754
  0
ARC
  5
11C
330
1F
100
AcDbEntity
  8
0
 62
   255
100
AcDbCircle
 10
15.85431296066749
 20
-63.11116099704854
 30
0.0
 40
2.003810765334044
100
AcDbArc
 50
0.1089529559163769
 51
89.89104704408261
  0
ARC
  5
11D
330
1F
100
AcDbEntity
  8
0
 62
   255
100
AcDbCircle
 10
63.85423923919817
 20
-63.10351116260781
 30
0.0
 40
2.003839750682083
100
AcDbArc
 50
270.1088102268116
 51
359.8902195709274
  0
ARC
  5
11E
330
1F
100
AcDbEntity
  8
0
 62
   255
100
AcDbCircle
 10
63.86188185949388
 20
-63.10354737149698
 30
0.0
 40
2.003803602223051
100
AcDbArc
 50
180.1087470683668
 51
269.8902827129457
  0
ARC
  5
11F
330
1F
100
AcDbEntity
  8
0
 62
   255
100
AcDbCircle
 10
63.86188185949391
 20
-63.11115378294107
 30
0.0
 40
2.003803602223085
100
AcDbArc
 50
90.1097172870553
 51
179.8912529316336
  0
ARC
  5
120
330
1F
100
AcDbEntity
  8
0
 62
   255
100
AcDbCircle
 10
63.85423923919812
 20
-63.11118999183024
 30
0.0
 40
2.003839750682115
100
AcDbArc
 50
0.1097804290721968
 51
89.89118977318705
  0
ARC
  5
121
330
1F
100
AcDbEntity
  8
0
 62
   255
100
AcDbCircle
 10
54.48319067293509
 20
-68.10711102115918
 30
0.0
 40
1.499966437794471
100
AcDbArc
 50
269.9992969937653
 51
329.9997523596456
  0
ARC
  5
122
330
1F
100
AcDbEntity
  8
0
 62
   255
100
AcDbCircle
 10
54.48315386443832
 20
-68.10711102115917
 30
0.0
 40
1.499966437794487
100
AcDbArc
 50
210.0002476403547
 51
270.0007030062345
  0
ARC
  5
123
330
1F
100
AcDbEntity
  8
0
 62
   255
100
AcDbCircle
 10
54.48320675174584
 20
-68.1070883835759
 30
0.0
 40
1.500023558324
100
AcDbArc
 50
150.000013592916
 51
209.9999864070839
  0
ARC
  5
124
330
1F
100
AcDbEntity
  8
0
 62
   255
100
AcDbCircle
 10
54.48315386443831
 20
-68.10706574599261
 30
0.0
 40
1.499966437794478
100
AcDbArc
 50
89.99929699376526
 51
149.9997523596452
  0
ARC
  5
125
330
1F
100
AcDbEntity
  8
0
 62
   255
100
AcDbCircle
 10
54.48319067293508
 20
-68.10706574599263
 30
0.0
 40
1.499966437794487
100
AcDbArc
 50
30.00024764035517
 51
90.00070300623449
  0
ARC
  5
126
330
1F
100
AcDbEntity
  8
0
 62
   255
100
AcDbCircle
 10
54.48313778562756
 20
-68.10708838357588
 30
0.0
 40
1.500023558324007
100
AcDbArc
 50
330.0000135929156
 51
29.99998640708374
  0
ARC
  5
127
330
1F
100
AcDbEntity
  8
0
 62
   255
100
AcDbCircle
 10
25.23302440657681
 20
-68.10706997325438
 30
0.0
 40
1.50000748559571
100
AcDbArc
 50
270.0002022269833
 51
329.9988471264277
  0
ARC
  5
128
330
1F
100
AcDbEntity
  8
0
 62
   255
100
AcDbCircle
 10
25.23301129664492
 20
-68.10711102115913
 30
0.0
 40
1.499966437794529
100
AcDbArc
 50
210.0002476403556
 51
270.0007030062334
  0
ARC
  5
129
330
1F
100
AcDbEntity
  8
0
 62
   255
100
AcDbCircle
 10
25.23306418395239
 20
-68.1070883835759
 30
0.0
 40
1.500023558323985
100
AcDbArc
 50
150.0000135929153
 51
209.9999864070842
  0
ARC
  5
12A
330
1F
100
AcDbEntity
  8
0
 62
   255
100
AcDbCircle
 10
25.23301129664492
 20
-68.10706574599268
 30
0.0
 40
1.499966437794548
100
AcDbArc
 50
89.99929699376675
 51
149.9997523596436
  0
ARC
  5
12B
330
1F
100
AcDbEntity
  8
0
 62
   255
100
AcDbCircle
 10
25.2330244065768
 20
-68.10710679389744
 30
0.0
 40
1.500007485595737
100
AcDbArc
 50
30.00115287357354
 51
89.99979777301645
  0
ARC
  5
12C
330
1F
100
AcDbEntity
  8
0
 62
   255
100
AcDbCircle
 10
25.23299521783414
 20
-68.1070883835759
 30
0.0
 40
1.500023558323998
100
AcDbArc
 50
330.000013592916
 51
29.99998640708454
  0
LINE
  5
12D
330
1F
100
AcDbEntity
  8
0
 62
   255
100
AcDbLine
 10
67.35819985364287
 20
-57.10783454298527
 30
0.0
 11
67.35819985364287
 21
-79.10783235803825
 31
0.0
  0
LINE
  5
12E
330
1F
100
AcDbEntity
  8
0
 62
   255
100
AcDbLine
 10
67.35819985364287
 20
-79.10783235803825
 30
0.0
 11
12.3584423827628
 21
-79.10783235803825
 31
0.0
  0
LINE
  5
12F
330
1F
100
AcDbEntity
  8
0
 62
   255
100
AcDbLine
 10
12.3584423827628
 20
-79.10783235803825
 30
0.0
 11
12.3584423827628
 21
-57.10783454298527
 31
0.0
  0
LINE
  5
130
330
1F
100
AcDbEntity
  8
0
 62
   255
100
AcDbLine
 10
12.3584423827628
 20
-57.10783454298527
 30
0.0
 11
67.35819985364287
 21
-57.10783454298527
 31
0.0
  0
ARC
  5
131
330
1F
100
AcDbEntity
  8
0
 62
   255
100
AcDbCircle
 10
-1.474928506030023
 20
-59.95547347830762
 30
0.0
 40
2.000051860985947
100
AcDbArc
 50
359.9141227508138
 51
59.91295268201715
  0
ARC
  5
132
330
1F
100
AcDbEntity
  8
0
 62
   255
100
AcDbCircle
 10
-1.474856946883945
 20
-59.95546257683936
 30
0.0
 40
1.999980318290103
100
AcDbArc
 50
299.9137362526333
 51
359.9138073713498
  0
ARC
  5
133
330
1F
100
AcDbEntity
  8
0
 62
   255
100
AcDbCircle
 10
-1.474881242119221
 20
-59.95548776642731
 30
0.0
 40
1.999970600737709
100
AcDbArc
 50
239.9128518241538
 51
299.9146994229396
  0
ARC
  5
134
330
1F
100
AcDbEntity
  8
0
 62
   255
100
AcDbCircle
 10
-1.474939809508848
 20
-59.95547085854339
 30
0.0
 40
1.99995587058545
100
AcDbArc
 50
179.9135083347234
 51
239.9145464544528
  0
ARC
  5
135
330
1F
100
AcDbEntity
  8
0
 62
   255
100
AcDbCircle
 10
-1.474955968584187
 20
-59.95543692223006
 30
0.0
 40
1.999939660587007
100
AcDbArc
 50
119.9130637561059
 51
179.9144798678772
  0
ARC
  5
136
330
1F
100
AcDbEntity
  8
0
 62
   255
100
AcDbCircle
 10
-1.474861746775264
 20
-59.95551351509928
 30
0.0
 40
2.000053037500675
100
AcDbArc
 50
59.91518244517609
 51
119.9143091649979
  0
ARC
  5
137
330
1F
100
AcDbEntity
  8
0
 62
   255
100
AcDbCircle
 10
81.26904375141768
 20
-60.07954171477397
 30
0.0
 40
2.000051860985594
100
AcDbArc
 50
359.9141227508089
 51
59.91295268202486
  0
ARC
  5
138
330
1F
100
AcDbEntity
  8
0
 62
   255
100
AcDbCircle
 10
81.26915593304548
 20
-60.07955434829178
 30
0.0
 40
1.999939660587025
100
AcDbArc
 50
299.91306375611
 51
359.914479867879
  0
ARC
  5
139
330
1F
100
AcDbEntity
  8
0
 62
   255
100
AcDbCircle
 10
81.26906171123666
 20
-60.07947775542237
 30
0.0
 40
2.000053037500808
100
AcDbArc
 50
239.9151824451774
 51
299.9143091649967
  0
ARC
  5
13A
330
1F
100
AcDbEntity
  8
0
 62
   255
100
AcDbCircle
 10
81.26912847049118
 20
-60.07951779221429
 30
0.0
 40
2.000051860985731
100
AcDbArc
 50
179.9141227508098
 51
239.9129526820205
  0
ARC
  5
13B
330
1F
100
AcDbEntity
  8
0
 62
   255
100
AcDbCircle
 10
81.26901628886306
 20
-60.07950515869644
 30
0.0
 40
1.99993966058684
100
AcDbArc
 50
119.913063756105
 51
179.9144798678809
  0
ARC
  5
13C
330
1F
100
AcDbEntity
  8
0
 62
   255
100
AcDbCircle
 10
81.26911051067205
 20
-60.07958175156567
 30
0.0
 40
2.00005303750055
100
AcDbArc
 50
59.91518244517463
 51
119.9143091649986
  0
LINE
  5
13D
330
1F
100
AcDbEntity
  8
0
 62
   255
100
AcDbLine
 10
80.65935052073746
 20
-82.57864855220382
 30
0.0
 11
80.66536972389696
 21
-78.57866790832806
 31
0.0
  0
LINE
  5
13E
330
1F
100
AcDbEntity
  8
0
 62
   255
100
AcDbLine
 10
80.66536972389696
 20
-78.57866790832806
 30
0.0
 11
91.00822658886125
 21
-78.59417123271413
 31
0.0
  0
LINE
  5
13F
330
1F
100
AcDbEntity
  8
0
 62
   255
100
AcDbLine
 10
91.00822658886125
 20
-78.59417123271413
 30
0.0
 11
91.00224101593926
 21
-82.59418597807093
 31
0.0
  0
LINE
  5
140
330
1F
100
AcDbEntity
  8
0
 62
   255
100
AcDbLine
 10
91.00224101593926
 20
-82.59418597807093
 30
0.0
 11
80.65935052073746
 21
-82.57864855220382
 31
0.0
  0
LINE
  5
141
330
1F
100
AcDbEntity
  8
0
 62
   255
100
AcDbLine
 10
-9.609610627897723
 20
-101.4880169457649
 30
0.0
 11
-9.60359142473817
 21
-97.48803630188914
 31
0.0
  0
LINE
  5
142
330
1F
100
AcDbEntity
  8
0
 62
   255
100
AcDbLine
 10
-9.60359142473817
 20
-97.48803630188914
 30
0.0
 11
89.22757949742942
 21
-97.63624669455798
 31
0.0
  0
LINE
  5
143
330
1F
100
AcDbEntity
  8
0
 62
   255
100
AcDbLine
 10
89.22757949742942
 20
-97.63624669455798
 30
0.0
 11
89.22159392450737
 21
-101.6362614399148
 31
0.0
  0
LINE
  5
144
330
1F
100
AcDbEntity
  8
0
 62
   255
100
AcDbLine
 10
89.22159392450737
 20
-101.6362614399148
 30
0.0
 11
-9.609610627897723
 21
-101.4880169457649
 31
0.0
  0
LINE
  5
145
330
1F
100
AcDbEntity
  8
0
 62
   255
100
AcDbLine
 10
-9.566024813636773
 20
-90.98848121134186
 30
0.0
 11
-9.560005374855507
 21
-86.98846670160687
 31
0.0
  0
LINE
  5
146
330
1F
100
AcDbEntity
  8
0
 62
   255
100
AcDbLine
 10
-9.560005374855507
 20
-86.98846670160687
 30
0.0
 11
89.27116531169031
 21
-87.13671096013496
 31
0.0
  0
LINE
  5
147
330
1F
100
AcDbEntity
  8
0
 62
   255
100
AcDbLine
 10
89.27116531169031
 20
-87.13671096013496
 30
0.0
 11
89.26517997439004
 21
-91.13669183963249
 31
0.0
  0
LINE
  5
148
330
1F
100
AcDbEntity
  8
0
 62
   255
100
AcDbLine
 10
89.26517997439004
 20
-91.13669183963249
 30
0.0
 11
-9.566024813636773
 21
-90.98848121134186
 31
0.0
  0
LINE
  5
149
330
1F
100
AcDbEntity
  8
0
 62
   255
100
AcDbLine
 10
93.8727369478085
 20
-83.13131416182345
 30
0.0
 11
93.82168952070771
 21
-100.7149981303991
 31
0.0
  0
ARC
  5
14A
330
1F
100
AcDbEntity
  8
0
 62
   255
100
AcDbCircle
 10
89.32003713443808
 20
-100.5554520144073
 30
0.0
 40
4.504478790041651
100
AcDbArc
 50
268.6300631657374
 51
357.9701910157701
  0
LINE
  5
14B
330
1F
100
AcDbEntity
  8
0
 62
   255
100
AcDbLine
 10
89.21234572120778
 20
-105.0586432972035
 30
0.0
 11
-9.597334071716773
 21
-105.0585833979057
 31
0.0
  0
ARC
  5
14C
330
1F
100
AcDbEntity
  8
0
 62
   255
100
AcDbCircle
 10
-9.71111902079209
 20
-100.5628074766866
 30
0.0
 40
4.497215599507053
100
AcDbArc
 50
181.6399199387741
 51
271.4498066584608
  0
LINE
  5
14D
330
1F
100
AcDbEntity
  8
0
 62
   255
100
AcDbLine
 10
-14.20649264377153
 20
-100.6915092182068
 30
0.0
 11
-14.15594739677448
 21
-83.13132579972788
 31
0.0
  0
LINE
  5
14E
330
1F
100
AcDbEntity
  8
0
 62
   255
100
AcDbLine
 10
-14.15594739677448
 20
-83.13132579972788
 30
0.0
 11
-14.134434171934
 21
-75.69718699685058
 31
0.0
  0
LINE
  5
14F
330
1F
100
AcDbEntity
  8
0
 62
   255
100
AcDbLine
 10
-14.134434171934
 20
-75.69718699685058
 30
0.0
 11
-4.94059336742356
 21
-75.69714358782556
 31
0.0
  0
LINE
  5
150
330
1F
100
AcDbEntity
  8
0
 62
   255
100
AcDbLine
 10
-4.94059336742356
 20
-75.69714358782556
 30
0.0
 11
-4.893362961456091
 21
-59.27055001886248
 31
0.0
  0
ARC
  5
151
330
1F
100
AcDbEntity
  8
0
 62
   255
100
AcDbCircle
 10
-1.517092346558453
 20
-59.39079373655628
 30
0.0
 40
3.378411137896941
100
AcDbArc
 50
88.62852423001155
 51
177.9603095503169
  0
ARC
  5
152
330
1F
100
AcDbEntity
  8
0
 62
   255
100
AcDbCircle
 10
-1.351416141254632
 20
-59.36718032042015
 30
0.0
 40
3.35490219490451
100
AcDbArc
 50
1.650760317781512
 51
91.44865581411938
  0
LINE
  5
153
330
1F
100
AcDbEntity
  8
0
 62
   255
100
AcDbLine
 10
2.002093722299151
 20
-59.27053492517234
 30
0.0
 11
1.933547007618188
 21
-83.10783235803845
 31
0.0
  0
LINE
  5
154
330
1F
100
AcDbEntity
  8
0
 62
   255
100
AcDbLine
 10
1.933547007618188
 20
-83.10783235803845
 30
0.0
 11
77.78309522878737
 21
-83.10783235803822
 31
0.0
  0
LINE
  5
155
330
1F
100
AcDbEntity
  8
0
 62
   255
100
AcDbLine
 10
77.78309522878737
 20
-83.10783235803822
 30
0.0
 11
77.85242085823091
 21
-59.27054034447292
 31
0.0
  0
ARC
  5
156
330
1F
100
AcDbEntity
  8
0
 62
   255
100
AcDbCircle
 10
81.22866621434058
 20
-59.39083937387727
 30
0.0
 40
3.378387864222771
100
AcDbArc
 50
88.62263839566398
 51
177.9593568388444
  0
ARC
  5
157
330
1F
100
AcDbEntity
  8
0
 62
   255
100
AcDbCircle
 10
81.39481506643402
 20
-59.36741996676306
 30
0.0
 40
3.355067754668883
100
AcDbArc
 50
1.653130151806518
 51
91.45074104704013
  0
LINE
  5
158
330
1F
100
AcDbEntity
  8
0
 62
   255
100
AcDbLine
 10
84.74848642058714
 20
-59.27063108955244
 30
0.0
 11
84.70024003884242
 21
-75.69721758986228
 31
0.0
  0
LINE
  5
159
330
1F
100
AcDbEntity
  8
0
 62
   255
100
AcDbLine
 10
84.70024003884242
 20
-75.69721758986228
 30
0.0
 11
93.89397924577509
 21
-75.69717347397196
 31
0.0
  0
LINE
  5
15A
330
1F
100
AcDbEntity
  8
0
 62
   255
100
AcDbLine
 10
93.89397924577509
 20
-75.69717347397196
 30
0.0
 11
93.87275367695452
 21
-83.1289096858172
 31
0.0
  0
LINE
  5
15B
330
1F
100
AcDbEntity
  8
0
 62
   255
100
AcDbLine
 10
93.87275367695452
 20
-83.1289096858172
 30
0.0
 11
93.8727369478085
 21
-83.13131416182345
 31
0.0
  0
LINE
  5
15C
330
1F
100
AcDbEntity
  8
0
 62
   255
100
AcDbLine
 10
-11.27697861417278
 20
-82.44091771226171
 30
0.0
 11
-11.2709932768725
 21
-78.44093683276418
 31
0.0
  0
LINE
  5
15D
330
1F
100
AcDbEntity
  8
0
 62
   255
100
AcDbLine
 10
-11.2709932768725
 20
-78.44093683276418
 30
0.0
 11
-0.92810254604899
 21
-78.45644039277204
 31
0.0
  0
LINE
  5
15E
330
1F
100
AcDbEntity
  8
0
 62
   255
100
AcDbLine
 10
-0.92810254604899
 20
-78.45644039277204
 30
0.0
 11
-0.9340881189710899
 21
-82.45645513812882
 31
0.0
  0
LINE
  5
15F
330
1F
100
AcDbEntity
  8
0
 62
   255
100
AcDbLine
 10
-0.9340881189710899
 20
-82.45645513812882
 30
0.0
 11
-11.27697861417278
 21
-82.44091771226171
 31
0.0
  0
ARC
  5
160
330
1F
100
AcDbEntity
  8
0
 62
   255
100
AcDbCircle
 10
119.9289057702979
 20
21.12257533297667
 30
0.0
 40
77.500050326706
100
AcDbArc
 50
0.0000172827496872
 51
59.99999297428715
  0
ARC
  5
161
330
1F
100
AcDbEntity
  8
0
 62
   255
100
AcDbCircle
 10
119.9290015467557
 20
21.12260065744058
 30
0.0
 40
77.49995455024472
100
AcDbArc
 50
299.999966144934
 51
359.9999985603743
  0
ARC
  5
162
330
1F
100
AcDbEntity
  8
0
 62
   255
100
AcDbCircle
 10
119.9289560970005
 20
21.12247969807122
 30
0.0
 40
77.499872521241
100
AcDbArc
 50
239.9999600429884
 51
300.0000399570116
  0
ARC
  5
163
330
1F
100
AcDbEntity
  8
0
 62
   255
100
AcDbCircle
 10
119.9289106472453
 20
21.1226006574407
 30
0.0
 40
77.4999545502449
100
AcDbArc
 50
180.0000014396258
 51
240.000033855066
  0
ARC
  5
164
330
1F
100
AcDbEntity
  8
0
 62
   255
100
AcDbCircle
 10
119.9290064237031
 20
21.12257533297656
 30
0.0
 40
77.50005032670616
100
AcDbArc
 50
120.0000070257129
 51
179.9999827172502
  0
ARC
  5
165
330
1F
100
AcDbEntity
  8
0
 62
   255
100
AcDbCircle
 10
119.9289560970005
 20
21.12256200073996
 30
0.0
 40
77.50003670942054
100
AcDbArc
 50
60.00003012434995
 51
119.9999698756501
  0
ARC
  5
166
330
1F
100
AcDbEntity
  8
0
 62
   255
100
AcDbCircle
 10
65.43074019480522
 20
1.622442527839758
 30
0.0
 40
1.550071297747275
100
AcDbArc
 50
90.00161853126902
 51
149.9986952905593
  0
ARC
  5
167
330
1F
100
AcDbEntity
  8
0
 62
   255
100
AcDbCircle
 10
65.43065261980811
 20
1.622442527839754
 30
0.0
 40
1.550071297747277
100
AcDbArc
 50
30.0013047094408
 51
89.9983814687331
  0
ARC
  5
168
330
1F
100
AcDbEntity
  8
0
 62
   255
100
AcDbCircle
 10
65.43075128325592
 20
1.622503664964886
 30
0.0
 40
1.54995528405442
100
AcDbArc
 50
329.9988288097599
 51
30.00117119024024
  0
ARC
  5
169
330
1F
100
AcDbEntity
  8
0
 62
   255
100
AcDbCircle
 10
65.43065261980813
 20
1.622564802089987
 30
0.0
 40
1.550071297747247
100
AcDbArc
 50
270.0016185312664
 51
329.9986952905601
  0
ARC
  5
16A
330
1F
100
AcDbEntity
  8
0
 62
   255
100
AcDbCircle
 10
65.43074019480521
 20
1.622564802089989
 30
0.0
 40
1.550071297747243
100
AcDbArc
 50
210.0013047094399
 51
269.9983814687315
  0
ARC
  5
16B
330
1F
100
AcDbEntity
  8
0
 62
   255
100
AcDbCircle
 10
65.4306415313571
 20
1.622503664964888
 30
0.0
 40
1.549955284054135
100
AcDbArc
 50
149.9988288097538
 51
210.0011711902462
  0
ARC
  5
16C
330
1F
100
AcDbEntity
  8
0
 62
   255
100
AcDbCircle
 10
65.43074019480518
 20
43.62237370200845
 30
0.0
 40
1.550071297747234
100
AcDbArc
 50
90.00161853126744
 51
149.9986952905588
  0
ARC
  5
16D
330
1F
100
AcDbEntity
  8
0
 62
   255
100
AcDbCircle
 10
65.43065261980816
 20
43.62237370200847
 30
0.0
 40
1.550071297747216
100
AcDbArc
 50
30.00130470944052
 51
89.99838146873466
  0
ARC
  5
16E
330
1F
100
AcDbEntity
  8
0
 62
   255
100
AcDbCircle
 10
65.43075128325589
 20
43.62243483913356
 30
0.0
 40
1.549955284054447
100
AcDbArc
 50
329.9988288097601
 51
30.00117119023987
  0
ARC
  5
16F
330
1F
100
AcDbEntity
  8
0
 62
   255
100
AcDbCircle
 10
65.43065261980817
 20
43.62249597625865
 30
0.0
 40
1.550071297747208
100
AcDbArc
 50
270.0016185312649
 51
329.9986952905595
  0
ARC
  5
170
330
1F
100
AcDbEntity
  8
0
 62
   255
100
AcDbCircle
 10
65.43074019480517
 20
43.62249597625865
 30
0.0
 40
1.550071297747209
100
AcDbArc
 50
210.0013047094405
 51
269.9983814687331
  0
ARC
  5
171
330
1F
100
AcDbEntity
  8
0
 62
   255
100
AcDbCircle
 10
65.43064153135713
 20
43.62243483913355
 30
0.0
 40
1.54995528405416
100
AcDbArc
 50
149.9988288097538
 51
210.0011711902457
  0
ARC
  5
172
330
1F
100
AcDbEntity
  8
0
 62
   255
100
AcDbCircle
 10
174.4297657084315
 20
43.62237370200845
 30
0.0
 40
1.550071297747218
100
AcDbArc
 50
90.00161853126481
 51
149.9986952905588
  0
ARC
  5
173
330
1F
100
AcDbEntity
  8
0
 62
   255
100
AcDbCircle
 10
174.4297018338198
 20
43.62241475202007
 30
0.0
 40
1.550030247247299
100
AcDbArc
 50
30.00042868421256
 51
89.99925749396446
  0
ARC
  5
174
330
1F
100
AcDbEntity
  8
0
 62
   255
100
AcDbCircle
 10
174.4297767968824
 20
43.62243483913356
 30
0.0
 40
1.549955284054447
100
AcDbArc
 50
329.9988288097601
 51
30.00117119023987
  0
ARC
  5
175
330
1F
100
AcDbEntity
  8
0
 62
   255
100
AcDbCircle
 10
174.4297018338198
 20
43.62245492624703
 30
0.0
 40
1.550030247247272
100
AcDbArc
 50
270.0007425060345
 51
329.9995713157874
  0
ARC
  5
176
330
1F
100
AcDbEntity
  8
0
 62
   255
100
AcDbCircle
 10
174.4297657084315
 20
43.62249597625864
 30
0.0
 40
1.550071297747202
100
AcDbArc
 50
210.0013047094403
 51
269.9983814687351
  0
ARC
  5
177
330
1F
100
AcDbEntity
  8
0
 62
   255
100
AcDbCircle
 10
174.4298566404065
 20
43.62243483913357
 30
0.0
 40
1.55011947946804
100
AcDbArc
 50
150.0023328629285
 51
209.9976671370717
  0
ARC
  5
178
330
1F
100
AcDbEntity
  8
0
 62
   255
100
AcDbCircle
 10
174.4297657084316
 20
1.622442527839719
 30
0.0
 40
1.55007129774732
100
AcDbArc
 50
90.00161853126797
 51
149.9986952905586
  0
ARC
  5
179
330
1F
100
AcDbEntity
  8
0
 62
   255
100
AcDbCircle
 10
174.4297018338197
 20
1.622483577851352
 30
0.0
 40
1.550030247247366
100
AcDbArc
 50
30.00042868421336
 51
89.99925749396238
  0
ARC
  5
17A
330
1F
100
AcDbEntity
  8
0
 62
   255
100
AcDbCircle
 10
174.4297767968824
 20
1.62250366496489
 30
0.0
 40
1.549955284054418
100
AcDbArc
 50
329.9988288097599
 51
30.00117119024013
  0
ARC
  5
17B
330
1F
100
AcDbEntity
  8
0
 62
   255
100
AcDbCircle
 10
174.4297018338197
 20
1.622523752078405
 30
0.0
 40
1.550030247247341
100
AcDbArc
 50
270.0007425060365
 51
329.9995713157871
  0
ARC
  5
17C
330
1F
100
AcDbEntity
  8
0
 62
   255
100
AcDbCircle
 10
174.4297657084315
 20
1.622564802089997
 30
0.0
 40
1.550071297747252
100
AcDbArc
 50
210.0013047094401
 51
269.9983814687342
  0
ARC
  5
17D
330
1F
100
AcDbEntity
  8
0
 62
   255
100
AcDbCircle
 10
174.4298566404065
 20
1.622503664964889
 30
0.0
 40
1.550119479468009
100
AcDbArc
 50
150.0023328629282
 51
209.9976671370718
  0
ARC
  5
17E
330
1F
100
AcDbEntity
  8
0
 62
   255
100
AcDbCircle
 10
124.9253697032186
 20
7.118789451781939
 30
0.0
 40
2.003832587322878
100
AcDbArc
 50
0.1095745422799512
 51
89.89042545772197
  0
ARC
  5
17F
330
1F
100
AcDbEntity
  8
0
 62
   255
100
AcDbCircle
 10
124.9253914837114
 20
7.126432071933807
 30
0.0
 40
2.003810765334016
100
AcDbArc
 50
270.108952955915
 51
359.8910470440834
  0
ARC
  5
180
330
1F
100
AcDbEntity
  8
0
 62
   255
100
AcDbCircle
 10
124.9331865805973
 20
7.126606329160817
 30
0.0
 40
2.003985361158669
100
AcDbArc
 50
180.1139256468268
 51
269.8860743531746
  0
ARC
  5
181
330
1F
100
AcDbEntity
  8
0
 62
   255
100
AcDbCircle
 10
124.9330123233703
 20
7.118811232274737
 30
0.0
 40
2.003810765334044
100
AcDbArc
 50
90.10895295591577
 51
179.8910470440826
  0
ARC
  5
182
330
1F
100
AcDbEntity
  8
0
 62
   255
100
AcDbCircle
 10
124.9253914837114
 20
-40.8813810430635
 30
0.0
 40
2.003810765334009
100
AcDbArc
 50
0.1089529559161761
 51
89.89104704408545
  0
ARC
  5
183
330
1F
100
AcDbEntity
  8
0
 62
   255
100
AcDbCircle
 10
124.9253697032186
 20
-40.87373842291164
 30
0.0
 40
2.003832587322867
100
AcDbArc
 50
270.109574542278
 51
359.89042545772
  0
ARC
  5
184
330
1F
100
AcDbEntity
  8
0
 62
   255
100
AcDbCircle
 10
124.9331865805973
 20
-40.87358594617746
 30
0.0
 40
2.003985361158668
100
AcDbArc
 50
180.1139256468268
 51
269.886074353175
  0
ARC
  5
185
330
1F
100
AcDbEntity
  8
0
 62
   255
100
AcDbCircle
 10
124.9329905435471
 20
-40.8813592632403
 30
0.0
 40
2.003788944251874
100
AcDbArc
 50
90.10833137512353
 51
179.8916686248749
  0
ARC
  5
186
330
1F
100
AcDbEntity
  8
0
 62
   255
100
AcDbCircle
 10
114.9254078708141
 20
-40.88138104306358
 30
0.0
 40
2.003810765334094
100
AcDbArc
 50
0.1089529559186094
 51
89.89104704408139
  0
ARC
  5
187
330
1F
100
AcDbEntity
  8
0
 62
   255
100
AcDbCircle
 10
114.9253860903213
 20
-40.87373842291157
 30
0.0
 40
2.003832587322938
100
AcDbArc
 50
270.1095745422817
 51
359.8904254577179
  0
ARC
  5
188
330
1F
100
AcDbEntity
  8
0
 62
   255
100
AcDbCircle
 10
114.9332029677001
 20
-40.87358594617752
 30
0.0
 40
2.003985361158611
100
AcDbArc
 50
180.1139256468252
 51
269.8860743531762
  0
ARC
  5
189
330
1F
100
AcDbEntity
  8
0
 62
   255
100
AcDbCircle
 10
114.9330287104732
 20
-40.88138104306351
 30
0.0
 40
2.003810765334016
100
AcDbArc
 50
90.10895295591496
 51
179.8910470440834
  0
ARC
  5
18A
330
1F
100
AcDbEntity
  8
0
 62
   255
100
AcDbCircle
 10
114.9253860903213
 20
7.118789451781867
 30
0.0
 40
2.003832587322951
100
AcDbArc
 50
0.1095745422820298
 51
89.89042545771792
  0
ARC
  5
18B
330
1F
100
AcDbEntity
  8
0
 62
   255
100
AcDbCircle
 10
114.9254078708141
 20
7.126432071933889
 30
0.0
 40
2.003810765334102
100
AcDbArc
 50
270.108952955919
 51
359.891047044081
  0
ARC
  5
18C
330
1F
100
AcDbEntity
  8
0
 62
   255
100
AcDbCircle
 10
114.933050490966
 20
7.126453852426626
 30
0.0
 40
2.003832587322871
100
AcDbArc
 50
180.1095745422797
 51
269.890425457722
  0
ARC
  5
18D
330
1F
100
AcDbEntity
  8
0
 62
   255
100
AcDbCircle
 10
114.933050490966
 20
7.118789451781939
 30
0.0
 40
2.003832587322867
100
AcDbArc
 50
90.10957454227803
 51
179.8904254577201
  0
ARC
  5
18E
330
1F
100
AcDbEntity
  8
0
 62
   255
100
AcDbCircle
 10
145.2651091716028
 20
20.29247512753562
 30
0.0
 40
1.59984449972573
100
AcDbArc
 50
179.9981633940886
 51
270.004262234782
  0
ARC
  5
18F
330
1F
100
AcDbEntity
  8
0
 62
   255
100
AcDbCircle
 10
145.2651958863689
 20
20.29259257361499
 30
0.0
 40
1.599931215038003
100
AcDbArc
 50
89.9988433735608
 51
180.0023694023648
  0
ARC
  5
190
330
1F
100
AcDbEntity
  8
0
 62
   255
100
AcDbCircle
 10
145.2653205593678
 20
20.29268652050227
 30
0.0
 40
1.599837270491626
100
AcDbArc
 50
359.997904544604
 51
90.00330828266614
  0
ARC
  5
191
330
1F
100
AcDbEntity
  8
0
 62
   255
100
AcDbCircle
 10
145.2652988785059
 20
20.29248958694653
 30
0.0
 40
1.599858956271881
100
AcDbArc
 50
269.9974682192991
 51
0.0049573582259718
  0
ARC
  5
192
330
1F
100
AcDbEntity
  8
0
 62
   255
100
AcDbCircle
 10
154.3938652402546
 20
20.29246790006129
 30
0.0
 40
1.599837270491623
100
AcDbArc
 50
179.9979045446038
 51
270.0033082826661
  0
ARC
  5
193
330
1F
100
AcDbEntity
  8
0
 62
   255
100
AcDbCircle
 10
154.3939519573707
 20
20.29259980011592
 30
0.0
 40
1.599923988221073
100
AcDbArc
 50
89.99979737216064
 51
180.0026282053646
  0
ARC
  5
194
330
1F
100
AcDbEntity
  8
0
 62
   255
100
AcDbCircle
 10
154.3940766280196
 20
20.29267929302803
 30
0.0
 40
1.599844499725634
100
AcDbArc
 50
359.9981633940852
 51
90.00426223478303
  0
ARC
  5
195
330
1F
100
AcDbEntity
  8
0
 62
   255
100
AcDbCircle
 10
154.3940549477454
 20
20.2924968138331
 30
0.0
 40
1.599866184557283
100
AcDbArc
 50
269.9965142555585
 51
0.0046985203693109
  0
ARC
  5
196
330
1F
100
AcDbEntity
  8
0
 62
   255
100
AcDbCircle
 10
93.19508312972684
 20
25.37246973541683
 30
0.0
 40
1.599837270491665
100
AcDbArc
 50
179.9979045446053
 51
270.0033082826671
  0
ARC
  5
197
330
1F
100
AcDbEntity
  8
0
 62
   255
100
AcDbCircle
 10
93.19516984684299
 20
25.3726016354714
 30
0.0
 40
1.599923988221101
100
AcDbArc
 50
89.99979737215963
 51
180.0026282053637
  0
ARC
  5
198
330
1F
100
AcDbEntity
  8
0
 62
   255
100
AcDbCircle
 10
93.19529451749186
 20
25.37268112838348
 30
0.0
 40
1.599844499725695
100
AcDbArc
 50
359.9981633940868
 51
90.00426223478253
  0
ARC
  5
199
330
1F
100
AcDbEntity
  8
0
 62
   255
100
AcDbCircle
 10
93.19527283721771
 20
25.37249864918862
 30
0.0
 40
1.599866184557283
100
AcDbArc
 50
269.9965142555564
 51
0.0046985203684203
  0
ARC
  5
19A
330
1F
100
AcDbEntity
  8
0
 62
   255
100
AcDbCircle
 10
93.19508312972687
 20
53.3124798298721
 30
0.0
 40
1.59983727049169
100
AcDbArc
 50
179.9979045446057
 51
270.0033082826661
  0
ARC
  5
19B
330
1F
100
AcDbEntity
  8
0
 62
   255
100
AcDbCircle
 10
93.19516984684299
 20
53.31261172992664
 30
0.0
 40
1.599923988221101
100
AcDbArc
 50
89.99979737215963
 51
180.0026282053632
  0
ARC
  5
19C
330
1F
100
AcDbEntity
  8
0
 62
   255
100
AcDbCircle
 10
93.19529451749186
 20
53.31269122283872
 30
0.0
 40
1.599844499725702
100
AcDbArc
 50
359.9981633940876
 51
90.00426223478253
  0
ARC
  5
19D
330
1F
100
AcDbEntity
  8
0
 62
   255
100
AcDbCircle
 10
93.19527283721771
 20
53.31250874364387
 30
0.0
 40
1.599866184557283
100
AcDbArc
 50
269.9965142555564
 51
0.0046985203685475
  0
ARC
  5
19E
330
1F
100
AcDbEntity
  8
0
 62
   255
100
AcDbCircle
 10
143.995101483282
 20
68.55248533593863
 30
0.0
 40
1.599837270491719
100
AcDbArc
 50
179.9979045446067
 51
270.0033082826651
  0
ARC
  5
19F
330
1F
100
AcDbEntity
  8
0
 62
   255
100
AcDbCircle
 10
143.995188200398
 20
68.55261723599317
 30
0.0
 40
1.599923988221101
100
AcDbArc
 50
89.99979737215963
 51
180.0026282053642
  0
ARC
  5
1A0
330
1F
100
AcDbEntity
  8
0
 62
   255
100
AcDbCircle
 10
143.9953128710468
 20
68.55269672890518
 30
0.0
 40
1.599844499725766
100
AcDbArc
 50
359.9981633940893
 51
90.00426223477999
  0
ARC
  5
1A1
330
1F
100
AcDbEntity
  8
0
 62
   255
100
AcDbCircle
 10
143.9952911907727
 20
68.5525142497104
 30
0.0
 40
1.599866184557311
100
AcDbArc
 50
269.9965142555574
 51
0.0046985203680385
  0
ARC
  5
1A2
330
1F
100
AcDbEntity
  8
0
 62
   255
100
AcDbCircle
 10
153.1238720108978
 20
68.55249256341291
 30
0.0
 40
1.59984449972578
100
AcDbArc
 50
179.9981633940899
 51
270.00426223478
  0
ARC
  5
1A3
330
1F
100
AcDbEntity
  8
0
 62
   255
100
AcDbCircle
 10
153.1239587256639
 20
68.55261000949227
 30
0.0
 40
1.599931215038003
100
AcDbArc
 50
89.9988433735608
 51
180.0023694023656
  0
ARC
  5
1A4
330
1F
100
AcDbEntity
  8
0
 62
   255
100
AcDbCircle
 10
153.1240833986627
 20
68.55270395637946
 30
0.0
 40
1.599837270491704
100
AcDbArc
 50
359.9979045446062
 51
90.00330828266614
  0
ARC
  5
1A5
330
1F
100
AcDbEntity
  8
0
 62
   255
100
AcDbCircle
 10
153.1240617178009
 20
68.55250702282379
 30
0.0
 40
1.59985895627191
100
AcDbArc
 50
269.9974682192981
 51
0.004957358226099
  0
ARC
  5
1A6
330
1F
100
AcDbEntity
  8
0
 62
   255
100
AcDbCircle
 10
83.42407942014181
 20
-8.877351415578229
 30
0.0
 40
3.999976933152953
100
AcDbArc
 50
359.9999897876393
 51
60.00013655388361
  0
ARC
  5
1A7
330
1F
100
AcDbEntity
  8
0
 62
   255
100
AcDbCircle
 10
83.42407942014184
 20
-8.877352841484578
 30
0.0
 40
3.999976933152929
100
AcDbArc
 50
299.9998634461161
 51
0.0000102123610326
  0
ARC
  5
1A8
330
1F
100
AcDbEntity
  8
0
 62
   255
100
AcDbCircle
 10
83.42406290813585
 20
-8.877472335859515
 30
0.0
 40
3.999881704500527
100
AcDbArc
 50
239.9990758805612
 51
300.0009241194388
  0
ARC
  5
1A9
330
1F
100
AcDbEntity
  8
0
 62
   255
100
AcDbCircle
 10
83.4240463961297
 20
-8.87735284148454
 30
0.0
 40
3.999976933152878
100
AcDbArc
 50
179.9999897876395
 51
240.0001365538863
  0
ARC
  5
1AA
330
1F
100
AcDbEntity
  8
0
 62
   255
100
AcDbCircle
 10
83.42404639612973
 20
-8.877351415578266
 30
0.0
 40
3.999976933152901
100
AcDbArc
 50
119.999863446114
 51
180.0000102123602
  0
ARC
  5
1AB
330
1F
100
AcDbEntity
  8
0
 62
   255
100
AcDbCircle
 10
83.42406290813585
 20
-8.877231921203215
 30
0.0
 40
3.999881704500468
100
AcDbArc
 50
59.99907588056072
 51
120.0009241194393
  0
ARC
  5
1AC
330
1F
100
AcDbEntity
  8
0
 62
   255
100
AcDbCircle
 10
80.52330137950018
 20
69.33353368072737
 30
0.0
 40
1.400095120468914
100
AcDbArc
 50
0.0017807243213182
 51
59.99889867206709
  0
ARC
  5
1AD
330
1F
100
AcDbEntity
  8
0
 62
   255
100
AcDbCircle
 10
80.52331505956893
 20
69.33364667909413
 30
0.0
 40
1.400081441448162
100
AcDbArc
 50
300.000778091794
 51
359.9971564896454
  0
ARC
  5
1AE
330
1F
100
AcDbEntity
  8
0
 62
   255
100
AcDbCircle
 10
80.52338186014785
 20
69.3336301445428
 30
0.0
 40
1.40003372202186
100
AcDbArc
 50
240.0012510742659
 51
299.9987489257341
  0
ARC
  5
1AF
330
1F
100
AcDbEntity
  8
0
 62
   255
100
AcDbCircle
 10
80.52344866072677
 20
69.33364667909413
 30
0.0
 40
1.400081441448165
100
AcDbArc
 50
180.0028435103546
 51
239.999221908206
  0
ARC
  5
1B0
330
1F
100
AcDbEntity
  8
0
 62
   255
100
AcDbCircle
 10
80.5234623407955
 20
69.33353368072738
 30
0.0
 40
1.400095120468896
100
AcDbArc
 50
120.0011013279327
 51
179.9982192756793
  0
ARC
  5
1B1
330
1F
100
AcDbEntity
  8
0
 62
   255
100
AcDbCircle
 10
80.52338186014785
 20
69.33355811211038
 30
0.0
 40
1.400033722021848
100
AcDbArc
 50
60.00125107426557
 51
119.9987489257344
  0
ARC
  5
1B2
330
1F
100
AcDbEntity
  8
0
 62
   255
100
AcDbCircle
 10
80.52331505956889
 20
20.33336787427046
 30
0.0
 40
1.400081441448205
100
AcDbArc
 50
0.002843510356063
 51
59.99922190820495
  0
ARC
  5
1B3
330
1F
100
AcDbEntity
  8
0
 62
   255
100
AcDbCircle
 10
80.52330137950021
 20
20.33348087263725
 30
0.0
 40
1.400095120468882
100
AcDbArc
 50
300.0011013279318
 51
359.9982192756788
  0
ARC
  5
1B4
330
1F
100
AcDbEntity
  8
0
 62
   255
100
AcDbCircle
 10
80.52338186014785
 20
20.33345644125436
 30
0.0
 40
1.40003372202194
100
AcDbArc
 50
240.0012510742677
 51
299.9987489257322
  0
ARC
  5
1B5
330
1F
100
AcDbEntity
  8
0
 62
   255
100
AcDbCircle
 10
80.52346234079548
 20
20.33348087263724
 30
0.0
 40
1.400095120468869
100
AcDbArc
 50
180.0017807243207
 51
239.998898672068
  0
ARC
  5
1B6
330
1F
100
AcDbEntity
  8
0
 62
   255
100
AcDbCircle
 10
80.52344866072681
 20
20.33336787427045
 30
0.0
 40
1.400081441448205
100
AcDbArc
 50
120.000778091795
 51
179.9971564896438
  0
ARC
  5
1B7
330
1F
100
AcDbEntity
  8
0
 62
   255
100
AcDbCircle
 10
80.52338186014785
 20
20.33338440882169
 30
0.0
 40
1.400033722021971
100
AcDbArc
 50
60.00125107426849
 51
119.9987489257315
  0
ARC
  5
1B8
330
1F
100
AcDbEntity
  8
0
 62
   255
100
AcDbCircle
 10
138.5242223346717
 20
69.33353368072737
 30
0.0
 40
1.400095120468908
100
AcDbArc
 50
0.0017807243213182
 51
59.99889867206758
  0
ARC
  5
1B9
330
1F
100
AcDbEntity
  8
0
 62
   255
100
AcDbCircle
 10
138.5242360147404
 20
69.33364667909413
 30
0.0
 40
1.400081441448148
100
AcDbArc
 50
300.0007780917937
 51
359.9971564896454
  0
ARC
  5
1BA
330
1F
100
AcDbEntity
  8
0
 62
   255
100
AcDbCircle
 10
138.5243028153193
 20
69.33363014454291
 30
0.0
 40
1.400033722021973
100
AcDbArc
 50
240.0012510742672
 51
299.9987489257328
  0
ARC
  5
1BB
330
1F
100
AcDbEntity
  8
0
 62
   255
100
AcDbCircle
 10
138.5243696158984
 20
69.33364667909416
 30
0.0
 40
1.400081441448282
100
AcDbArc
 50
180.0028435103558
 51
239.9992219082
  0
ARC
  5
1BC
330
1F
100
AcDbEntity
  8
0
 62
   255
100
AcDbCircle
 10
138.5243832959671
 20
69.33353368072734
 30
0.0
 40
1.40009512046901
100
AcDbArc
 50
120.0011013279379
 51
179.9982192756775
  0
ARC
  5
1BD
330
1F
100
AcDbEntity
  8
0
 62
   255
100
AcDbCircle
 10
138.5243028153193
 20
69.33355811211024
 30
0.0
 40
1.400033722021985
100
AcDbArc
 50
60.00125107426747
 51
119.9987489257325
  0
ARC
  5
1BE
330
1F
100
AcDbEntity
  8
0
 62
   255
100
AcDbCircle
 10
138.5242360147404
 20
20.33336787427045
 30
0.0
 40
1.400081441448211
100
AcDbArc
 50
0.0028435103563538
 51
59.99922190820511
  0
ARC
  5
1BF
330
1F
100
AcDbEntity
  8
0
 62
   255
100
AcDbCircle
 10
138.5242223346717
 20
20.33348087263726
 30
0.0
 40
1.400095120468896
100
AcDbArc
 50
300.0011013279327
 51
359.9982192756785
  0
ARC
  5
1C0
330
1F
100
AcDbEntity
  8
0
 62
   255
100
AcDbCircle
 10
138.5243028153193
 20
20.33345644125445
 30
0.0
 40
1.400033722022032
100
AcDbArc
 50
240.0012510742686
 51
299.9987489257314
  0
ARC
  5
1C1
330
1F
100
AcDbEntity
  8
0
 62
   255
100
AcDbCircle
 10
138.5243832959671
 20
20.33348087263729
 30
0.0
 40
1.400095120469026
100
AcDbArc
 50
180.0017807243228
 51
239.998898672061
  0
ARC
  5
1C2
330
1F
100
AcDbEntity
  8
0
 62
   255
100
AcDbCircle
 10
138.5243696158984
 20
20.33336787427042
 30
0.0
 40
1.400081441448347
100
AcDbArc
 50
120.0007780918022
 51
179.9971564896425
  0
ARC
  5
1C3
330
1F
100
AcDbEntity
  8
0
 62
   255
100
AcDbCircle
 10
138.5243028153193
 20
20.33338440882159
 30
0.0
 40
1.400033722022086
100
AcDbArc
 50
60.00125107427002
 51
119.9987489257315
  0
LINE
  5
1C4
330
1F
100
AcDbEntity
  8
0
 62
   255
100
AcDbLine
 10
135.8293618416631
 20
-38.87730296722331
 30
0.0
 11
135.8293618416631
 21
11.12261509726321
 31
0.0
  0
LINE
  5
1C5
330
1F
100
AcDbEntity
  8
0
 62
   255
100
AcDbLine
 10
135.8293618416631
 20
11.12261509726321
 30
0.0
 11
141.8293520094016
 21
11.12261509726321
 31
0.0
  0
LINE
  5
1C6
330
1F
100
AcDbEntity
  8
0
 62
   255
100
AcDbLine
 10
141.8293520094016
 20
11.12261509726321
 30
0.0
 11
141.8293520094016
 21
-38.87730296722331
 31
0.0
  0
LINE
  5
1C7
330
1F
100
AcDbEntity
  8
0
 62
   255
100
AcDbLine
 10
141.8293520094016
 20
-38.87730296722331
 30
0.0
 11
135.8293618416631
 21
-38.87730296722331
 31
0.0
  0
LINE
  5
1C8
330
1F
100
AcDbEntity
  8
0
 62
   255
100
AcDbLine
 10
97.82840811228647
 20
-38.87730296722331
 30
0.0
 11
97.82840811228647
 21
11.12261509726321
 31
0.0
  0
LINE
  5
1C9
330
1F
100
AcDbEntity
  8
0
 62
   255
100
AcDbLine
 10
97.82840811228647
 20
11.12261509726321
 30
0.0
 11
103.8283982800247
 21
11.12261509726321
 31
0.0
  0
LINE
  5
1CA
330
1F
100
AcDbEntity
  8
0
 62
   255
100
AcDbLine
 10
103.8283982800247
 20
11.12261509726321
 30
0.0
 11
103.8283982800247
 21
-38.87730296722331
 31
0.0
  0
LINE
  5
1CB
330
1F
100
AcDbEntity
  8
0
 62
   255
100
AcDbLine
 10
103.8283982800247
 20
-38.87730296722331
 30
0.0
 11
97.82840811228647
 21
-38.87730296722331
 31
0.0
  0
LINE
  5
1CC
330
1F
100
AcDbEntity
  8
0
 62
   255
100
AcDbLine
 10
108.9297022564098
 20
4.122609634895639
 30
0.0
 11
130.9297339381417
 21
4.122609634895639
 31
0.0
  0
LINE
  5
1CD
330
1F
100
AcDbEntity
  8
0
 62
   255
100
AcDbLine
 10
130.9297339381417
 20
4.122609634895639
 30
0.0
 11
130.9297339381417
 21
-37.87732153927303
 31
0.0
  0
LINE
  5
1CE
330
1F
100
AcDbEntity
  8
0
 62
   255
100
AcDbLine
 10
130.9297339381417
 20
-37.87732153927303
 30
0.0
 11
108.9297022564098
 21
-37.87732153927303
 31
0.0
  0
LINE
  5
1CF
330
1F
100
AcDbEntity
  8
0
 62
   255
100
AcDbLine
 10
108.9297022564098
 20
-37.87732153927303
 30
0.0
 11
108.9297022564098
 21
4.122609634895639
 31
0.0
  0
LINE
  5
1D0
330
1F
100
AcDbEntity
  8
0
 62
   255
100
AcDbLine
 10
142.2695511017746
 20
88.84833651214751
 30
0.0
 11
143.8887847534547
 21
91.60843697601177
 31
0.0
  0
LINE
  5
1D1
330
1F
100
AcDbEntity
  8
0
 62
   255
100
AcDbLine
 10
143.8887847534547
 20
91.60843697601177
 30
0.0
 11
169.7646885021683
 21
76.42820615820793
 31
0.0
  0
LINE
  5
1D2
330
1F
100
AcDbEntity
  8
0
 62
   255
100
AcDbLine
 10
169.7646885021683
 20
76.42820615820793
 30
0.0
 11
168.1454887171671
 21
73.66810569434367
 31
0.0
  0
LINE
  5
1D3
330
1F
100
AcDbEntity
  8
0
 62
   255
100
AcDbLine
 10
168.1454887171671
 20
73.66810569434367
 30
0.0
 11
142.2695511017746
 21
88.84833651214751
 31
0.0
  0
LINE
  5
1D4
330
1F
100
AcDbEntity
  8
0
 62
   255
100
AcDbLine
 10
173.1088875770618
 20
68.63815881040588
 30
0.0
 11
175.8902224485978
 21
70.220613248798
 31
0.0
  0
LINE
  5
1D5
330
1F
100
AcDbEntity
  8
0
 62
   255
100
AcDbLine
 10
175.8902224485978
 20
70.220613248798
 30
0.0
 11
190.7257920752122
 21
44.14553956145957
 31
0.0
  0
LINE
  5
1D6
330
1F
100
AcDbEntity
  8
0
 62
   255
100
AcDbLine
 10
190.7257920752122
 20
44.14553956145957
 30
0.0
 11
187.9444572036761
 21
42.56308512306742
 31
0.0
  0
LINE
  5
1D7
330
1F
100
AcDbEntity
  8
0
 62
   255
100
AcDbLine
 10
187.9444572036761
 20
42.56308512306742
 30
0.0
 11
173.1088875770618
 21
68.63815881040588
 31
0.0
  0
LINE
  5
1D8
330
1F
100
AcDbEntity
  8
0
 62
   255
100
AcDbLine
 10
189.733735450125
 20
35.72597838622026
 30
0.0
 11
192.9336624728945
 21
35.7077919796497
 31
0.0
  0
LINE
  5
1D9
330
1F
100
AcDbEntity
  8
0
 62
   255
100
AcDbLine
 10
192.9336624728945
 20
35.7077919796497
 30
0.0
 11
192.7630760112631
 21
5.708213674425693
 31
0.0
  0
LINE
  5
1DA
330
1F
100
AcDbEntity
  8
0
 62
   255
100
AcDbLine
 10
192.7630760112631
 20
5.708213674425693
 30
0.0
 11
189.5631151218149
 21
5.726433947675176
 31
0.0
  0
LINE
  5
1DB
330
1F
100
AcDbEntity
  8
0
 62
   255
100
AcDbLine
 10
189.5631151218149
 20
5.726433947675176
 30
0.0
 11
189.733735450125
 21
35.72597838622026
 31
0.0
  0
LINE
  5
1DC
330
1F
100
AcDbEntity
  8
0
 62
   255
100
AcDbLine
 10
187.6965869807897
 20
-1.089506114858011
 30
0.0
 11
190.4597693124342
 21
-2.703490431308239
 31
0.0
  0
LINE
  5
1DD
330
1F
100
AcDbEntity
  8
0
 62
   255
100
AcDbLine
 10
190.4597693124342
 20
-2.703490431308239
 30
0.0
 11
175.3286113123597
 21
-28.60807925705217
 31
0.0
  0
LINE
  5
1DE
330
1F
100
AcDbEntity
  8
0
 62
   255
100
AcDbLine
 10
175.3286113123597
 20
-28.60807925705217
 30
0.0
 11
172.5654628473942
 21
-26.99409494060191
 31
0.0
  0
LINE
  5
1DF
330
1F
100
AcDbEntity
  8
0
 62
   255
100
AcDbLine
 10
172.5654628473942
 20
-26.99409494060191
 30
0.0
 11
187.6965869807897
 21
-1.089506114858011
 31
0.0
  0
LINE
  5
1E0
330
1F
100
AcDbEntity
  8
0
 62
   255
100
AcDbLine
 10
167.5461162339529
 20
-31.96768767084617
 30
0.0
 11
169.1338538742539
 21
-34.74600840795991
 31
0.0
  0
LINE
  5
1E1
330
1F
100
AcDbEntity
  8
0
 62
   255
100
AcDbLine
 10
169.1338538742539
 20
-34.74600840795991
 30
0.0
 11
143.0869233970833
 21
-49.63095565241396
 31
0.0
  0
LINE
  5
1E2
330
1F
100
AcDbEntity
  8
0
 62
   255
100
AcDbLine
 10
143.0869233970833
 20
-49.63095565241396
 30
0.0
 11
141.4991857567824
 21
-46.85263491530023
 31
0.0
  0
LINE
  5
1E3
330
1F
100
AcDbEntity
  8
0
 62
   255
100
AcDbLine
 10
141.4991857567824
 20
-46.85263491530023
 30
0.0
 11
167.5461162339529
 21
-31.96768767084617
 31
0.0
  0
LINE
  5
1E4
330
1F
100
AcDbEntity
  8
0
 62
   255
100
AcDbLine
 10
134.6654995545043
 20
-48.65393583275948
 30
0.0
 11
134.6533752834573
 21
-51.85389672220771
 31
0.0
  0
LINE
  5
1E5
330
1F
100
AcDbEntity
  8
0
 62
   255
100
AcDbLine
 10
134.6533752834573
 20
-51.85389672220771
 30
0.0
 11
104.6536276448389
 21
-51.74017241445355
 31
0.0
  0
LINE
  5
1E6
330
1F
100
AcDbEntity
  8
0
 62
   255
100
AcDbLine
 10
104.6536276448389
 20
-51.74017241445355
 30
0.0
 11
104.6657519158859
 21
-48.54017765832643
 31
0.0
  0
LINE
  5
1E7
330
1F
100
AcDbEntity
  8
0
 62
   255
100
AcDbLine
 10
104.6657519158859
 20
-48.54017765832643
 30
0.0
 11
134.6654995545043
 21
-48.65393583275948
 31
0.0
  0
LINE
  5
1E8
330
1F
100
AcDbEntity
  8
0
 62
   255
100
AcDbLine
 10
97.84703478568264
 20
-46.68736552225666
 30
0.0
 11
96.23826593778335
 21
-49.45359585500224
 31
0.0
  0
LINE
  5
1E9
330
1F
100
AcDbEntity
  8
0
 62
   255
100
AcDbLine
 10
96.23826593778335
 20
-49.45359585500224
 30
0.0
 11
70.30499203500915
 21
-34.3715784060153
 31
0.0
  0
LINE
  5
1EA
330
1F
100
AcDbEntity
  8
0
 62
   255
100
AcDbLine
 10
70.30499203500915
 20
-34.3715784060153
 30
0.0
 11
71.91372701622953
 21
-31.60538193994861
 31
0.0
  0
LINE
  5
1EB
330
1F
100
AcDbEntity
  8
0
 62
   255
100
AcDbLine
 10
71.91372701622953
 20
-31.60538193994861
 30
0.0
 11
97.84703478568264
 21
-46.68736552225666
 31
0.0
  0
LINE
  5
1EC
330
1F
100
AcDbEntity
  8
0
 62
   255
100
AcDbLine
 10
66.93088868264493
 20
-26.59409559608604
 30
0.0
 11
64.15554821327464
 21
-28.18708257161681
 31
0.0
  0
LINE
  5
1ED
330
1F
100
AcDbEntity
  8
0
 62
   255
100
AcDbLine
 10
64.15554821327464
 20
-28.18708257161681
 30
0.0
 11
49.2212572176598
 21
-2.168464638008615
 31
0.0
  0
LINE
  5
1EE
330
1F
100
AcDbEntity
  8
0
 62
   255
100
AcDbLine
 10
49.2212572176598
 20
-2.168464638008615
 30
0.0
 11
51.99656382035118
 21
-0.5754776624778373
 31
0.0
  0
LINE
  5
1EF
330
1F
100
AcDbEntity
  8
0
 62
   255
100
AcDbLine
 10
51.99656382035118
 20
-0.5754776624778373
 30
0.0
 11
66.93088868264493
 21
-26.59409559608604
 31
0.0
  0
LINE
  5
1F0
330
1F
100
AcDbEntity
  8
0
 62
   255
100
AcDbLine
 10
50.18012449742264
 20
6.254483205120934
 30
0.0
 11
46.98012974129546
 21
6.260545340644455
 31
0.0
  0
LINE
  5
1F1
330
1F
100
AcDbEntity
  8
0
 62
   255
100
AcDbLine
 10
46.98012974129546
 20
6.260545340644455
 30
0.0
 11
47.0369918951726
 21
36.26049617933636
 31
0.0
  0
LINE
  5
1F2
330
1F
100
AcDbEntity
  8
0
 62
   255
100
AcDbLine
 10
47.0369918951726
 20
36.26049617933636
 30
0.0
 11
50.23698665129967
 21
36.25440017713396
 31
0.0
  0
LINE
  5
1F3
330
1F
100
AcDbEntity
  8
0
 62
   255
100
AcDbLine
 10
50.23698665129967
 20
36.25440017713396
 30
0.0
 11
50.18012449742264
 21
6.254483205120934
 31
0.0
  0
LINE
  5
1F4
330
1F
100
AcDbEntity
  8
0
 62
   255
100
AcDbLine
 10
52.07841958325832
 20
43.07731677552101
 30
0.0
 11
49.30914124941148
 21
44.68083628819043
 31
0.0
  0
LINE
  5
1F5
330
1F
100
AcDbEntity
  8
0
 62
   255
100
AcDbLine
 10
49.30914124941148
 20
44.68083628819043
 30
0.0
 11
64.34198428063218
 21
70.64262593460043
 31
0.0
  0
LINE
  5
1F6
330
1F
100
AcDbEntity
  8
0
 62
   255
100
AcDbLine
 10
64.34198428063218
 20
70.64262593460043
 30
0.0
 11
67.11126261447902
 21
69.03910642193105
 31
0.0
  0
LINE
  5
1F7
330
1F
100
AcDbEntity
  8
0
 62
   255
100
AcDbLine
 10
67.11126261447902
 20
69.03910642193105
 30
0.0
 11
52.07841958325832
 21
43.07731677552101
 31
0.0
  0
LINE
  5
1F8
330
1F
100
AcDbEntity
  8
0
 62
   255
100
AcDbLine
 10
72.11150842101932
 20
74.03196929247073
 30
0.0
 11
70.51323824357979
 21
76.80426176073985
 31
0.0
  0
LINE
  5
1F9
330
1F
100
AcDbEntity
  8
0
 62
   255
100
AcDbLine
 10
70.51323824357979
 20
76.80426176073985
 30
0.0
 11
96.50354363362561
 21
91.78786264083652
 31
0.0
  0
LINE
  5
1FA
330
1F
100
AcDbEntity
  8
0
 62
   255
100
AcDbLine
 10
96.50354363362561
 20
91.78786264083652
 30
0.0
 11
98.1017799443863
 21
89.01557017256738
 31
0.0
  0
LINE
  5
1FB
330
1F
100
AcDbEntity
  8
0
 62
   255
100
AcDbLine
 10
98.1017799443863
 20
89.01557017256738
 30
0.0
 11
72.11150842101932
 21
74.03196929247073
 31
0.0
  0
LINE
  5
1FC
330
1F
100
AcDbEntity
  8
0
 62
   255
100
AcDbLine
 10
104.9302506781134
 20
90.84257589931354
 30
0.0
 11
104.9302506781134
 21
94.04257065544067
 31
0.0
  0
LINE
  5
1FD
330
1F
100
AcDbEntity
  8
0
 62
   255
100
AcDbLine
 10
104.9302506781134
 20
94.04257065544067
 30
0.0
 11
134.9302015168053
 21
94.04257065544067
 31
0.0
  0
LINE
  5
1FE
330
1F
100
AcDbEntity
  8
0
 62
   255
100
AcDbLine
 10
134.9302015168053
 20
94.04257065544067
 30
0.0
 11
134.9302015168053
 21
90.84257589931354
 31
0.0
  0
LINE
  5
1FF
330
1F
100
AcDbEntity
  8
0
 62
   255
100
AcDbLine
 10
134.9302015168053
 20
90.84257589931354
 30
0.0
 11
104.9302506781134
 21
90.84257589931354
 31
0.0
  0
LINE
  5
200
330
1F
100
AcDbEntity
  8
0
 62
   255
100
AcDbLine
 10
176.029549965602
 20
6.522402501917583
 30
0.0
 11
172.829555209475
 21
6.522402501917583
 31
0.0
  0
LINE
  5
201
330
1F
100
AcDbEntity
  8
0
 62
   255
100
AcDbLine
 10
172.829555209475
 20
6.522402501917583
 30
0.0
 11
172.829555209475
 21
16.7224365870912
 31
0.0
  0
LINE
  5
202
330
1F
100
AcDbEntity
  8
0
 62
   255
100
AcDbLine
 10
172.829555209475
 20
16.7224365870912
 30
0.0
 11
176.029549965602
 21
16.7224365870912
 31
0.0
  0
LINE
  5
203
330
1F
100
AcDbEntity
  8
0
 62
   255
100
AcDbLine
 10
176.029549965602
 20
16.7224365870912
 30
0.0
 11
176.029549965602
 21
6.522402501917583
 31
0.0
  0
LINE
  5
204
330
1F
100
AcDbEntity
  8
0
 62
   255
100
AcDbLine
 10
176.029549965602
 20
-13.47753085719812
 30
0.0
 11
172.829555209475
 21
-13.47753085719812
 31
0.0
  0
LINE
  5
205
330
1F
100
AcDbEntity
  8
0
 62
   255
100
AcDbLine
 10
172.829555209475
 20
-13.47753085719812
 30
0.0
 11
172.829555209475
 21
-3.277530638703418
 31
0.0
  0
LINE
  5
206
330
1F
100
AcDbEntity
  8
0
 62
   255
100
AcDbLine
 10
172.829555209475
 20
-3.277530638703418
 30
0.0
 11
176.029549965602
 21
-3.277530638703418
 31
0.0
  0
LINE
  5
207
330
1F
100
AcDbEntity
  8
0
 62
   255
100
AcDbLine
 10
176.029549965602
 20
-3.277530638703418
 30
0.0
 11
176.029549965602
 21
-13.47753085719812
 31
0.0
  0
LINE
  5
208
330
1F
100
AcDbEntity
  8
0
 62
   255
100
AcDbLine
 10
176.029549965602
 20
48.52260460951747
 30
0.0
 11
172.829555209475
 21
48.52260460951747
 31
0.0
  0
LINE
  5
209
330
1F
100
AcDbEntity
  8
0
 62
   255
100
AcDbLine
 10
172.829555209475
 20
48.52260460951747
 30
0.0
 11
172.829555209475
 21
58.72260482801218
 31
0.0
  0
LINE
  5
20A
330
1F
100
AcDbEntity
  8
0
 62
   255
100
AcDbLine
 10
172.829555209475
 20
58.72260482801218
 30
0.0
 11
176.029549965602
 21
58.72260482801218
 31
0.0
  0
LINE
  5
20B
330
1F
100
AcDbEntity
  8
0
 62
   255
100
AcDbLine
 10
176.029549965602
 20
58.72260482801218
 30
0.0
 11
176.029549965602
 21
48.52260460951747
 31
0.0
  0
LINE
  5
20C
330
1F
100
AcDbEntity
  8
0
 62
   255
100
AcDbLine
 10
176.029549965602
 20
28.52263738372288
 30
0.0
 11
172.829555209475
 21
28.52263738372288
 31
0.0
  0
LINE
  5
20D
330
1F
100
AcDbEntity
  8
0
 62
   255
100
AcDbLine
 10
172.829555209475
 20
28.52263738372288
 30
0.0
 11
172.829555209475
 21
38.72263760221757
 31
0.0
  0
LINE
  5
20E
330
1F
100
AcDbEntity
  8
0
 62
   255
100
AcDbLine
 10
172.829555209475
 20
38.72263760221757
 30
0.0
 11
176.029549965602
 21
38.72263760221757
 31
0.0
  0
LINE
  5
20F
330
1F
100
AcDbEntity
  8
0
 62
   255
100
AcDbLine
 10
176.029549965602
 20
38.72263760221757
 30
0.0
 11
176.029549965602
 21
28.52263738372288
 31
0.0
  0
LINE
  5
210
330
1F
100
AcDbEntity
  8
0
 62
   255
100
AcDbLine
 10
67.03049058529683
 20
48.52260460951747
 30
0.0
 11
63.83049582916971
 21
48.52260460951747
 31
0.0
  0
LINE
  5
211
330
1F
100
AcDbEntity
  8
0
 62
   255
100
AcDbLine
 10
63.83049582916971
 20
48.52260460951747
 30
0.0
 11
63.83049582916971
 21
58.72260482801218
 31
0.0
  0
LINE
  5
212
330
1F
100
AcDbEntity
  8
0
 62
   255
100
AcDbLine
 10
63.83049582916971
 20
58.72260482801218
 30
0.0
 11
67.03049058529683
 21
58.72260482801218
 31
0.0
  0
LINE
  5
213
330
1F
100
AcDbEntity
  8
0
 62
   255
100
AcDbLine
 10
67.03049058529683
 20
58.72260482801218
 30
0.0
 11
67.03049058529683
 21
48.52260460951747
 31
0.0
  0
LINE
  5
214
330
1F
100
AcDbEntity
  8
0
 62
   255
100
AcDbLine
 10
67.03049058529683
 20
28.52263738372288
 30
0.0
 11
63.83049582916971
 21
28.52263738372288
 31
0.0
  0
LINE
  5
215
330
1F
100
AcDbEntity
  8
0
 62
   255
100
AcDbLine
 10
63.83049582916971
 20
28.52263738372288
 30
0.0
 11
63.83049582916971
 21
38.72263760221757
 31
0.0
  0
LINE
  5
216
330
1F
100
AcDbEntity
  8
0
 62
   255
100
AcDbLine
 10
63.83049582916971
 20
38.72263760221757
 30
0.0
 11
67.03049058529683
 21
38.72263760221757
 31
0.0
  0
LINE
  5
217
330
1F
100
AcDbEntity
  8
0
 62
   255
100
AcDbLine
 10
67.03049058529683
 20
38.72263760221757
 30
0.0
 11
67.03049058529683
 21
28.52263738372288
 31
0.0
  0
LINE
  5
218
330
1F
100
AcDbEntity
  8
0
 62
   255
100
AcDbLine
 10
67.03049058529683
 20
6.522402501917583
 30
0.0
 11
63.83049582916971
 21
6.522402501917583
 31
0.0
  0
LINE
  5
219
330
1F
100
AcDbEntity
  8
0
 62
   255
100
AcDbLine
 10
63.83049582916971
 20
6.522402501917583
 30
0.0
 11
63.83049582916971
 21
16.7224365870912
 31
0.0
  0
LINE
  5
21A
330
1F
100
AcDbEntity
  8
0
 62
   255
100
AcDbLine
 10
63.83049582916971
 20
16.7224365870912
 30
0.0
 11
67.03049058529683
 21
16.7224365870912
 31
0.0
  0
LINE
  5
21B
330
1F
100
AcDbEntity
  8
0
 62
   255
100
AcDbLine
 10
67.03049058529683
 20
16.7224365870912
 30
0.0
 11
67.03049058529683
 21
6.522402501917583
 31
0.0
  0
LINE
  5
21C
330
1F
100
AcDbEntity
  8
0
 62
   255
100
AcDbLine
 10
67.03049058529683
 20
-13.47753085719812
 30
0.0
 11
63.83049582916971
 21
-13.47753085719812
 31
0.0
  0
LINE
  5
21D
330
1F
100
AcDbEntity
  8
0
 62
   255
100
AcDbLine
 10
63.83049582916971
 20
-13.47753085719812
 30
0.0
 11
63.83049582916971
 21
-3.277530638703418
 31
0.0
  0
LINE
  5
21E
330
1F
100
AcDbEntity
  8
0
 62
   255
100
AcDbLine
 10
63.83049582916971
 20
-3.277530638703418
 30
0.0
 11
67.03049058529683
 21
-3.277530638703418
 31
0.0
  0
LINE
  5
21F
330
1F
100
AcDbEntity
  8
0
 62
   255
100
AcDbLine
 10
67.03049058529683
 20
-3.277530638703418
 30
0.0
 11
67.03049058529683
 21
-13.47753085719812
 31
0.0
  0
ARC
  5
220
330
1F
100
AcDbEntity
  8
0
 62
   255
100
AcDbCircle
 10
-44.86705032300458
 20
11.1269416076111
 30
0.0
 40
56.79986900739693
100
AcDbArc
 50
210.5982299545339
 51
224.4006240181343
  0
ARC
  5
221
330
1F
100
AcDbEntity
  8
0
 62
   255
100
AcDbCircle
 10
-86.58935827697408
 20
-29.74172059232129
 30
0.0
 40
1.603901739660436
100
AcDbArc
 50
359.9173086488312
 51
44.66272819837564
  0
ARC
  5
222
330
1F
100
AcDbEntity
  8
0
 62
   255
100
AcDbCircle
 10
-86.59521780729979
 20
-29.74409451527529
 30
0.0
 40
1.609759600663416
100
AcDbArc
 50
269.9991013296127
 51
0.0021040472139121
  0
ARC
  5
223
330
1F
100
AcDbEntity
  8
0
 62
   255
100
AcDbCircle
 10
-86.59704446497986
 20
-29.74861307377414
 30
0.0
 40
1.605242052741044
100
AcDbArc
 50
224.3020986761882
 51
270.0642975642749
  0
ARC
  5
224
330
1F
100
AcDbEntity
  8
0
 62
   255
100
AcDbCircle
 10
-44.87369060611229
 20
11.12497197829501
 30
0.0
 40
60.01318573579157
100
AcDbArc
 50
210.5881566709628
 51
224.40765286587
  0
ARC
  5
225
330
1F
100
AcDbEntity
  8
0
 62
   255
100
AcDbCircle
 10
-95.15187911369911
 20
-18.60407908936625
 30
0.0
 40
1.603335139073764
100
AcDbArc
 50
179.9244799104017
 51
210.3223905165453
  0
ARC
  5
226
330
1F
100
AcDbEntity
  8
0
 62
   255
100
AcDbCircle
 10
-95.14542435373741
 20
-18.60193556661113
 30
0.0
 40
1.609788506566296
100
AcDbArc
 50
89.99892480978006
 51
180.0010751902211
  0
ARC
  5
227
330
1F
100
AcDbEntity
  8
0
 62
   255
100
AcDbCircle
 10
-95.1447650121106
 20
-18.60136021182619
 30
0.0
 40
1.609213274479836
100
AcDbArc
 50
30.48301760880645
 51
90.02240017846322
  0
ARC
  5
229
330
1F
100
AcDbEntity
  8
DEFAULT
100
AcDbCircle
 10
-35.95385688119865
 20
13.22740233227826
 30
0.0
 40
64.88237616479422
100
AcDbArc
 50
285.0306403685925
 51
312.6658955664477
  0
ARC
  5
22A
330
1F
100
AcDbEntity
  8
DEFAULT
100
AcDbCircle
 10
-19.58140695673342
 20
-47.74501339172627
 30
0.0
 40
1.750034249221425
100
AcDbArc
 50
105.034116183699
 51
285.0310270290417
  0
ARC
  5
22B
330
1F
100
AcDbEntity
  8
DEFAULT
100
AcDbCircle
 10
-35.96209283777995
 20
13.24261429217765
 30
0.0
 40
61.39913518668478
100
AcDbArc
 50
285.0342715211202
 51
312.6620360774294
  0
ARC
  5
22C
330
1F
100
AcDbEntity
  8
DEFAULT
100
AcDbCircle
 10
6.832347391900271
 20
-33.19497493571144
 30
0.0
 40
1.75000422051431
100
AcDbArc
 50
312.6658784683332
 51
132.662064395518
  0
ARC
  5
22D
330
1F
100
AcDbEntity
  8
0
 62
   255
100
AcDbCircle
 10
-31.00330667734501
 20
11.13517568490607
 30
0.0
 40
56.81552182806411
100
AcDbArc
 50
315.5911912844225
 51
329.4014577471779
  0
ARC
  5
22E
330
1F
100
AcDbEntity
  8
0
 62
   255
100
AcDbCircle
 10
10.73523408030293
 20
-29.74190868097899
 30
0.0
 40
1.605734893571382
100
AcDbArc
 50
135.8177223376016
 51
180.0758855685355
  0
ARC
  5
22F
330
1F
100
AcDbEntity
  8
0
 62
   255
100
AcDbCircle
 10
10.73920961915695
 20
-29.74414509434964
 30
0.0
 40
1.609709027792475
100
AcDbArc
 50
179.9960955815056
 51
270.0051097699647
  0
ARC
  5
230
330
1F
100
AcDbEntity
  8
0
 62
   255
100
AcDbCircle
 10
10.74149705395837
 20
-29.75091418002894
 30
0.0
 40
1.602941369392294
100
AcDbArc
 50
269.9233689040855
 51
315.7317184925933
  0
ARC
  5
231
330
1F
100
AcDbEntity
  8
0
 62
   255
100
AcDbCircle
 10
-31.01918172241074
 20
11.1530972957409
 30
0.0
 40
60.05883857234566
100
AcDbArc
 50
315.5974264681276
 51
329.4064193444777
  0
ARC
  5
232
330
1F
100
AcDbEntity
  8
0
 62
   255
100
AcDbCircle
 10
19.30376710803411
 20
-18.60720185754793
 30
0.0
 40
1.594548469346119
100
AcDbArc
 50
329.6229250007218
 51
0.1881447697787104
  0
ARC
  5
233
330
1F
100
AcDbEntity
  8
0
 62
   255
100
AcDbCircle
 10
19.28842452675234
 20
-18.60202951495179
 30
0.0
 40
1.609882454900647
100
AcDbArc
 50
0.0022684976421139
 51
89.99893685382858
  0
ARC
  5
234
330
1F
100
AcDbEntity
  8
0
 62
   255
100
AcDbCircle
 10
19.28767535388025
 20
-18.60127558096358
 30
0.0
 40
1.609128709219016
100
AcDbArc
 50
89.97226077345302
 51
149.5187066586334
  0
ARC
  5
235
330
1F
100
AcDbEntity
  8
0
 62
   255
100
AcDbCircle
 10
-30.6396099061516
 20
31.24693760692007
 30
0.0
 40
57.22723662080028
100
AcDbArc
 50
35.76396373097554
 51
61.16018156727395
  0
ARC
  5
236
330
1F
100
AcDbEntity
  8
0
 62
   255
100
AcDbCircle
 10
-2.242154847964529
 20
82.811222670688
 30
0.0
 40
1.639487423223501
100
AcDbArc
 50
158.4849500835471
 51
241.0663266265745
  0
ARC
  5
237
330
1F
100
AcDbEntity
  8
0
 62
   255
100
AcDbCircle
 10
-2.243135792406613
 20
82.8108409103546
 30
0.0
 40
1.638714994620069
100
AcDbArc
 50
68.46806564635487
 51
158.4599538407286
  0
LINE
  5
238
330
1F
100
AcDbEntity
  8
0
 62
   255
100
AcDbLine
 10
-1.641695029760058
 20
84.33519514825988
 30
0.0
 11
-1.453774777943579
 21
84.24622283515495
 31
0.0
  0
ARC
  5
239
330
1F
100
AcDbEntity
  8
0
 62
   255
100
AcDbCircle
 10
-30.62741843356233
 20
31.26304776364096
 30
0.0
 40
60.48403363536302
100
AcDbArc
 50
35.78473451518089
 51
61.1619005034235
  0
ARC
  5
23A
330
1F
100
AcDbEntity
  8
0
 62
   255
100
AcDbCircle
 10
17.12064999413495
 20
65.65244400120304
 30
0.0
 40
1.64111359062004
100
AcDbArc
 50
338.5378361839259
 51
36.58518101502221
  0
ARC
  5
23B
330
1F
100
AcDbEntity
  8
0
 62
   255
100
AcDbCircle
 10
17.12359576785522
 20
65.65369939847966
 30
0.0
 40
1.638832951138367
100
AcDbArc
 50
248.4633783092941
 51
338.4593071814642
  0
ARC
  5
23C
330
1F
100
AcDbEntity
  8
0
 62
   255
100
AcDbCircle
 10
17.11547353760159
 20
65.64165471393807
 30
0.0
 40
1.624650573922304
100
AcDbArc
 50
215.7154021464501
 51
248.5738898356415
  0
ARC
  5
23D
330
1F
100
AcDbEntity
  8
0
 62
   255
100
AcDbCircle
 10
-38.3726231455364
 20
30.7527374294114
 30
0.0
 40
61.12564455429404
100
AcDbArc
 50
61.09865799059209
 51
86.4909694971287
  0
ARC
  5
23E
330
1F
100
AcDbEntity
  8
0
 62
   255
100
AcDbCircle
 10
-34.52169892539799
 20
93.5106636278636
 30
0.0
 40
1.750321803851719
100
AcDbArc
 50
183.7998606905217
 51
266.4074402277332
  0
ARC
  5
23F
330
1F
100
AcDbEntity
  8
0
 62
   255
100
AcDbCircle
 10
-34.52188842045459
 20
93.51038329920691
 30
0.0
 40
1.750114167972597
100
AcDbArc
 50
93.79632212354535
 51
183.7911145111593
  0
LINE
  5
240
330
1F
100
AcDbEntity
  8
0
 62
   255
100
AcDbLine
 10
-34.63776321758689
 20
95.25665722741175
 30
0.0
 11
-34.41474730792044
 21
95.25743073548537
 31
0.0
  0
ARC
  5
241
330
1F
100
AcDbEntity
  8
0
 62
   255
100
AcDbCircle
 10
-38.3648450546178
 20
30.78180402568924
 30
0.0
 40
64.5965147034222
100
AcDbArc
 50
61.11751399038593
 51
86.49415731402445
  0
ARC
  5
242
330
1F
100
AcDbEntity
  8
0
 62
   255
100
AcDbCircle
 10
-7.985236058985874
 20
85.80034101065465
 30
0.0
 40
1.748005667676138
100
AcDbArc
 50
3.760119509306511
 51
61.96949721881347
  0
ARC
  5
243
330
1F
100
AcDbEntity
  8
0
 62
   255
100
AcDbCircle
 10
-7.987496467242075
 20
85.79941996539077
 30
0.0
 40
1.750321781378328
100
AcDbArc
 50
273.8019378413761
 51
3.785352071314195
  0
ARC
  5
244
330
1F
100
AcDbEntity
  8
0
 62
   255
100
AcDbCircle
 10
-7.98908030224422
 20
85.79269306146638
 30
0.0
 40
1.74371587967094
100
AcDbArc
 50
241.1512158811024
 51
273.8685220141987
  0
ARC
  5
245
330
1F
100
AcDbEntity
  8
0
 62
   255
100
AcDbCircle
 10
-37.60109297673028
 20
30.75373888133122
 30
0.0
 40
61.12466611422963
100
AcDbArc
 50
93.50898300858375
 51
118.9015901464971
  0
ARC
  5
246
330
1F
100
AcDbEntity
  8
0
 62
   255
100
AcDbCircle
 10
-41.45177823514342
 20
93.51066585051893
 30
0.0
 40
1.750288082131659
100
AcDbArc
 50
273.5884142760105
 51
356.2011041429912
  0
ARC
  5
247
330
1F
100
AcDbEntity
  8
0
 62
   255
100
AcDbCircle
 10
-41.45160062974901
 20
93.51046837647897
 30
0.0
 40
1.75009779321073
100
AcDbArc
 50
356.2071697230249
 51
86.20318092799975
  0
LINE
  5
248
330
1F
100
AcDbEntity
  8
0
 62
   255
100
AcDbLine
 10
-41.33571177082416
 20
95.25672496076953
 30
0.0
 11
-41.55872645270654
 21
95.25744462235107
 31
0.0
  0
ARC
  5
249
330
1F
100
AcDbEntity
  8
0
 62
   255
100
AcDbCircle
 10
-37.60839949328107
 20
30.78152362066946
 30
0.0
 40
64.59682246133669
100
AcDbArc
 50
93.50602964946286
 51
118.8824659413861
  0
ARC
  5
24A
330
1F
100
AcDbEntity
  8
0
 62
   255
100
AcDbCircle
 10
-67.98806426148715
 20
85.80037652094342
 30
0.0
 40
1.748008662360251
100
AcDbArc
 50
118.0331638297234
 51
176.2410533991004
  0
ARC
  5
24B
330
1F
100
AcDbEntity
  8
0
 62
   255
100
AcDbCircle
 10
-67.98618162321003
 20
85.79909174539857
 30
0.0
 40
1.749971862567838
100
AcDbArc
 50
176.2031201047152
 51
266.208410275087
  0
ARC
  5
24C
330
1F
100
AcDbEntity
  8
0
 62
   255
100
AcDbCircle
 10
-67.98426062183373
 20
85.7920412129178
 30
0.0
 40
1.743065422267505
100
AcDbArc
 50
266.1300783783107
 51
298.8555311775205
  0
ARC
  5
24D
330
1F
100
AcDbEntity
  8
0
 62
   255
100
AcDbCircle
 10
-45.38896988064944
 20
31.18298881569914
 30
0.0
 40
57.23688220830687
100
AcDbArc
 50
118.8330083156219
 51
144.2330366569012
  0
ARC
  5
24E
330
1F
100
AcDbEntity
  8
0
 62
   255
100
AcDbCircle
 10
-73.79125131548223
 20
82.75502918446429
 30
0.0
 40
1.638991889535099
100
AcDbArc
 50
299.1885478367877
 51
21.53365887469872
  0
ARC
  5
24F
330
1F
100
AcDbEntity
  8
0
 62
   255
100
AcDbCircle
 10
-73.79099893983229
 20
82.75486065200431
 30
0.0
 40
1.63881900761174
100
AcDbArc
 50
21.54237841515081
 51
111.5316024804614
  0
LINE
  5
250
330
1F
100
AcDbEntity
  8
0
 62
   255
100
AcDbLine
 10
-74.39246904724402
 20
84.27931512807095
 30
0.0
 11
-74.58172353717796
 21
84.19042869005298
 31
0.0
  0
ARC
  5
251
330
1F
100
AcDbEntity
  8
0
 62
   255
100
AcDbCircle
 10
-45.40700056228469
 20
31.2041693357537
 30
0.0
 40
60.48725602160205
100
AcDbArc
 50
118.8375859114251
 51
144.2139645205096
  0
ARC
  5
252
330
1F
100
AcDbEntity
  8
0
 62
   255
100
AcDbCircle
 10
-93.16103452263381
 20
65.59796484956703
 30
0.0
 40
1.636943193375999
100
AcDbArc
 50
143.3675195886339
 51
201.572279701522
  0
ARC
  5
253
330
1F
100
AcDbEntity
  8
0
 62
   255
100
AcDbCircle
 10
-93.15896216640392
 20
65.59782439850355
 30
0.0
 40
1.638818993099773
100
AcDbArc
 50
201.5410741398928
 51
291.5349069775226
  0
ARC
  5
254
330
1F
100
AcDbEntity
  8
0
 62
   255
100
AcDbCircle
 10
-93.15375932147137
 20
65.5912522401713
 30
0.0
 40
1.630797618525056
100
AcDbArc
 50
291.449629753841
 51
324.2028087457796
  0
ARC
  5
255
330
1F
100
AcDbEntity
  8
0
 62
   255
100
AcDbCircle
 10
-18.48684564908331
 20
16.62241680063803
 30
0.0
 40
1.600051195117064
100
AcDbArc
 50
60.0011126167873
 51
119.9988873832127
  0
ARC
  5
256
330
1F
100
AcDbEntity
  8
0
 62
   255
100
AcDbCircle
 10
-18.48679858915094
 20
16.62250611250388
 30
0.0
 40
1.59995031873521
100
AcDbArc
 50
359.9984256946959
 51
60.00097299420049
  0
ARC
  5
257
330
1F
100
AcDbEntity
  8
0
 62
   255
100
AcDbCircle
 10
-18.4867849060301
 20
16.62244415540637
 30
0.0
 40
1.59993663511162
100
AcDbArc
 50
299.9987441035995
 51
0.0006444442253589
  0
ARC
  5
258
330
1F
100
AcDbEntity
  8
0
 62
   255
100
AcDbCircle
 10
-18.48684564908331
 20
16.62254136798352
 30
0.0
 40
1.600051195116922
100
AcDbArc
 50
240.0011126167844
 51
299.9988873832156
  0
ARC
  5
259
330
1F
100
AcDbEntity
  8
0
 62
   255
100
AcDbCircle
 10
-18.48683529783041
 20
16.62248520222888
 30
0.0
 40
1.600007729482509
100
AcDbArc
 50
180.0008254583664
 51
239.9997859938052
  0
ARC
  5
25A
330
1F
100
AcDbEntity
  8
0
 62
   255
100
AcDbCircle
 10
-18.48682161567914
 20
16.62246506724437
 30
0.0
 40
1.600021411470383
100
AcDbArc
 50
120.000496881171
 51
180.0001044299361
  0
LINE
  5
25B
330
1F
100
AcDbEntity
  8
0
 62
   255
100
AcDbLine
 10
-90.886659273102
 20
16.7224365870912
 30
0.0
 11
-90.886659273102
 21
6.522402501917583
 31
0.0
  0
LINE
  5
25C
330
1F
100
AcDbEntity
  8
0
 62
   255
100
AcDbLine
 10
-90.886659273102
 20
6.522402501917583
 30
0.0
 11
-94.086687895908
 21
6.522402501917583
 31
0.0
  0
LINE
  5
25D
330
1F
100
AcDbEntity
  8
0
 62
   255
100
AcDbLine
 10
-94.086687895908
 20
6.522402501917583
 30
0.0
 11
-94.086687895908
 21
16.7224365870912
 31
0.0
  0
LINE
  5
25E
330
1F
100
AcDbEntity
  8
0
 62
   255
100
AcDbLine
 10
-94.086687895908
 20
16.7224365870912
 30
0.0
 11
-90.886659273102
 21
16.7224365870912
 31
0.0
  0
ARC
  5
25F
330
1F
100
AcDbEntity
  8
0
 62
   255
100
AcDbCircle
 10
-37.98670362752659
 20
-21.9989236316887
 30
0.0
 40
1.899932115554256
100
AcDbArc
 50
59.99901968180531
 51
120.0009803181947
  0
ARC
  5
260
330
1F
100
AcDbEntity
  8
0
 62
   255
100
AcDbCircle
 10
-37.98674298483735
 20
-21.99905047622695
 30
0.0
 40
1.90006164452663
100
AcDbArc
 50
0.0016165019033843
 51
59.99990442219914
  0
ARC
  5
261
330
1F
100
AcDbEntity
  8
0
 62
   255
100
AcDbCircle
 10
-37.98670193600123
 20
-21.99896696256539
 30
0.0
 40
1.900020595169658
100
AcDbArc
 50
299.9993809224767
 51
359.9990981534206
  0
ARC
  5
262
330
1F
100
AcDbEntity
  8
0
 62
   255
100
AcDbCircle
 10
-37.98670362752659
 20
-21.99907010682066
 30
0.0
 40
1.899932115554207
100
AcDbArc
 50
239.9990196818045
 51
300.0009803181956
  0
ARC
  5
263
330
1F
100
AcDbEntity
  8
0
 62
   255
100
AcDbCircle
 10
-37.98670305030062
 20
-21.99900475869832
 30
0.0
 40
1.899988997023166
100
AcDbArc
 50
179.9997620871358
 51
239.9999899504993
  0
ARC
  5
264
330
1F
100
AcDbEntity
  8
0
 62
   255
100
AcDbCircle
 10
-37.98666200273178
 20
-21.99901267851748
 30
0.0
 40
1.900030044641393
100
AcDbArc
 50
120.0007246937934
 51
179.9995232685718
  0
LINE
  5
265
330
1F
100
AcDbEntity
  8
0
 62
   255
100
AcDbLine
 10
6.513164183178276
 20
-21.87758482538965
 30
0.0
 11
-18.48684564908331
 21
-21.87758482538965
 31
0.0
  0
LINE
  5
266
330
1F
100
AcDbEntity
  8
0
 62
   255
100
AcDbLine
 10
-18.48684564908331
 20
-21.87758482538965
 30
0.0
 11
-18.48684564908331
 21
-17.87759138023075
 31
0.0
  0
LINE
  5
267
330
1F
100
AcDbEntity
  8
0
 62
   255
100
AcDbLine
 10
-18.48684564908331
 20
-17.87759138023075
 30
0.0
 11
6.513164183178276
 21
-17.87759138023075
 31
0.0
  0
LINE
  5
268
330
1F
100
AcDbEntity
  8
0
 62
   255
100
AcDbLine
 10
6.513164183178276
 20
-17.87759138023075
 30
0.0
 11
6.513164183178276
 21
-21.87758482538965
 31
0.0
  0
ARC
  5
269
330
1F
100
AcDbEntity
  8
0
 62
   255
100
AcDbCircle
 10
-92.48658966504966
 20
1.622503664964891
 30
0.0
 40
1.550119479468194
100
AcDbArc
 50
150.0023328629322
 51
209.9976671370679
  0
ARC
  5
26A
330
1F
100
AcDbEntity
  8
0
 62
   255
100
AcDbCircle
 10
-92.4866805970248
 20
1.622442527839772
 30
0.0
 40
1.550071297747256
100
AcDbArc
 50
90.00161853126744
 51
149.9986952905595
  0
ARC
  5
26B
330
1F
100
AcDbEntity
  8
0
 62
   255
100
AcDbCircle
 10
-92.48676817202193
 20
1.622442527839718
 30
0.0
 40
1.550071297747313
100
AcDbArc
 50
30.00130470944196
 51
89.99838146873098
  0
ARC
  5
26C
330
1F
100
AcDbEntity
  8
0
 62
   255
100
AcDbCircle
 10
-92.4866695085739
 20
1.622503664964892
 30
0.0
 40
1.54995528405422
100
AcDbArc
 50
329.9988288097555
 51
30.00117119024426
  0
ARC
  5
26D
330
1F
100
AcDbEntity
  8
0
 62
   255
100
AcDbCircle
 10
-92.48676817202193
 20
1.622564802090028
 30
0.0
 40
1.55007129774728
100
AcDbArc
 50
270.001618531269
 51
329.998695290559
  0
ARC
  5
26E
330
1F
100
AcDbEntity
  8
0
 62
   255
100
AcDbCircle
 10
-92.4866805970248
 20
1.622564802090003
 30
0.0
 40
1.550071297747257
100
AcDbArc
 50
210.0013047094404
 51
269.9983814687326
  0
LINE
  5
26F
330
1F
100
AcDbEntity
  8
0
 62
   255
100
AcDbLine
 10
-57.48673093936446
 20
-21.87758482538965
 30
0.0
 11
-82.48674077162602
 21
-21.87758482538965
 31
0.0
  0
LINE
  5
270
330
1F
100
AcDbEntity
  8
0
 62
   255
100
AcDbLine
 10
-82.48674077162602
 20
-21.87758482538965
 30
0.0
 11
-82.48674077162602
 21
-17.87759138023075
 31
0.0
  0
LINE
  5
271
330
1F
100
AcDbEntity
  8
0
 62
   255
100
AcDbLine
 10
-82.48674077162602
 20
-17.87759138023075
 30
0.0
 11
-57.48673093936446
 21
-17.87759138023075
 31
0.0
  0
LINE
  5
272
330
1F
100
AcDbEntity
  8
0
 62
   255
100
AcDbLine
 10
-57.48673093936446
 20
-17.87759138023075
 30
0.0
 11
-57.48673093936446
 21
-21.87758482538965
 31
0.0
  0
ARC
  5
273
330
1F
100
AcDbEntity
  8
0
 62
   255
100
AcDbCircle
 10
16.51329612019982
 20
43.62243483913356
 30
0.0
 40
1.549955284054432
100
AcDbArc
 50
149.9988288097598
 51
210.0011711902402
  0
ARC
  5
274
330
1F
100
AcDbEntity
  8
0
 62
   255
100
AcDbCircle
 10
16.51339478364754
 20
43.62237370200851
 30
0.0
 40
1.550071297747175
100
AcDbArc
 50
90.00161853126416
 51
149.9986952905602
  0
ARC
  5
275
330
1F
100
AcDbEntity
  8
0
 62
   255
100
AcDbCircle
 10
16.51330720865051
 20
43.6223737020084
 30
0.0
 40
1.550071297747287
100
AcDbArc
 50
30.00130470944221
 51
89.99838146873138
  0
ARC
  5
276
330
1F
100
AcDbEntity
  8
0
 62
   255
100
AcDbCircle
 10
16.51340587209797
 20
43.62243483913356
 30
0.0
 40
1.549955284054714
100
AcDbArc
 50
329.9988288097658
 51
30.00117119023416
  0
ARC
  5
277
330
1F
100
AcDbEntity
  8
0
 62
   255
100
AcDbCircle
 10
16.51330720865052
 20
43.62249597625871
 30
0.0
 40
1.550071297747274
100
AcDbArc
 50
270.0016185312683
 51
329.9986952905581
  0
ARC
  5
278
330
1F
100
AcDbEntity
  8
0
 62
   255
100
AcDbCircle
 10
16.51339478364753
 20
43.62249597625861
 30
0.0
 40
1.550071297747166
100
AcDbArc
 50
210.0013047094396
 51
269.998381468736
  0
ARC
  5
279
330
1F
100
AcDbEntity
  8
0
 62
   255
100
AcDbCircle
 10
-57.48676480604336
 20
63.62259378134695
 30
0.0
 40
1.600051195117221
100
AcDbArc
 50
60.00111261679073
 51
119.9988873832097
  0
ARC
  5
27A
330
1F
100
AcDbEntity
  8
0
 62
   255
100
AcDbCircle
 10
-57.48677515729619
 20
63.62264994710191
 30
0.0
 40
1.600007729482495
100
AcDbArc
 50
0.0008254583657987
 51
59.99978599380783
  0
ARC
  5
27B
330
1F
100
AcDbEntity
  8
0
 62
   255
100
AcDbCircle
 10
-57.48678883944739
 20
63.62267008208639
 30
0.0
 40
1.600021411470302
100
AcDbArc
 50
300.0004968811672
 51
0.0001044299361508
  0
ARC
  5
27C
330
1F
100
AcDbEntity
  8
0
 62
   255
100
AcDbCircle
 10
-57.48676480604337
 20
63.6227183486929
 30
0.0
 40
1.600051195117193
100
AcDbArc
 50
240.00111261679
 51
299.99888738321
  0
ARC
  5
27D
330
1F
100
AcDbEntity
  8
0
 62
   255
100
AcDbCircle
 10
-57.48681186597575
 20
63.62262903682675
 30
0.0
 40
1.599950318735077
100
AcDbArc
 50
179.9984256946912
 51
240.0009729941983
  0
ARC
  5
27E
330
1F
100
AcDbEntity
  8
0
 62
   255
100
AcDbCircle
 10
-57.48682554909649
 20
63.62269099392453
 30
0.0
 40
1.599936635111584
100
AcDbArc
 50
119.9987441036036
 51
180.0006444442302
  0
LINE
  5
27F
330
1F
100
AcDbEntity
  8
0
 62
   255
100
AcDbLine
 10
18.11314517413922
 20
-3.277530638703418
 30
0.0
 11
18.11314517413922
 21
-13.47753085719812
 31
0.0
  0
LINE
  5
280
330
1F
100
AcDbEntity
  8
0
 62
   255
100
AcDbLine
 10
18.11314517413922
 20
-13.47753085719812
 30
0.0
 11
14.91315041801204
 21
-13.47753085719812
 31
0.0
  0
LINE
  5
281
330
1F
100
AcDbEntity
  8
0
 62
   255
100
AcDbLine
 10
14.91315041801204
 20
-13.47753085719812
 30
0.0
 11
14.91315041801204
 21
-3.277530638703418
 31
0.0
  0
LINE
  5
282
330
1F
100
AcDbEntity
  8
0
 62
   255
100
AcDbLine
 10
14.91315041801204
 20
-3.277530638703418
 30
0.0
 11
18.11314517413922
 21
-3.277530638703418
 31
0.0
  0
ARC
  5
283
330
1F
100
AcDbEntity
  8
0
 62
   255
100
AcDbCircle
 10
-57.48676480604337
 20
16.62241680063803
 30
0.0
 40
1.600051195117061
100
AcDbArc
 50
60.00111261678724
 51
119.9988873832128
  0
ARC
  5
284
330
1F
100
AcDbEntity
  8
0
 62
   255
100
AcDbCircle
 10
-57.4867888394474
 20
16.62246506724438
 30
0.0
 40
1.600021411470308
100
AcDbArc
 50
359.9998955700635
 51
59.99950311883284
  0
ARC
  5
285
330
1F
100
AcDbEntity
  8
0
 62
   255
100
AcDbCircle
 10
-57.48677515729614
 20
16.62248520222887
 30
0.0
 40
1.600007729482438
100
AcDbArc
 50
300.000214006191
 51
359.999174541634
  0
ARC
  5
286
330
1F
100
AcDbEntity
  8
0
 62
   255
100
AcDbCircle
 10
-57.48676480604336
 20
16.62254136798351
 30
0.0
 40
1.600051195116912
100
AcDbArc
 50
240.0011126167839
 51
299.9988873832156
  0
ARC
  5
287
330
1F
100
AcDbEntity
  8
0
 62
   255
100
AcDbCircle
 10
-57.48682554909657
 20
16.62244415540624
 30
0.0
 40
1.599936635111513
100
AcDbArc
 50
179.9993555557701
 51
240.001255896398
  0
ARC
  5
288
330
1F
100
AcDbEntity
  8
0
 62
   255
100
AcDbCircle
 10
-57.48681186597572
 20
16.62250611250401
 30
0.0
 40
1.599950318735118
100
AcDbArc
 50
119.9990270058023
 51
180.0015743053086
  0
ARC
  5
289
330
1F
100
AcDbEntity
  8
0
 62
   255
100
AcDbCircle
 10
-57.48676480604337
 20
85.12244848236989
 30
0.0
 40
1.600051195117057
100
AcDbArc
 50
60.00111261678718
 51
119.9988873832128
  0
ARC
  5
28A
330
1F
100
AcDbEntity
  8
0
 62
   255
100
AcDbCircle
 10
-57.48682988814925
 20
85.12247304978438
 30
0.0
 40
1.600062460304472
100
AcDbArc
 50
0.0007442044086422
 51
59.99865448448742
  0
ARC
  5
28B
330
1F
100
AcDbEntity
  8
0
 62
   255
100
AcDbCircle
 10
-57.48682988814941
 20
85.12251461562221
 30
0.0
 40
1.600062460304633
100
AcDbArc
 50
300.0013455155154
 51
359.9992557955878
  0
ARC
  5
28C
330
1F
100
AcDbEntity
  8
0
 62
   255
100
AcDbCircle
 10
-57.48676480604337
 20
85.1225391830366
 30
0.0
 40
1.600051195117057
100
AcDbArc
 50
240.0011126167872
 51
299.9988873832128
  0
ARC
  5
28D
330
1F
100
AcDbEntity
  8
0
 62
   255
100
AcDbCircle
 10
-57.48677082148579
 20
85.12247356793077
 30
0.0
 40
1.599991362749417
100
AcDbArc
 50
179.9992743173729
 51
240.0001243715166
  0
ARC
  5
28E
330
1F
100
AcDbEntity
  8
0
 62
   255
100
AcDbCircle
 10
-57.48677082148595
 20
85.12251409747581
 30
0.0
 40
1.599991362749251
100
AcDbArc
 50
119.9998756284802
 51
180.0007256826307
  0
LINE
  5
28F
330
1F
100
AcDbEntity
  8
0
 62
   255
100
AcDbLine
 10
-90.886659273102
 20
38.72263760221757
 30
0.0
 11
-90.886659273102
 21
28.52263738372288
 31
0.0
  0
LINE
  5
290
330
1F
100
AcDbEntity
  8
0
 62
   255
100
AcDbLine
 10
-90.886659273102
 20
28.52263738372288
 30
0.0
 11
-94.086687895908
 21
28.52263738372288
 31
0.0
  0
LINE
  5
291
330
1F
100
AcDbEntity
  8
0
 62
   255
100
AcDbLine
 10
-94.086687895908
 20
28.52263738372288
 30
0.0
 11
-94.086687895908
 21
38.72263760221757
 31
0.0
  0
LINE
  5
292
330
1F
100
AcDbEntity
  8
0
 62
   255
100
AcDbLine
 10
-94.086687895908
 20
38.72263760221757
 30
0.0
 11
-90.886659273102
 21
38.72263760221757
 31
0.0
  0
LINE
  5
293
330
1F
100
AcDbEntity
  8
0
 62
   255
100
AcDbLine
 10
18.11314517413922
 20
16.7224365870912
 30
0.0
 11
18.11314517413922
 21
6.522402501917583
 31
0.0
  0
LINE
  5
294
330
1F
100
AcDbEntity
  8
0
 62
   255
100
AcDbLine
 10
18.11314517413922
 20
6.522402501917583
 30
0.0
 11
14.91315041801204
 21
6.522402501917583
 31
0.0
  0
LINE
  5
295
330
1F
100
AcDbEntity
  8
0
 62
   255
100
AcDbLine
 10
14.91315041801204
 20
6.522402501917583
 30
0.0
 11
14.91315041801204
 21
16.7224365870912
 31
0.0
  0
LINE
  5
296
330
1F
100
AcDbEntity
  8
0
 62
   255
100
AcDbLine
 10
14.91315041801204
 20
16.7224365870912
 30
0.0
 11
18.11314517413922
 21
16.7224365870912
 31
0.0
  0
LINE
  5
297
330
1F
100
AcDbEntity
  8
0
 62
   255
100
AcDbLine
 10
1.464489025807495
 20
9.122584508004849
 30
0.0
 11
-11.03549895698387
 21
9.122584508004849
 31
0.0
  0
LINE
  5
298
330
1F
100
AcDbEntity
  8
0
 62
   255
100
AcDbLine
 10
-11.03549895698387
 20
9.122584508004849
 30
0.0
 11
-11.03549895698387
 21
33.12257904563727
 31
0.0
  0
LINE
  5
299
330
1F
100
AcDbEntity
  8
0
 62
   255
100
AcDbLine
 10
-11.03549895698387
 20
33.12257904563727
 30
0.0
 11
1.464489025807495
 21
33.12257904563727
 31
0.0
  0
LINE
  5
29A
330
1F
100
AcDbEntity
  8
0
 62
   255
100
AcDbLine
 10
1.464489025807495
 20
33.12257904563727
 30
0.0
 11
1.464489025807495
 21
9.122584508004849
 31
0.0
  0
ARC
  5
29B
330
1F
100
AcDbEntity
  8
0
 62
   255
100
AcDbCircle
 10
16.5132961201998
 20
1.622503664964889
 30
0.0
 40
1.549955284054413
100
AcDbArc
 50
149.9988288097597
 51
210.0011711902403
  0
ARC
  5
29C
330
1F
100
AcDbEntity
  8
0
 62
   255
100
AcDbCircle
 10
16.51339478364758
 20
1.622442527839802
 30
0.0
 40
1.550071297747228
100
AcDbArc
 50
90.00161853126586
 51
149.9986952905602
  0
ARC
  5
29D
330
1F
100
AcDbEntity
  8
0
 62
   255
100
AcDbCircle
 10
16.51330720865047
 20
1.622442527839693
 30
0.0
 40
1.550071297747339
100
AcDbArc
 50
30.00130470944211
 51
89.99838146872968
  0
ARC
  5
29E
330
1F
100
AcDbEntity
  8
0
 62
   255
100
AcDbCircle
 10
16.51340587209799
 20
1.622503664964889
 30
0.0
 40
1.549955284054686
100
AcDbArc
 50
329.9988288097655
 51
30.00117119023445
  0
ARC
  5
29F
330
1F
100
AcDbEntity
  8
0
 62
   255
100
AcDbCircle
 10
16.51330720865048
 20
1.622564802090057
 30
0.0
 40
1.550071297747313
100
AcDbArc
 50
270.0016185312698
 51
329.9986952905585
  0
ARC
  5
2A0
330
1F
100
AcDbEntity
  8
0
 62
   255
100
AcDbCircle
 10
16.51339478364757
 20
1.622564802089941
 30
0.0
 40
1.550071297747195
100
AcDbArc
 50
210.001304709439
 51
269.9983814687348
  0
LINE
  5
2A1
330
1F
100
AcDbEntity
  8
0
 62
   255
100
AcDbLine
 10
-90.886659273102
 20
-3.277530638703418
 30
0.0
 11
-90.886659273102
 21
-13.47753085719812
 31
0.0
  0
LINE
  5
2A2
330
1F
100
AcDbEntity
  8
0
 62
   255
100
AcDbLine
 10
-90.886659273102
 20
-13.47753085719812
 30
0.0
 11
-94.086687895908
 21
-13.47753085719812
 31
0.0
  0
LINE
  5
2A3
330
1F
100
AcDbEntity
  8
0
 62
   255
100
AcDbLine
 10
-94.086687895908
 20
-13.47753085719812
 30
0.0
 11
-94.086687895908
 21
-3.277530638703418
 31
0.0
  0
LINE
  5
2A4
330
1F
100
AcDbEntity
  8
0
 62
   255
100
AcDbLine
 10
-94.086687895908
 20
-3.277530638703418
 30
0.0
 11
-90.886659273102
 21
-3.277530638703418
 31
0.0
  0
ARC
  5
2A5
330
1F
100
AcDbEntity
  8
0
 62
   255
100
AcDbCircle
 10
-18.4868456490833
 20
85.12244848236989
 30
0.0
 40
1.600051195117059
100
AcDbArc
 50
60.00111261678729
 51
119.9988873832129
  0
ARC
  5
2A6
330
1F
100
AcDbEntity
  8
0
 62
   255
100
AcDbCircle
 10
-18.48683963364071
 20
85.12251409747569
 30
0.0
 40
1.599991362749356
100
AcDbArc
 50
359.9992743173738
 51
60.00012437152236
  0
ARC
  5
2A7
330
1F
100
AcDbEntity
  8
0
 62
   255
100
AcDbCircle
 10
-18.48683963364087
 20
85.1224735679309
 30
0.0
 40
1.599991362749511
100
AcDbArc
 50
299.9998756284805
 51
0.0007256826225781
  0
ARC
  5
2A8
330
1F
100
AcDbEntity
  8
0
 62
   255
100
AcDbCircle
 10
-18.48684564908331
 20
85.1225391830366
 30
0.0
 40
1.600051195117057
100
AcDbArc
 50
240.0011126167872
 51
299.9988873832128
  0
ARC
  5
2A9
330
1F
100
AcDbEntity
  8
0
 62
   255
100
AcDbCircle
 10
-18.48678056697716
 20
85.1225146156222
 30
0.0
 40
1.600062460304677
100
AcDbArc
 50
180.0007442044117
 51
239.9986544844808
  0
ARC
  5
2AA
330
1F
100
AcDbEntity
  8
0
 62
   255
100
AcDbCircle
 10
-18.48678056697729
 20
85.12247304978436
 30
0.0
 40
1.600062460304551
100
AcDbArc
 50
120.0013455155165
 51
179.9992557955908
  0
ARC
  5
2AB
330
1F
100
AcDbEntity
  8
0
 62
   255
100
AcDbCircle
 10
-50.48677388429336
 20
-43.64971308412724
 30
0.0
 40
1.900007745897714
100
AcDbArc
 50
90.00058278801792
 51
180.0004384816142
  0
ARC
  5
2AC
330
1F
100
AcDbEntity
  8
0
 62
   255
100
AcDbCircle
 10
-50.48678589632425
 20
-43.64972031075705
 30
0.0
 40
1.90001497244331
100
AcDbArc
 50
359.9997794422248
 51
90.00022055777495
  0
ARC
  5
2AD
330
1F
100
AcDbEntity
  8
0
 62
   255
100
AcDbCircle
 10
-50.48676147176808
 20
-43.64971506630881
 30
0.0
 40
1.899990547914564
100
AcDbArc
 50
299.99885778716
 51
359.9996212887344
  0
ARC
  5
2AE
330
1F
100
AcDbEntity
  8
0
 62
   255
100
AcDbCircle
 10
-50.48679321035468
 20
-43.64961126855916
 30
0.0
 40
1.900096309339373
100
AcDbArc
 50
240.0018782858961
 51
299.9981217141039
  0
ARC
  5
2AF
330
1F
100
AcDbEntity
  8
0
 62
   255
100
AcDbCircle
 10
-50.48675158555982
 20
-43.64971181552467
 30
0.0
 40
1.900030044641384
100
AcDbArc
 50
180.0004767314282
 51
239.9992753062067
  0
LINE
  5
2B0
330
1F
100
AcDbEntity
  8
0
 62
   255
100
AcDbLine
 10
-90.886659273102
 20
58.72260482801218
 30
0.0
 11
-90.886659273102
 21
48.52260460951747
 31
0.0
  0
LINE
  5
2B1
330
1F
100
AcDbEntity
  8
0
 62
   255
100
AcDbLine
 10
-90.886659273102
 20
48.52260460951747
 30
0.0
 11
-94.086687895908
 21
48.52260460951747
 31
0.0
  0
LINE
  5
2B2
330
1F
100
AcDbEntity
  8
0
 62
   255
100
AcDbLine
 10
-94.086687895908
 20
48.52260460951747
 30
0.0
 11
-94.086687895908
 21
58.72260482801218
 31
0.0
  0
LINE
  5
2B3
330
1F
100
AcDbEntity
  8
0
 62
   255
100
AcDbLine
 10
-94.086687895908
 20
58.72260482801218
 30
0.0
 11
-90.886659273102
 21
58.72260482801218
 31
0.0
  0
LINE
  5
2B4
330
1F
100
AcDbEntity
  8
0
 62
   255
100
AcDbLine
 10
-64.93672296430779
 20
9.122584508004849
 30
0.0
 11
-77.43671094709916
 21
9.122584508004849
 31
0.0
  0
LINE
  5
2B5
330
1F
100
AcDbEntity
  8
0
 62
   255
100
AcDbLine
 10
-77.43671094709916
 20
9.122584508004849
 30
0.0
 11
-77.43671094709916
 21
33.12257904563727
 31
0.0
  0
LINE
  5
2B6
330
1F
100
AcDbEntity
  8
0
 62
   255
100
AcDbLine
 10
-77.43671094709916
 20
33.12257904563727
 30
0.0
 11
-64.93672296430779
 21
33.12257904563727
 31
0.0
  0
LINE
  5
2B7
330
1F
100
AcDbEntity
  8
0
 62
   255
100
AcDbLine
 10
-64.93672296430779
 20
33.12257904563727
 30
0.0
 11
-64.93672296430779
 21
9.122584508004849
 31
0.0
  0
LINE
  5
2B8
330
1F
100
AcDbEntity
  8
0
 62
   255
100
AcDbLine
 10
18.11314517413922
 20
38.72263760221757
 30
0.0
 11
18.11314517413922
 21
28.52263738372288
 31
0.0
  0
LINE
  5
2B9
330
1F
100
AcDbEntity
  8
0
 62
   255
100
AcDbLine
 10
18.11314517413922
 20
28.52263738372288
 30
0.0
 11
14.91315041801204
 21
28.52263738372288
 31
0.0
  0
LINE
  5
2BA
330
1F
100
AcDbEntity
  8
0
 62
   255
100
AcDbLine
 10
14.91315041801204
 20
28.52263738372288
 30
0.0
 11
14.91315041801204
 21
38.72263760221757
 31
0.0
  0
LINE
  5
2BB
330
1F
100
AcDbEntity
  8
0
 62
   255
100
AcDbLine
 10
14.91315041801204
 20
38.72263760221757
 30
0.0
 11
18.11314517413922
 21
38.72263760221757
 31
0.0
  0
ARC
  5
2BC
330
1F
100
AcDbEntity
  8
DEFAULT
100
AcDbCircle
 10
-0.5612633060771941
 20
71.08578836137741
 30
0.0
 40
2.015368034520421
100
AcDbArc
 50
240.393827446212
 51
60.39382744621301
  0
ARC
  5
2BD
330
1F
100
AcDbEntity
  8
DEFAULT
100
AcDbCircle
 10
-37.46285455140552
 20
21.62096682328439
 30
0.0
 40
63.71334098764522
100
AcDbArc
 50
53.50099828516566
 51
90.09051296092005
  0
ARC
  5
2BE
330
1F
100
AcDbEntity
  8
DEFAULT
100
AcDbCircle
 10
-37.66452133155665
 20
21.62820799757306
 30
0.0
 40
63.70610039958455
100
AcDbArc
 50
89.90914877828877
 51
128.1154006051265
  0
ARC
  5
2BF
330
1F
100
AcDbEntity
  8
DEFAULT
100
AcDbCircle
 10
-75.62866095088744
 20
70.26901014491045
 30
0.0
 40
2.00969225799342
100
AcDbArc
 50
132.5214710245563
 51
179.9865228372747
  0
ARC
  5
2C0
330
1F
100
AcDbEntity
  8
DEFAULT
100
AcDbCircle
 10
-75.63839216329026
 20
70.26944713386828
 30
0.0
 40
1.999960990312821
100
AcDbArc
 50
179.9989763168524
 51
270.0010236831484
  0
ARC
  5
2C1
330
1F
100
AcDbEntity
  8
DEFAULT
100
AcDbCircle
 10
-75.63503816107001
 20
70.26006998901926
 30
0.0
 40
1.990586610892369
100
AcDbArc
 50
269.9044889921657
 51
307.4935647997045
  0
LINE
  5
2C2
330
1F
100
AcDbEntity
  8
DEFAULT
100
AcDbLine
 10
-74.42342319176078
 20
68.68069535910723
 30
0.0
 11
-74.41404212170482
 21
68.68787509503457
 31
0.0
  0
LINE
  5
2C3
330
1F
100
AcDbEntity
  8
DEFAULT
100
AcDbLine
 10
-74.41404212170482
 20
68.68787509503457
 30
0.0
 11
-74.4108247872091
 21
68.69038122927333
 31
0.0
  0
LINE
  5
2C4
330
1F
100
AcDbEntity
  8
DEFAULT
100
AcDbLine
 10
-74.4108247872091
 20
68.69038122927333
 30
0.0
 11
-74.41063852047512
 21
68.69063522936511
 31
0.0
  0
LINE
  5
2C5
330
1F
100
AcDbEntity
  8
DEFAULT
100
AcDbLine
 10
-74.41063852047512
 20
68.69063522936511
 30
0.0
 11
-74.41383892163142
 21
68.68801056175016
 31
0.0
  0
LINE
  5
2C6
330
1F
100
AcDbEntity
  8
DEFAULT
100
AcDbLine
 10
-74.41383892163142
 20
68.68801056175016
 30
0.0
 11
-74.41065545381457
 21
68.69051669598895
 31
0.0
  0
LINE
  5
2C7
330
1F
100
AcDbEntity
  8
DEFAULT
100
AcDbLine
 10
-74.41065545381457
 20
68.69051669598895
 30
0.0
 11
-74.39754904907937
 21
68.70060896630187
 31
0.0
  0
LINE
  5
2C8
330
1F
100
AcDbEntity
  8
DEFAULT
100
AcDbLine
 10
-74.39754904907937
 20
68.70060896630187
 30
0.0
 11
-74.3383839610369
 21
68.74632898282005
 31
0.0
  0
ARC
  5
2C9
330
1F
100
AcDbEntity
  8
DEFAULT
100
AcDbCircle
 10
-37.4163870410957
 20
21.21829694135174
 30
0.0
 40
60.18428105652659
100
AcDbArc
 50
122.7911206438483
 51
127.8417310302122
  0
ARC
  5
2CA
330
1F
100
AcDbEntity
  8
DEFAULT
100
AcDbCircle
 10
-37.65882583134939
 20
21.61385092652888
 30
0.0
 40
59.72045979211706
100
AcDbArc
 50
89.90867975298173
 51
122.8011147187507
  0
ARC
  5
2CB
330
1F
100
AcDbEntity
  8
DEFAULT
100
AcDbCircle
 10
-37.46865698795067
 20
21.61506238026868
 30
0.0
 40
59.71924802041126
100
AcDbArc
 50
58.15762991667606
 51
90.09112957321685
  0
ARC
  5
2CC
330
1F
100
AcDbEntity
  8
DEFAULT
100
AcDbCircle
 10
-37.67145695279295
 20
21.26596394706681
 30
0.0
 40
60.1228033329015
100
AcDbArc
 50
53.08142746219282
 51
58.16897004949345
  0
ARC
  5
2CD
330
1F
100
AcDbEntity
  8
0
 62
   255
100
AcDbCircle
 10
-92.48658966504965
 20
43.62243483913357
 30
0.0
 40
1.550119479468212
100
AcDbArc
 50
150.0023328629322
 51
209.997667137068
  0
ARC
  5
2CE
330
1F
100
AcDbEntity
  8
0
 62
   255
100
AcDbCircle
 10
-92.48668059702484
 20
43.62237370200847
 30
0.0
 40
1.550071297747211
100
AcDbArc
 50
90.00161853126586
 51
149.9986952905592
  0
ARC
  5
2CF
330
1F
100
AcDbEntity
  8
0
 62
   255
100
AcDbCircle
 10
-92.4867681720219
 20
43.62237370200842
 30
0.0
 40
1.550071297747258
100
AcDbArc
 50
30.00130470944162
 51
89.99838146873205
  0
ARC
  5
2D0
330
1F
100
AcDbEntity
  8
0
 62
   255
100
AcDbCircle
 10
-92.48666950857394
 20
43.62243483913356
 30
0.0
 40
1.549955284054262
100
AcDbArc
 50
329.9988288097562
 51
30.00117119024381
  0
ARC
  5
2D1
330
1F
100
AcDbEntity
  8
0
 62
   255
100
AcDbCircle
 10
-92.48676817202188
 20
43.6224959762587
 30
0.0
 40
1.550071297747245
100
AcDbArc
 50
270.0016185312674
 51
329.9986952905581
  0
ARC
  5
2D2
330
1F
100
AcDbEntity
  8
0
 62
   255
100
AcDbCircle
 10
-92.48668059702484
 20
43.62249597625866
 30
0.0
 40
1.550071297747216
100
AcDbArc
 50
210.0013047094408
 51
269.9983814687342
  0
ARC
  5
2D3
330
1F
100
AcDbEntity
  8
0
 62
   255
100
AcDbCircle
 10
-18.48684564908331
 20
63.62259378134694
 30
0.0
 40
1.600051195117228
100
AcDbArc
 50
60.00111261679064
 51
119.9988873832092
  0
ARC
  5
2D4
330
1F
100
AcDbEntity
  8
0
 62
   255
100
AcDbCircle
 10
-18.48678490603016
 20
63.62269099392441
 30
0.0
 40
1.599936635111671
100
AcDbArc
 50
359.9993555557741
 51
60.00125589639936
  0
ARC
  5
2D5
330
1F
100
AcDbEntity
  8
0
 62
   255
100
AcDbCircle
 10
-18.48679858915092
 20
63.62262903682689
 30
0.0
 40
1.599950318735193
100
AcDbArc
 50
299.9990270057992
 51
0.001574305304027
  0
ARC
  5
2D6
330
1F
100
AcDbEntity
  8
0
 62
   255
100
AcDbCircle
 10
-18.48684564908331
 20
63.62271834869291
 30
0.0
 40
1.600051195117205
100
AcDbArc
 50
240.0011126167902
 51
299.9988873832098
  0
ARC
  5
2D7
330
1F
100
AcDbEntity
  8
0
 62
   255
100
AcDbCircle
 10
-18.48682161567916
 20
63.6226700820864
 30
0.0
 40
1.60002141147037
100
AcDbArc
 50
179.9998955700641
 51
239.9995031188293
  0
ARC
  5
2D8
330
1F
100
AcDbEntity
  8
0
 62
   255
100
AcDbCircle
 10
-18.48683529783036
 20
63.62264994710191
 30
0.0
 40
1.600007729482562
100
AcDbArc
 50
120.0002140061959
 51
179.9991745416342
  0
ARC
  5
2D9
330
1F
100
AcDbEntity
  8
0
 62
   255
100
AcDbCircle
 10
-25.48682455880233
 20
-43.64972031075709
 30
0.0
 40
1.900014972443349
100
AcDbArc
 50
89.99977944222624
 51
180.0002205577741
  0
ARC
  5
2DA
330
1F
100
AcDbEntity
  8
0
 62
   255
100
AcDbCircle
 10
-25.48683657083326
 20
-43.64971308412725
 30
0.0
 40
1.900007745897716
100
AcDbArc
 50
359.999561518386
 51
89.99941721198208
  0
ARC
  5
2DB
330
1F
100
AcDbEntity
  8
0
 62
   255
100
AcDbCircle
 10
-25.48685886956693
 20
-43.64971181552459
 30
0.0
 40
1.90003004464151
100
AcDbArc
 50
300.0007246937954
 51
359.9995232685695
  0
ARC
  5
2DC
330
1F
100
AcDbEntity
  8
0
 62
   255
100
AcDbCircle
 10
-25.48681724477197
 20
-43.64961126855906
 30
0.0
 40
1.900096309339474
100
AcDbArc
 50
240.0018782858969
 51
299.9981217141031
  0
ARC
  5
2DD
330
1F
100
AcDbEntity
  8
0
 62
   255
100
AcDbCircle
 10
-25.48684898335848
 20
-43.64971506630881
 30
0.0
 40
1.899990547914631
100
AcDbArc
 50
180.0003787112658
 51
240.0011422128369
  0
LINE
  5
2DE
330
1F
100
AcDbEntity
  8
0
 62
   255
100
AcDbLine
 10
-56.35284066303421
 20
-49.52671401475246
 30
0.0
 11
-56.77404054854298
 21
-49.47564306296769
 31
0.0
  0
LINE
  5
2DF
330
1F
100
AcDbEntity
  8
0
 62
   255
100
AcDbLine
 10
-56.77404054854298
 20
-49.47564306296769
 30
0.0
 11
-56.8359827042554
 21
-49.45913305700277
 31
0.0
  0
ARC
  5
2E0
330
1F
100
AcDbEntity
  8
0
 62
   255
100
AcDbCircle
 10
-39.9804089119362
 20
13.19511601503311
 30
0.0
 40
64.88193349961935
100
AcDbArc
 50
227.3476157414579
 51
254.942492984876
  0
ARC
  5
2E1
330
1F
100
AcDbEntity
  8
0
 62
   255
100
AcDbCircle
 10
-82.76757021647968
 20
-33.22723492621136
 30
0.0
 40
1.749003899021207
100
AcDbArc
 50
179.9829783595087
 51
227.8589889994013
  0
ARC
  5
2E2
330
1F
100
AcDbEntity
  8
0
 62
   255
100
AcDbCircle
 10
-82.76654313134742
 20
-33.22671946668284
 30
0.0
 40
1.750030906975962
100
AcDbArc
 50
90.00124437847424
 51
179.9998644254485
  0
ARC
  5
2E3
330
1F
100
AcDbEntity
  8
0
 62
   255
100
AcDbCircle
 10
-82.76618574067396
 20
-33.22561266458768
 30
0.0
 40
1.748924149164153
100
AcDbArc
 50
47.65274852337082
 51
90.01295349384934
  0
ARC
  5
2E4
330
1F
100
AcDbEntity
  8
0
 62
   255
100
AcDbCircle
 10
-39.97242932431885
 20
13.21071292084348
 30
0.0
 40
61.39884982292494
100
AcDbArc
 50
227.3286667722357
 51
254.947940184129
  0
ARC
  5
2E5
330
1F
100
AcDbEntity
  8
0
 62
   255
100
AcDbCircle
 10
-56.35317126266391
 20
-47.77686403275417
 30
0.0
 40
1.750391237744179
100
AcDbArc
 50
0.00467811789233
 51
75.58765696063907
  0
ARC
  5
2E6
330
1F
100
AcDbEntity
  8
0
 62
   255
100
AcDbCircle
 10
-56.35278668860408
 20
-47.77667057240183
 30
0.0
 40
1.750006658579753
100
AcDbArc
 50
273.2265632480765
 51
359.9983451919343
  0
LINE
  5
2E7
330
1F
100
AcDbEntity
  8
0
 62
   255
100
AcDbLine
 10
-56.25428862742831
 20
-49.52390308040357
 30
0.0
 11
-56.35284066303421
 21
-49.52671401475246
 31
0.0
  0
ARC
  5
2E8
330
1F
100
AcDbEntity
  8
0
 62
   255
100
AcDbCircle
 10
-37.98668669418714
 20
-36.40589577172374
 30
0.0
 40
11.25002489526156
100
AcDbArc
 50
60.00006517154902
 51
119.999934828451
  0
ARC
  5
2E9
330
1F
100
AcDbEntity
  8
0
 62
   255
100
AcDbCircle
 10
-37.9867818429084
 20
-36.40590555987664
 30
0.0
 40
11.25008094659009
100
AcDbArc
 50
0.0001196100826357
 51
59.99967043347609
  0
ARC
  5
2EA
330
1F
100
AcDbEntity
  8
0
 62
   255
100
AcDbCircle
 10
-37.98668606590949
 20
-36.405880018784
 30
0.0
 40
11.24998516956685
100
AcDbArc
 50
300.0000479438169
 51
359.9999895312128
  0
ARC
  5
2EB
330
1F
100
AcDbEntity
  8
0
 62
   255
100
AcDbCircle
 10
-37.98668669418714
 20
-36.40583451024314
 30
0.0
 40
11.25002489526149
100
AcDbArc
 50
240.0000651715488
 51
299.9999348284512
  0
ARC
  5
2EC
330
1F
100
AcDbEntity
  8
0
 62
   255
100
AcDbCircle
 10
-37.98668959105668
 20
-36.40584222260467
 30
0.0
 40
11.25001676772427
100
AcDbArc
 50
180.0002029628316
 51
240.0000583092618
  0
ARC
  5
2ED
330
1F
100
AcDbEntity
  8
0
 62
   255
100
AcDbCircle
 10
-37.98659381386923
 20
-36.40594335636638
 30
0.0
 40
11.25011254500805
100
AcDbArc
 50
120.0002233136
 51
179.9996878962375
  0
LINE
  5
2EE
330
1F
100
AcDbEntity
  8
0
 62
   255
100
AcDbLine
 10
-97.56354275206203
 20
63.8343058748203
 30
0.0
 11
-101.0128639982684
 21
63.8343058748203
 31
0.0
  0
ARC
  5
2EF
330
1F
100
AcDbEntity
  8
0
 62
   255
100
AcDbCircle
 10
-37.60179273367648
 20
23.89189792093958
 30
0.0
 40
74.94237727799532
100
AcDbArc
 50
89.97078008395229
 51
147.7933201905926
  0
ARC
  5
2F0
330
1F
100
AcDbEntity
  8
0
 62
   255
100
AcDbCircle
 10
-37.5252001968987
 20
23.89223800636412
 30
0.0
 40
74.94203727118415
100
AcDbArc
 50
32.20653625982311
 51
90.02933759740382
  0
LINE
  5
2F1
330
1F
100
AcDbEntity
  8
0
 62
   255
100
AcDbLine
 10
25.88568344894867
 20
63.8343058748203
 30
0.0
 11
22.43639606942122
 21
63.8343058748203
 31
0.0
  0
LINE
  5
2F2
330
1F
100
AcDbEntity
  8
0
 62
   255
100
AcDbLine
 10
22.43639606942122
 20
63.8343058748203
 30
0.0
 11
22.43639606942122
 21
-16.16580009511046
 31
0.0
  0
LINE
  5
2F3
330
1F
100
AcDbEntity
  8
0
 62
   255
100
AcDbLine
 10
22.43639606942122
 20
-16.16580009511046
 30
0.0
 11
25.88568344894867
 21
-16.16580009511046
 31
0.0
  0
LINE
  5
2F4
330
1F
100
AcDbEntity
  8
0
 62
   255
100
AcDbLine
 10
25.88568344894867
 20
-16.16580009511046
 30
0.0
 11
31.73120769421342
 21
-16.16580009511046
 31
0.0
  0
ARC
  5
2F5
330
1F
100
AcDbEntity
  8
0
 62
   255
100
AcDbCircle
 10
-37.53149780128911
 20
23.8008477434585
 30
0.0
 40
79.96658872309675
100
AcDbArc
 50
269.9770179877868
 51
330.0137713601846
  0
ARC
  5
2F6
330
1F
100
AcDbEntity
  8
0
 62
   255
100
AcDbCircle
 10
-37.59574242028959
 20
23.80068569918739
 30
0.0
 40
79.96642671641304
100
AcDbArc
 50
209.9861615727942
 51
270.0230490792343
  0
LINE
  5
2F7
330
1F
100
AcDbEntity
  8
0
 62
   255
100
AcDbLine
 10
-106.8583543768542
 20
-16.16580009511046
 30
0.0
 11
-101.0128639982684
 21
-16.16580009511046
 31
0.0
  0
LINE
  5
2F8
330
1F
100
AcDbEntity
  8
0
 62
   255
100
AcDbLine
 10
-101.0128639982684
 20
-16.16580009511046
 30
0.0
 11
-97.56354275206203
 21
-16.16580009511046
 31
0.0
  0
LINE
  5
2F9
330
1F
100
AcDbEntity
  8
0
 62
   255
100
AcDbLine
 10
-97.56354275206203
 20
-16.16580009511046
 30
0.0
 11
-97.56354275206203
 21
63.8343058748203
 31
0.0
  0
VIEWPORT
  5
2FE
330
2FA
100
AcDbEntity
 67
     1
  8
0
100
AcDbViewport
 10
6.0
 20
4.5
 30
0.0
 40
12.696
 41
9.522
 68
     1
 69
     1
1001
ACAD
1000
MVIEW
1002
{
1070
    16
1010
0.0
1020
0.0
1030
0.0
1010
0.0
1020
0.0
1030
1.0
1040
0.0
1040
9.522
1040
6.0
1040
4.5
1040
50.0
1040
0.0
1040
0.0
1070
     0
1070
   100
1070
     0
1070
     3
1070
     0
1070
     0
1070
     0
1070
     0
1040
0.0
1040
0.0
1040
0.0
1040
0.5
1040
0.5
1040
0.5
1040
0.5
1070
     0
1002
{
1002
}
1002
}
  0
ENDSEC
  0
SECTION
  2
OBJECTS
  0
DICTIONARY
  5
C
330
0
100
AcDbDictionary
  3
ACAD_GROUP
350
D
  3
ACAD_LAYOUT
350
1A
  3
ACAD_MLEADERSTYLE
350
321
  3
ACAD_MLINESTYLE
350
17
  3
ACAD_PLOTSETTINGS
350
19
  3
ACAD_VISUALSTYLE
350
2A
  3
ACDBHEADERROUNDTRIPXREC
350
2FF
  3
ACDBVARIABLEDICTIONARY
350
31F
  0
DICTIONARY
  5
D
102
{ACAD_REACTORS
330
C
102
}
330
C
100
AcDbDictionary
  0
DICTIONARY
  5
1A
102
{ACAD_REACTORS
330
C
102
}
330
C
100
AcDbDictionary
  0
DICTIONARY
  5
321
102
{ACAD_REACTORS
330
C
102
}
330
C
100
AcDbDictionary
  0
DICTIONARY
  5
17
102
{ACAD_REACTORS
330
C
102
}
330
C
100
AcDbDictionary
  3
STANDARD
350
18
  0
DICTIONARY
  5
19
102
{ACAD_REACTORS
330
C
102
}
330
C
100
AcDbDictionary
  0
DICTIONARY
  5
2A
102
{ACAD_REACTORS
330
C
102
}
330
C
100
AcDbDictionary
  3
2DWIREFRAME
350
2F
  3
3D_HIDDEN
350
31
  3
3DWIREFRAME
350
30
  3
BASIC
350
32
  3
BRIGHTEN
350
36
  3
COLORCHANGE
350
3A
  3
CONCEPTUAL
350
34
  3
DIM
350
35
  3
FACEPATTERN
350
39
  3
FLAT
350
2B
  3
FLATWITHEDGES
350
2C
  3
GOURAUD
350
2D
  3
GOURAUDWITHEDGES
350
2E
  3
LINEPATTERN
350
38
  3
REALISTIC
350
33
  3
THICKEN
350
37
  0
DICTIONARY
  5
2FF
102
{ACAD_REACTORS
330
C
102
}
330
C
100
AcDbDictionary
  3
CEPSNTYPE
350
308
  3
DIMSTYLEDATA
350
31E
  3
FINGERPRINTGUID
350
309
  3
HYPERLINKBASE
350
302
  3
INSUNITS
350
307
  3
LAYOUTDICT
350
304
  3
LWETCUNION
350
306
  3
PLOTSETDICT
350
305
  3
PSVPSCALE
350
30B
  3
PUCSBASE
350
30E
  3
PUCSORGBACK
350
314
  3
PUCSORGBOTTOM
350
310
  3
PUCSORGFRONT
350
313
  3
PUCSORGLEFT
350
311
  3
PUCSORGRIGHT
350
312
  3
PUCSORGTOP
350
30F
  3
PUCSORTHOREF
350
30C
  3
PUCSORTHOVIEW
350
30D
  3
STYLESHEET
350
303
  3
TSTACKALIGN
350
300
  3
TSTACKSIZE
350
301
  3
UCSBASE
350
317
  3
UCSORGBACK
350
31D
  3
UCSORGBOTTOM
350
319
  3
UCSORGFRONT
350
31C
  3
UCSORGLEFT
350
31A
  3
UCSORGRIGHT
350
31B
  3
UCSORGTOP
350
318
  3
UCSORTHOREF
350
315
  3
UCSORTHOVIEW
350
316
  3
VERSIONGUID
350
30A
  0
DICTIONARY
  5
31F
102
{ACAD_REACTORS
330
C
102
}
330
C
100
AcDbDictionary
  0
MLINESTYLE
  5
18
102
{ACAD_REACTORS
330
17
102
}
330
17
100
AcDbMlineStyle
  2
Standard
 70
     0
  3

 62
   256
 51
90.0
 52
90.0
 71
     2
 49
0.5
 62
   256
  6
BYLAYER
 49
-0.5
 62
   256
  6
BYLAYER
  0
ACAD_PROXY_OBJECT
  5
2F
102
{ACAD_REACTORS
330
2A
102
}
330
2A
100
AcDbProxyObject
 90
      499
 91
      501
 93
      436
310
42CC9915DA5C99599C985B595049028333333333333E3BF0000000000000FB0107901411070040501600405405064090741402480A0340
1001
ACAD
1000
AcDbSavedByObjectVersion
1070
     0
  0
ACAD_PROXY_OBJECT
  5
31
102
{ACAD_REACTORS
330
2A
102
}
330
2A
100
AcDbProxyObject
 90
      499
 91
      501
 93
      500
310
424CD108121A5919195B90640502408333333333333E3BF0000000000000FB01079024090700405020000000000001110200405405064090740C02480A0340
1001
ACAD
1000
AcDbSavedByObjectVersion
1070
     0
  0
ACAD_PROXY_OBJECT
  5
30
102
{ACAD_REACTORS
330
2A
102
}
330
2A
100
AcDbProxyObject
 90
      499
 91
      501
 93
      436
310
42CCD915DA5C99599C985B595059028333333333333E3BF0000000000000FB0107901411070040501600405405064090741402480A0340
1001
ACAD
1000
AcDbSavedByObjectVersion
1070
     0
  0
ACAD_PROXY_OBJECT
  5
32
102
{ACAD_REACTORS
330
2A
102
}
330
2A
100
AcDbProxyObject
 90
      499
 91
      501
 93
      388
310
4150985CDA58D07406404333333333333E3BF0000000000000FB0107A41107004050150841D405064090741402480A0350
1001
ACAD
1000
AcDbSavedByObjectVersion
1070
     0
  0
ACAD_PROXY_OBJECT
  5
36
102
{ACAD_REACTORS
330
2A
102
}
330
2A
100
AcDbProxyObject
 90
      499
 91
      501
 93
      428
310
42109C9A59DA1D195B90C409028333333333333E3BF0000000000000FB010790141107004050150841D405064090741402480A029950
1001
ACAD
1000
AcDbSavedByObjectVersion
1070
     0
  0
ACAD_PROXY_OBJECT
  5
3A
102
{ACAD_REACTORS
330
2A
102
}
330
2A
100
AcDbProxyObject
 90
      499
 91
      501
 93
      452
310
42D0DBDB1BDC90DA185B99D95104090240C333333333333E3BF0000000000000FB0108901411070040501508421405064090741402480A0350
1001
ACAD
1000
AcDbSavedByObjectVersion
1070
     0
  0
ACAD_PROXY_OBJECT
  5
34
102
{ACAD_REACTORS
330
2A
102
}
330
2A
100
AcDbProxyObject
 90
      499
 91
      501
 93
      500
310
4290DBDB98D95C1D1D585B10940D028333333333333E3BF0000000000000FB0107902409070040501000000000000111010841D405064090740C02480A0340
1001
ACAD
1000
AcDbSavedByObjectVersion
1070
     0
  0
ACAD_PROXY_OBJECT
  5
35
102
{ACAD_REACTORS
330
2A
102
}
330
2A
100
AcDbProxyObject
 90
      499
 91
      501
 93
      412
310
40D11A5B50B409028333333333333E3BF0000000000000FB010790141107004050150841D405064090741402480A02677FFFFFD0
1001
ACAD
1000
AcDbSavedByObjectVersion
1070
     0
  0
ACAD_PROXY_OBJECT
  5
39
102
{ACAD_REACTORS
330
2A
102
}
330
2A
100
AcDbProxyObject
 90
      499
 91
      501
 93
      444
310
42D19858D95C185D1D195C9B90F409028333333333333E3BF0000000000000FB010790141107004050150841D405064090741402480A0350
1001
ACAD
1000
AcDbSavedByObjectVersion
1070
     0
  0
ACAD_PROXY_OBJECT
  5
2B
102
{ACAD_REACTORS
330
2A
102
}
330
2A
100
AcDbProxyObject
 90
      499
 91
      501
 93
      388
310
41119B185D240901404333333333333E3BF0000000000000F9010740A41107004050150841D405064090741402480A1B50
1001
ACAD
1000
AcDbSavedByObjectVersion
1070
     0
  0
ACAD_PROXY_OBJECT
  5
2C
102
{ACAD_REACTORS
330
2A
102
}
330
2A
100
AcDbProxyObject
 90
      499
 91
      501
 93
      476
310
43519B185D15DA5D1A115919D95CD0140901404333333333333E3BF0000000000000F9010740901411070040501600405405064090741402480A1B50
1001
ACAD
1000
AcDbSavedByObjectVersion
1070
     0
  0
ACAD_PROXY_OBJECT
  5
2D
102
{ACAD_REACTORS
330
2A
102
}
330
2A
100
AcDbProxyObject
 90
      499
 91
      501
 93
      412
310
41D1DBDD5C985D5910240902404333333333333E3BF0000000000000F9010740A411070040501641D405064090741402480A1B50
1001
ACAD
1000
AcDbSavedByObjectVersion
1070
     0
  0
ACAD_PROXY_OBJECT
  5
2E
102
{ACAD_REACTORS
330
2A
102
}
330
2A
100
AcDbProxyObject
 90
      499
 91
      501
 93
      500
310
4411DBDD5C985D5915DA5D1A115919D95CD0340902404333333333333E3BF0000000000000F9010740901411070040501600405405064090741402480A1B50
1001
ACAD
1000
AcDbSavedByObjectVersion
1070
     0
  0
ACAD_PROXY_OBJECT
  5
38
102
{ACAD_REACTORS
330
2A
102
}
330
2A
100
AcDbProxyObject
 90
      499
 91
      501
 93
      444
310
42D31A5B995C185D1D195C9B90E409028333333333333E3BF0000000000000FB010790141107004050750841D405064090741402483A0350
1001
ACAD
1000
AcDbSavedByObjectVersion
1070
     0
  0
ACAD_PROXY_OBJECT
  5
33
102
{ACAD_REACTORS
330
2A
102
}
330
2A
100
AcDbProxyObject
 90
      499
 91
      501
 93
      420
310
425499585B1A5CDD1A58D08409028333333333333E3BF0000000000000FB01079019070040501508421405064090741402480A1B40
1001
ACAD
1000
AcDbSavedByObjectVersion
1070
     0
  0
ACAD_PROXY_OBJECT
  5
37
102
{ACAD_REACTORS
330
2A
102
}
330
2A
100
AcDbProxyObject
 90
      499
 91
      501
 93
      412
310
41D51A1A58DAD95B90D409028333333333333E3BF0000000000000FB010790141107004050150C41D405064090741402480A0350
1001
ACAD
1000
AcDbSavedByObjectVersion
1070
     0
  0
ACAD_PROXY_OBJECT
  5
308
102
{ACAD_REACTORS
330
2FF
102
}
330
2FF
100
AcDbProxyObject
 90
      499
 91
      502
 93
       58
310
4196800000000000
  0
ACAD_PROXY_OBJECT
  5
31E
102
{ACAD_REACTORS
330
2FF
102
}
330
2FF
100
AcDbProxyObject
 90
      499
 91
      502
 93
      370
310
4B7A00C180079114D51653117A80C040079ECB8105C0518000800B811500550044400000000000003A80C040079F40
  0
ACAD_PROXY_OBJECT
  5
309
102
{ACAD_REACTORS
330
2FF
102
}
330
2FF
100
AcDbProxyObject
 90
      499
 91
      502
 93
      354
310
4AC0400980079ED04D1110504E0CCD4B4C0E50908B4D0E0D104B5090CD4D4B4E0E1091110E0C4D515191911F40
  0
ACAD_PROXY_OBJECT
  5
302
102
{ACAD_REACTORS
330
2FF
102
}
330
2FF
100
AcDbProxyObject
 90
      499
 91
      502
 93
       50
310
41404000000780
  0
ACAD_PROXY_OBJECT
  5
307
102
{ACAD_REACTORS
330
2FF
102
}
330
2FF
100
AcDbProxyObject
 90
      499
 91
      502
 93
       58
310
4196800100000000
  0
ACAD_PROXY_OBJECT
  5
304
102
{ACAD_REACTORS
330
2FF
102
}
330
2FF
100
AcDbProxyObject
 90
      499
 91
      502
 93
       90
310
429500468000000000000000
  0
ACAD_PROXY_OBJECT
  5
306
102
{ACAD_REACTORS
330
2FF
102
}
330
2FF
100
AcDbProxyObject
 90
      499
 91
      502
 93
       58
310
419680074A800000
  0
ACAD_PROXY_OBJECT
  5
305
102
{ACAD_REACTORS
330
2FF
102
}
330
2FF
100
AcDbProxyObject
 90
      499
 91
      502
 93
       90
310
429500464000000000000000
  0
ACAD_PROXY_OBJECT
  5
30B
102
{ACAD_REACTORS
330
2FF
102
}
330
2FF
100
AcDbProxyObject
 90
      499
 91
      502
 93
       90
310
428A00000000000000000000
  0
ACAD_PROXY_OBJECT
  5
30E
102
{ACAD_REACTORS
330
2FF
102
}
330
2FF
100
AcDbProxyObject
 90
      499
 91
      502
 93
       90
310
429500400000000000000000
  0
ACAD_PROXY_OBJECT
  5
314
102
{ACAD_REACTORS
330
2FF
102
}
330
2FF
100
AcDbProxyObject
 90
      499
 91
      502
 93
      218
310
46828000000000000000000000000000000000000000000000000000
  0
ACAD_PROXY_OBJECT
  5
310
102
{ACAD_REACTORS
330
2FF
102
}
330
2FF
100
AcDbProxyObject
 90
      499
 91
      502
 93
      218
310
46828000000000000000000000000000000000000000000000000000
  0
ACAD_PROXY_OBJECT
  5
313
102
{ACAD_REACTORS
330
2FF
102
}
330
2FF
100
AcDbProxyObject
 90
      499
 91
      502
 93
      218
310
46828000000000000000000000000000000000000000000000000000
  0
ACAD_PROXY_OBJECT
  5
311
102
{ACAD_REACTORS
330
2FF
102
}
330
2FF
100
AcDbProxyObject
 90
      499
 91
      502
 93
      218
310
46828000000000000000000000000000000000000000000000000000
  0
ACAD_PROXY_OBJECT
  5
312
102
{ACAD_REACTORS
330
2FF
102
}
330
2FF
100
AcDbProxyObject
 90
      499
 91
      502
 93
      218
310
46828000000000000000000000000000000000000000000000000000
  0
ACAD_PROXY_OBJECT
  5
30F
102
{ACAD_REACTORS
330
2FF
102
}
330
2FF
100
AcDbProxyObject
 90
      499
 91
      502
 93
      218
310
46828000000000000000000000000000000000000000000000000000
  0
ACAD_PROXY_OBJECT
  5
30C
102
{ACAD_REACTORS
330
2FF
102
}
330
2FF
100
AcDbProxyObject
 90
      499
 91
      502
 93
       90
310
429500400000000000000000
  0
ACAD_PROXY_OBJECT
  5
30D
102
{ACAD_REACTORS
330
2FF
102
}
330
2FF
100
AcDbProxyObject
 90
      499
 91
      502
 93
       42
310
411180000000
  0
ACAD_PROXY_OBJECT
  5
303
102
{ACAD_REACTORS
330
2FF
102
}
330
2FF
100
AcDbProxyObject
 90
      499
 91
      502
 93
       50
310
41404000000780
  0
ACAD_PROXY_OBJECT
  5
300
102
{ACAD_REACTORS
330
2FF
102
}
330
2FF
100
AcDbProxyObject
 90
      499
 91
      502
 93
       58
310
4196800040000000
  0
ACAD_PROXY_OBJECT
  5
301
102
{ACAD_REACTORS
330
2FF
102
}
330
2FF
100
AcDbProxyObject
 90
      499
 91
      502
 93
       58
310
4196801180000000
  0
ACAD_PROXY_OBJECT
  5
317
102
{ACAD_REACTORS
330
2FF
102
}
330
2FF
100
AcDbProxyObject
 90
      499
 91
      502
 93
       90
310
429500400000000000000000
  0
ACAD_PROXY_OBJECT
  5
31D
102
{ACAD_REACTORS
330
2FF
102
}
330
2FF
100
AcDbProxyObject
 90
      499
 91
      502
 93
      218
310
46828000000000000000000000000000000000000000000000000000
  0
ACAD_PROXY_OBJECT
  5
319
102
{ACAD_REACTORS
330
2FF
102
}
330
2FF
100
AcDbProxyObject
 90
      499
 91
      502
 93
      218
310
46828000000000000000000000000000000000000000000000000000
  0
ACAD_PROXY_OBJECT
  5
31C
102
{ACAD_REACTORS
330
2FF
102
}
330
2FF
100
AcDbProxyObject
 90
      499
 91
      502
 93
      218
310
46828000000000000000000000000000000000000000000000000000
  0
ACAD_PROXY_OBJECT
  5
31A
102
{ACAD_REACTORS
330
2FF
102
}
330
2FF
100
AcDbProxyObject
 90
      499
 91
      502
 93
      218
310
46828000000000000000000000000000000000000000000000000000
  0
ACAD_PROXY_OBJECT
  5
31B
102
{ACAD_REACTORS
330
2FF
102
}
330
2FF
100
AcDbProxyObject
 90
      499
 91
      502
 93
      218
310
46828000000000000000000000000000000000000000000000000000
  0
ACAD_PROXY_OBJECT
  5
318
102
{ACAD_REACTORS
330
2FF
102
}
330
2FF
100
AcDbProxyObject
 90
      499
 91
      502
 93
      218
310
46828000000000000000000000000000000000000000000000000000
  0
ACAD_PROXY_OBJECT
  5
315
102
{ACAD_REACTORS
330
2FF
102
}
330
2FF
100
AcDbProxyObject
 90
      499
 91
      502
 93
       90
310
429500400000000000000000
  0
ACAD_PROXY_OBJECT
  5
316
102
{ACAD_REACTORS
330
2FF
102
}
330
2FF
100
AcDbProxyObject
 90
      499
 91
      502
 93
       42
310
411180000000
  0
ACAD_PROXY_OBJECT
  5
30A
102
{ACAD_REACTORS
330
2FF
102
}
330
2FF
100
AcDbProxyObject
 90
      499
 91
      502
 93
      354
310
4AC0400980079ED19051508C50CCCC8B514C0C4E4B4C4C510D4B4E4C8E508B4C0C10CC11118C8D4D9150CD1F40
  0
ENDSEC
  0
EOF
